<svg width="44" height="44" viewBox="0 0 44 44" fill="none" xmlns="http://www.w3.org/2000/svg">
<circle opacity="0.2" cx="22" cy="22" r="21.5" stroke="white"/>
<path d="M14.8994 9V26H20.6015V20.645H24.3982V26H30.1002V16.3454L18.6819 13.0729V9H14.8994Z" fill="#74E262"/>
<path opacity="0.8" d="M16.925 29.3C16.555 29.3 16.24 29.42 16.035 29.64V28.29H15.41V32H16.035V30.65C16.035 30.115 16.335 29.845 16.78 29.845C17.18 29.845 17.415 30.075 17.415 30.55V32H18.04V30.47C18.04 29.665 17.565 29.3 16.925 29.3ZM20.0573 32.035C20.8873 32.035 21.4823 31.465 21.4823 30.665C21.4823 29.865 20.8873 29.3 20.0573 29.3C19.2373 29.3 18.6373 29.865 18.6373 30.665C18.6373 31.465 19.2373 32.035 20.0573 32.035ZM20.0573 31.5C19.6073 31.5 19.2673 31.175 19.2673 30.665C19.2673 30.155 19.6073 29.83 20.0573 29.83C20.5123 29.83 20.8523 30.155 20.8523 30.665C20.8523 31.175 20.5123 31.5 20.0573 31.5ZM24.0399 29.33V30.68C24.0399 31.215 23.7449 31.485 23.3099 31.485C22.9149 31.485 22.6849 31.255 22.6849 30.77V29.33H22.0599V30.855C22.0599 31.66 22.5249 32.035 23.2099 32.035C23.5549 32.035 23.8699 31.905 24.0699 31.66V32H24.6649V29.33H24.0399ZM26.0582 31.5L27.5282 29.725V29.33H25.2932V29.83H26.7282L25.2632 31.605V32H27.5682V31.5H26.0582ZM28.7194 31.5L30.1894 29.725V29.33H27.9544V29.83H29.3894L27.9244 31.605V32H30.2294V31.5H28.7194Z" fill="white"/>
</svg>
