<svg width="46" height="46" viewBox="0 0 46 46" fill="none" xmlns="http://www.w3.org/2000/svg">
<path d="M27.2105 20.5842C26.5937 20.5842 25.9895 20.4879 25.4168 20.2989C25.1374 20.2026 24.82 20.2768 24.6363 20.4642L23.5011 21.3216C22.1984 20.6263 21.3647 19.7932 20.679 18.5L21.5132 17.3916C21.7232 17.1816 21.7984 16.8742 21.7084 16.5863C21.5179 16.01 21.4211 15.4053 21.4211 14.7895C21.4211 14.3542 21.0669 14 20.6316 14H18.7895C18.3542 14 18 14.3542 18 14.7895C18 19.8679 22.1321 24 27.2105 24C27.6458 24 28 23.6458 28 23.2105V21.3737C28 20.9384 27.6458 20.5842 27.2105 20.5842Z" fill="white"/>
<g filter="url(#filter0_d)">
<circle cx="23" cy="19" r="12.5" stroke="white"/>
</g>
<defs>
<filter id="filter0_d" x="0" y="0" width="46" height="46" filterUnits="userSpaceOnUse" color-interpolation-filters="sRGB">
<feFlood flood-opacity="0" result="BackgroundImageFix"/>
<feColorMatrix in="SourceAlpha" type="matrix" values="0 0 0 0 0 0 0 0 0 0 0 0 0 0 0 0 0 0 127 0"/>
<feOffset dy="4"/>
<feGaussianBlur stdDeviation="5"/>
<feColorMatrix type="matrix" values="0 0 0 0 0 0 0 0 0 0 0 0 0 0 0 0 0 0 0.15 0"/>
<feBlend mode="normal" in2="BackgroundImageFix" result="effect1_dropShadow"/>
<feBlend mode="normal" in="SourceGraphic" in2="effect1_dropShadow" result="shape"/>
</filter>
</defs>
</svg>
