<svg width="44" height="44" viewBox="0 0 44 44" fill="none" xmlns="http://www.w3.org/2000/svg">
<circle opacity="0.2" cx="22" cy="22" r="21.5" stroke="white"/>
<g clip-path="url(#clip0)">
<path d="M30.8962 32.0001C31.5057 32.0001 32 31.5059 32 30.8962V13.1038C32 12.4941 31.5057 12 30.8962 12H13.1038C12.4941 12 12 12.4941 12 13.1038V30.8962C12 31.5059 12.4941 32.0001 13.1038 32.0001H30.8962Z" fill="#395185"/>
<path d="M25.7995 31.9999V24.2548H28.3993L28.7885 21.2364H25.7995V19.3093C25.7995 18.4354 26.0423 17.8398 27.2955 17.8398L28.8938 17.8391V15.1395C28.6173 15.1027 27.6685 15.0205 26.5648 15.0205C24.2602 15.0205 22.6826 16.4271 22.6826 19.0104V21.2364H20.0762V24.2548H22.6826V31.9999H25.7995Z" fill="white"/>
</g>
<defs>
<clipPath id="clip0">
<rect width="20" height="20" fill="white" transform="translate(12 12)"/>
</clipPath>
</defs>
</svg>
