<svg width="46" height="46" viewBox="0 0 46 46" fill="none" xmlns="http://www.w3.org/2000/svg">
<path d="M18.23 15.6491C19.7398 16.8889 22.389 19.0702 23.1676 19.7503C23.2722 19.8421 23.3843 19.8887 23.5007 19.8887C23.6168 19.8887 23.7287 19.8425 23.833 19.7512C24.6123 19.0704 27.2615 16.8889 28.7713 15.6491C28.8653 15.5721 28.8796 15.4366 28.8035 15.3424C28.6276 15.1248 28.3653 15 28.0842 15H18.9171C18.636 15 18.3737 15.1248 18.1978 15.3425C18.1217 15.4366 18.136 15.5721 18.23 15.6491Z" fill="white"/>
<path d="M28.8672 16.3205C28.786 16.2839 28.6904 16.2966 28.6228 16.3526C27.634 17.1654 26.3313 18.2392 25.3487 19.0586C25.297 19.1016 25.268 19.1648 25.2691 19.2309C25.2702 19.2969 25.3018 19.3592 25.355 19.4004C26.2679 20.1094 27.6437 21.0847 28.6371 21.7779C28.6768 21.8056 28.7237 21.8197 28.771 21.8197C28.8068 21.8197 28.8426 21.8117 28.8755 21.7952C28.952 21.7572 29.0002 21.6808 29.0002 21.5975V16.5221C29.0001 16.4355 28.9482 16.3568 28.8672 16.3205Z" fill="white"/>
<path d="M18.363 21.7777C19.3567 21.0845 20.7327 20.1092 21.6454 19.4002C21.6986 19.359 21.7302 19.2967 21.7313 19.2308C21.7324 19.1646 21.7033 19.1014 21.6516 19.0584C20.6691 18.239 19.3661 17.1652 18.3773 16.3525C18.3093 16.2965 18.2135 16.2841 18.133 16.3203C18.0519 16.3566 18 16.4354 18 16.5219V21.5973C18 21.6807 18.0481 21.7571 18.1247 21.795C18.1576 21.8115 18.1934 21.8196 18.2292 21.8196C18.2764 21.8196 18.3234 21.8055 18.363 21.7777Z" fill="white"/>
<path d="M28.7204 22.3824C27.761 21.7168 25.9936 20.4759 24.9385 19.6456C24.8526 19.5777 24.7281 19.5798 24.6436 19.6506C24.4365 19.8257 24.2633 19.9733 24.1404 20.0805C23.7631 20.4108 23.2394 20.4108 22.8611 20.0801C22.7387 19.9731 22.5655 19.825 22.3585 19.6506C22.2746 19.5794 22.1499 19.5772 22.0637 19.6456C21.0123 20.4731 19.2428 21.7155 18.2818 22.3824C18.2283 22.4197 18.1939 22.4772 18.1872 22.5408C18.1807 22.6044 18.2024 22.6675 18.2474 22.7144C18.4208 22.8956 18.6652 22.9996 18.9175 22.9996H28.0846C28.3368 22.9996 28.581 22.8956 28.7549 22.7144C28.7997 22.6678 28.8216 22.6046 28.8151 22.541C28.8084 22.4775 28.7739 22.4197 28.7204 22.3824Z" fill="white"/>
<g filter="url(#filter0_d)">
<circle cx="23" cy="19" r="12.5" stroke="white"/>
</g>
<defs>
<filter id="filter0_d" x="0" y="0" width="46" height="46" filterUnits="userSpaceOnUse" color-interpolation-filters="sRGB">
<feFlood flood-opacity="0" result="BackgroundImageFix"/>
<feColorMatrix in="SourceAlpha" type="matrix" values="0 0 0 0 0 0 0 0 0 0 0 0 0 0 0 0 0 0 127 0"/>
<feOffset dy="4"/>
<feGaussianBlur stdDeviation="5"/>
<feColorMatrix type="matrix" values="0 0 0 0 0 0 0 0 0 0 0 0 0 0 0 0 0 0 0.15 0"/>
<feBlend mode="normal" in2="BackgroundImageFix" result="effect1_dropShadow"/>
<feBlend mode="normal" in="SourceGraphic" in2="effect1_dropShadow" result="shape"/>
</filter>
</defs>
</svg>
