<svg width="44" height="44" viewBox="0 0 44 44" fill="none" xmlns="http://www.w3.org/2000/svg">
<path fill-rule="evenodd" clip-rule="evenodd" d="M32.0037 16.9922C32.0037 14.2312 29.7647 11.9922 27.0037 11.9922C23.9497 11.9922 20.0577 11.9922 17.0037 11.9922C14.2427 11.9922 12.0037 14.2312 12.0037 16.9922C12.0037 20.0462 12.0037 23.9382 12.0037 26.9922C12.0037 29.7532 14.2427 31.9922 17.0037 31.9922C20.0577 31.9922 23.9497 31.9922 27.0037 31.9922C29.7647 31.9922 32.0037 29.7532 32.0037 26.9922C32.0037 23.9382 32.0037 20.0462 32.0037 16.9922Z" fill="url(#paint0_radial)"/>
<path d="M24.9619 14.9974C27.0529 15.0174 28.9779 16.8124 28.9989 19.0344C29.0059 21.0064 29.0059 22.9784 28.9989 24.9504C28.9789 27.0334 27.1839 28.9664 24.9619 28.9874C22.9899 28.9944 21.0179 28.9944 19.0459 28.9874C16.9539 28.9674 15.0299 27.1724 15.0089 24.9504C15.0019 22.9784 15.0019 21.0064 15.0089 19.0344C15.0279 16.9414 16.8189 15.0184 19.0459 14.9974C21.0179 14.9904 22.9899 14.9904 24.9619 14.9974ZM19.0729 15.9424C17.4499 15.9474 15.9699 17.3544 15.9539 19.0404C15.9479 21.0084 15.9479 22.9764 15.9539 24.9444C15.9689 26.5494 17.3419 28.0264 19.0519 28.0424C21.0199 28.0484 22.9879 28.0484 24.9559 28.0424C26.5649 28.0274 28.0379 26.6544 28.0539 24.9444C28.0599 22.9764 28.0599 21.0084 28.0539 19.0404C28.0389 17.4244 26.6389 15.9584 24.9559 15.9424C22.9949 15.9364 21.0339 15.9424 19.0729 15.9424Z" fill="white"/>
<path d="M22.0222 18.5078C23.6402 18.5228 25.1482 19.7708 25.4442 21.3698C25.6552 22.5098 25.2572 23.7458 24.4172 24.5478C23.4822 25.4378 22.0352 25.7558 20.7952 25.3018C19.4092 24.7948 18.4342 23.3338 18.4992 21.8538C18.5782 20.0858 20.1402 18.5138 21.9982 18.5078C22.0062 18.5078 22.0142 18.5078 22.0222 18.5078ZM21.9822 19.4548C20.8272 19.4658 19.7382 20.3418 19.4982 21.4798C19.2552 22.6308 19.9172 23.9078 21.0042 24.3668C22.1912 24.8688 23.7242 24.3058 24.2972 23.1338C24.8902 21.9228 24.3312 20.2778 23.0792 19.6928C22.7382 19.5338 22.3592 19.4538 21.9822 19.4548Z" fill="white"/>
<path fill-rule="evenodd" clip-rule="evenodd" d="M26.5 18.227C26.5 18.034 26.423 17.849 26.287 17.713C26.151 17.577 25.966 17.5 25.773 17.5C25.758 17.5 25.742 17.5 25.727 17.5C25.534 17.5 25.349 17.577 25.213 17.713C25.077 17.849 25 18.034 25 18.227C25 18.235 25 18.242 25 18.25C25 18.449 25.079 18.64 25.22 18.78C25.36 18.921 25.551 19 25.75 19C26.164 19 26.5 18.664 26.5 18.25C26.5 18.242 26.5 18.235 26.5 18.227Z" fill="white"/>
<circle opacity="0.2" cx="22" cy="22" r="21.5" stroke="white"/>
<defs>
<radialGradient id="paint0_radial" cx="0" cy="0" r="1" gradientUnits="userSpaceOnUse" gradientTransform="translate(12.0037 31.4922) scale(27.933)">
<stop stop-color="#FF8100"/>
<stop offset="0.19" stop-color="#FF7209"/>
<stop offset="0.32" stop-color="#F55E16"/>
<stop offset="0.48" stop-color="#D92938"/>
<stop offset="1" stop-color="#9100FF"/>
</radialGradient>
</defs>
</svg>
