<svg width="46" height="46" viewBox="0 0 46 46" fill="none" xmlns="http://www.w3.org/2000/svg">
<g filter="url(#filter0_d)">
<circle cx="23" cy="19" r="12.5" stroke="white"/>
</g>
<path d="M22.5 12C20.0142 12 18 13.9516 18 16.369C18 20.5488 22.5 26 22.5 26C22.5 26 27 20.548 27 16.369C27 13.9525 24.9858 12 22.5 12ZM22.5 18.7864C21.8555 18.7864 21.2374 18.5373 20.7817 18.094C20.326 17.6506 20.07 17.0494 20.07 16.4224C20.07 15.7954 20.326 15.1941 20.7817 14.7508C21.2374 14.3075 21.8555 14.0584 22.5 14.0584C23.1445 14.0584 23.7626 14.3075 24.2183 14.7508C24.674 15.1941 24.93 15.7954 24.93 16.4224C24.93 17.0494 24.674 17.6506 24.2183 18.094C23.7626 18.5373 23.1445 18.7864 22.5 18.7864Z" fill="white"/>
<defs>
<filter id="filter0_d" x="0" y="0" width="46" height="46" filterUnits="userSpaceOnUse" color-interpolation-filters="sRGB">
<feFlood flood-opacity="0" result="BackgroundImageFix"/>
<feColorMatrix in="SourceAlpha" type="matrix" values="0 0 0 0 0 0 0 0 0 0 0 0 0 0 0 0 0 0 127 0"/>
<feOffset dy="4"/>
<feGaussianBlur stdDeviation="5"/>
<feColorMatrix type="matrix" values="0 0 0 0 0 0 0 0 0 0 0 0 0 0 0 0 0 0 0.15 0"/>
<feBlend mode="normal" in2="BackgroundImageFix" result="effect1_dropShadow"/>
<feBlend mode="normal" in="SourceGraphic" in2="effect1_dropShadow" result="shape"/>
</filter>
</defs>
</svg>
