<svg width="44" height="44" viewBox="0 0 44 44" fill="none" xmlns="http://www.w3.org/2000/svg">
<circle opacity="0.2" cx="22" cy="22" r="21.5" stroke="white"/>
<path d="M22 10C15.3725 10 10 15.3725 10 22C10 28.6275 15.3725 34 22 34C28.6275 34 34 28.6275 34 22C34 15.3725 28.6275 10 22 10Z" fill="#40B3E0"/>
<path d="M28 16.4251L25.7857 27.5005C25.7857 27.5005 25.4761 28.2685 24.6245 27.8999L19.5148 24.0135L17.6568 23.1226L14.5291 22.078C14.5291 22.078 14.0491 21.9091 14.0026 21.5404C13.9561 21.1718 14.5446 20.9721 14.5446 20.9721L26.9779 16.1334C26.9779 16.1334 27.9999 15.6879 27.9999 16.4253" fill="white"/>
<path d="M19.4764 28C19.4764 28 19.3261 27.9863 19.1388 27.409C18.9517 26.8317 18 23.7936 18 23.7936L25.5663 19.1148C25.5663 19.1148 26.0032 18.8565 25.9875 19.1148C25.9875 19.1148 26.0655 19.1604 25.8314 19.373C25.5975 19.5858 19.8877 24.5836 19.8877 24.5836" fill="#D2E5F1"/>
<path d="M22 25.7813L19.422 27.9194C19.422 27.9194 19.2204 28.0585 19 27.9713L19.4937 24" fill="#B5CFE4"/>
</svg>
