<svg width="44" height="44" viewBox="0 0 44 44" fill="none" xmlns="http://www.w3.org/2000/svg">
<circle opacity="0.2" cx="22" cy="22" r="21.5" stroke="white"/>
<g filter="url(#filter0_f)">
<path d="M10 34L11.6958 27.8389C10.6531 26.036 10.0974 23.9881 10.1031 21.8945C10.1031 15.3339 15.4657 10 22.0544 10C25.2513 10 28.2535 11.238 30.5051 13.4856C32.7624 15.7333 34.0057 18.7226 34 21.9002C34 28.4607 28.6373 33.7947 22.0487 33.7947H22.0429C20.0434 33.7947 18.0783 33.2927 16.3308 32.3456L10 34ZM16.6288 30.1892L16.9897 30.406C18.5137 31.3073 20.2611 31.7808 22.0429 31.7865H22.0487C27.5202 31.7865 31.9775 27.3539 31.9775 21.9002C31.9775 19.2588 30.9462 16.7773 29.0728 14.906C27.1993 13.0349 24.7013 12.0081 22.0487 12.0081C16.5714 12.0081 12.1141 16.4407 12.1141 21.8944C12.1141 23.7599 12.6354 25.5797 13.6323 27.1543L13.8672 27.5308L12.8647 31.1761L16.6288 30.1892Z" fill="black" fill-opacity="0.24"/>
</g>
<path d="M11 32.9999L12.5563 27.0942C11.5966 25.3619 11.0918 23.3975 11.0925 21.3981C11.0925 15.113 16.0117 10 22.0462 10C24.9792 10 27.7272 11.1891 29.7949 13.3406C31.8626 15.4923 33 18.3574 33 21.4037C33 27.6887 28.0808 32.8017 22.0463 32.8017H22.0408C20.207 32.8017 18.4058 32.3204 16.806 31.4145L11 33V32.9999Z" fill="url(#paint0_linear)"/>
<path d="M10 33.9999L11.6958 27.8388C10.6531 26.0361 10.0973 23.9881 10.1031 21.8945C10.1031 15.334 15.4657 10 22.0545 10C25.2513 10 28.2534 11.2379 30.5051 13.4856C32.7624 15.7332 34.0057 18.7226 34 21.9001C34 28.4606 28.6374 33.7946 22.0486 33.7946H22.043C20.0473 33.7938 18.0836 33.2956 16.3308 32.3455L10 34V33.9999ZM16.6287 30.1891L16.9897 30.4059C18.5137 31.3073 20.2611 31.7808 22.043 31.7865H22.0487C27.5201 31.7865 31.9776 27.3539 31.9776 21.9001C31.9776 19.2589 30.9463 16.7773 29.0728 14.9061C27.1993 13.035 24.7013 12.0081 22.0487 12.0081C16.5715 12.0081 12.1141 16.4407 12.1141 21.8945C12.1141 23.7599 12.6354 25.5797 13.6324 27.1542L13.8673 27.5307L12.8646 31.176L16.6287 30.1891Z" fill="white"/>
<path d="M19.0488 17.4631C18.8278 17.0204 18.5954 17.0101 18.3858 17.0051C18.2158 17 18.0175 17 17.8191 17C17.6208 17 17.3034 17.0662 17.0314 17.3308C16.7594 17.5954 16 18.2367 16 19.5447C16 20.8474 17.0597 22.1095 17.2071 22.2876C17.3544 22.4658 19.2528 25.2291 22.2505 26.2928C24.7439 27.1783 25.254 27.0002 25.7923 26.9544C26.3363 26.9086 27.5377 26.3131 27.787 25.6923C28.0307 25.0714 28.0307 24.5421 27.957 24.4302C27.8833 24.3181 27.685 24.2521 27.3903 24.1197C27.0957 23.9874 25.645 23.3462 25.373 23.2546C25.1009 23.163 24.9026 23.1223 24.71 23.3869C24.5116 23.6515 23.945 24.2469 23.7749 24.4251C23.6049 24.6032 23.4293 24.6236 23.1345 24.4913C22.8399 24.359 21.8879 24.079 20.7602 23.1731C19.8818 22.4708 19.2868 21.6006 19.1167 21.336C18.9468 21.0714 19.0998 20.9287 19.2471 20.7965C19.3774 20.6794 19.5418 20.4861 19.6892 20.3334C19.8365 20.1807 19.8875 20.0688 19.9838 19.8906C20.0802 19.7125 20.0348 19.5599 19.9611 19.4276C19.8875 19.2952 19.3095 17.9873 19.0488 17.4631Z" fill="white"/>
<defs>
<filter id="filter0_f" x="4" y="4" width="36" height="36" filterUnits="userSpaceOnUse" color-interpolation-filters="sRGB">
<feFlood flood-opacity="0" result="BackgroundImageFix"/>
<feBlend mode="normal" in="SourceGraphic" in2="BackgroundImageFix" result="shape"/>
<feGaussianBlur stdDeviation="3" result="effect1_foregroundBlur"/>
</filter>
<linearGradient id="paint0_linear" x1="21.9996" y1="32.9984" x2="21.9996" y2="9.99862" gradientUnits="userSpaceOnUse">
<stop stop-color="#20B038"/>
<stop offset="1" stop-color="#60D66A"/>
</linearGradient>
</defs>
</svg>
