<svg width="70" height="70" viewBox="0 0 70 70" fill="none" xmlns="http://www.w3.org/2000/svg">
<path d="M46.6462 25.0103L46.639 24.9815C46.0555 22.6226 43.4248 20.0913 41.009 19.5647L40.9817 19.5591C37.0742 18.8136 33.1122 18.8136 29.2055 19.5591L29.1775 19.5647C26.7624 20.0913 24.1318 22.6226 23.5475 24.9815L23.541 25.0103C22.8197 28.3047 22.8197 31.6455 23.541 34.9398L23.5475 34.9687C24.1068 37.2269 26.5416 39.6419 28.8673 40.306V42.9392C28.8673 43.8923 30.0287 44.3604 30.6892 43.6727L33.3571 40.8994C33.9357 40.9318 34.5147 40.9498 35.0936 40.9498C37.0606 40.9498 39.0284 40.7639 40.9817 40.3911L41.009 40.3855C43.4248 39.8589 46.0555 37.3277 46.639 34.9687L46.6462 34.9399C47.3676 31.6455 47.3676 28.3047 46.6462 25.0103ZM44.5349 34.4621C44.1454 36.001 42.148 37.9143 40.5609 38.2678C38.4832 38.6629 36.3891 38.8318 34.2971 38.7738C34.2555 38.7727 34.2155 38.7888 34.1865 38.8186C33.8896 39.1234 32.2385 40.8183 32.2385 40.8183L30.1666 42.9448C30.0151 43.1027 29.749 42.9953 29.749 42.7773V38.4151C29.749 38.3431 29.6975 38.2818 29.6267 38.268C29.6263 38.2679 29.6259 38.2678 29.6255 38.2677C28.0385 37.9142 26.0418 36.001 25.6515 34.462C25.0022 31.4843 25.0022 28.4657 25.6515 25.488C26.0418 23.949 28.0385 22.0357 29.6255 21.6823C33.2541 20.9921 36.9332 20.9921 40.5609 21.6823C42.1488 22.0357 44.1454 23.949 44.5349 25.488C45.1849 28.4658 45.1849 31.4844 44.5349 34.4621Z" fill="#924CC4"/>
<path d="M38.5461 36.4752C38.3021 36.4012 38.0696 36.3514 37.8536 36.2618C35.6161 35.3334 33.5568 34.1358 31.9255 32.2998C30.9979 31.2558 30.2719 30.0772 29.6582 28.8298C29.3671 28.2383 29.1218 27.6236 28.8718 27.0129C28.6439 26.456 28.9797 25.8806 29.3332 25.461C29.665 25.0672 30.0919 24.7659 30.5542 24.5438C30.915 24.3704 31.271 24.4703 31.5346 24.7762C32.1043 25.4375 32.6276 26.1326 33.0514 26.8991C33.312 27.3705 33.2405 27.9468 32.7682 28.2677C32.6534 28.3457 32.5488 28.4372 32.4419 28.5253C32.3481 28.6025 32.2599 28.6805 32.1956 28.785C32.0781 28.9763 32.0725 29.2018 32.1481 29.4097C32.7305 31.0103 33.7122 32.2548 35.3231 32.9251C35.5809 33.0324 35.8398 33.1573 36.1368 33.1226C36.6341 33.0645 36.7951 32.519 37.1436 32.234C37.4843 31.9554 37.9196 31.9517 38.2866 32.1839C38.6536 32.4162 39.0094 32.6656 39.363 32.9176C39.7102 33.1649 40.0558 33.4069 40.376 33.6889C40.6839 33.9601 40.7899 34.3158 40.6165 34.6838C40.2991 35.3577 39.8373 35.9184 39.1711 36.2763C38.9829 36.3772 38.7583 36.4099 38.5461 36.4752C38.3021 36.4011 38.7583 36.4099 38.5461 36.4752Z" fill="white"/>
<path d="M35.0997 23.7727C38.0265 23.8547 40.4304 25.7971 40.9456 28.6906C41.0333 29.1837 41.0646 29.6877 41.1036 30.1881C41.12 30.3986 41.0009 30.5986 40.7737 30.6013C40.5391 30.6041 40.4335 30.4078 40.4183 30.1974C40.3882 29.781 40.3672 29.3626 40.3099 28.9496C40.0069 26.7693 38.2683 24.9656 36.0982 24.5785C35.7716 24.5202 35.4374 24.5049 35.1066 24.4702C34.8975 24.4482 34.6236 24.4356 34.5772 24.1756C34.5384 23.9577 34.7223 23.7842 34.9298 23.773C34.9863 23.7699 35.043 23.7725 35.0997 23.7727C38.0265 23.8547 35.043 23.7725 35.0997 23.7727Z" fill="white"/>
<path d="M39.5478 29.5398C39.543 29.5764 39.5405 29.6623 39.5191 29.7433C39.4414 30.0371 38.9959 30.0739 38.8933 29.7773C38.8629 29.6893 38.8584 29.5892 38.8582 29.4945C38.8572 28.8746 38.7224 28.2553 38.4098 27.7159C38.0885 27.1616 37.5975 26.6956 37.0217 26.4136C36.6735 26.2431 36.297 26.1371 35.9154 26.074C35.7486 26.0464 35.58 26.0297 35.4124 26.0063C35.2093 25.9781 35.1008 25.8487 35.1105 25.6485C35.1194 25.461 35.2565 25.3261 35.4609 25.3376C36.1326 25.3758 36.7813 25.5209 37.3785 25.8371C38.5928 26.4802 39.2865 27.4953 39.4889 28.8507C39.4981 28.9121 39.5128 28.9729 39.5175 29.0345C39.5289 29.1868 39.5361 29.3391 39.5478 29.5398C39.543 29.5764 39.5361 29.3391 39.5478 29.5398Z" fill="white"/>
<path d="M37.7271 29.4681C37.4822 29.4725 37.3512 29.337 37.3259 29.1125C37.3084 28.9559 37.2945 28.7973 37.2572 28.645C37.1836 28.3451 37.0242 28.0671 36.7718 27.8833C36.6527 27.7965 36.5178 27.7333 36.3764 27.6925C36.1967 27.6406 36.0102 27.6549 35.831 27.6109C35.6364 27.5632 35.5287 27.4057 35.5594 27.2231C35.5872 27.0569 35.7488 26.9272 35.9304 26.9404C37.0651 27.0223 37.8761 27.6089 37.9919 28.9448C38 29.039 38.0097 29.1387 37.9887 29.2288C37.9529 29.3832 37.8386 29.4606 37.7271 29.4681C37.4822 29.4725 37.8386 29.4606 37.7271 29.4681Z" fill="white"/>
<g opacity="0.2" filter="url(#filter0_d)">
<circle cx="35" cy="31" r="21.5" stroke="white"/>
</g>
<defs>
<filter id="filter0_d" x="0" y="0" width="70" height="70" filterUnits="userSpaceOnUse" color-interpolation-filters="sRGB">
<feFlood flood-opacity="0" result="BackgroundImageFix"/>
<feColorMatrix in="SourceAlpha" type="matrix" values="0 0 0 0 0 0 0 0 0 0 0 0 0 0 0 0 0 0 127 0"/>
<feOffset dy="4"/>
<feGaussianBlur stdDeviation="6.5"/>
<feColorMatrix type="matrix" values="0 0 0 0 0 0 0 0 0 0 0 0 0 0 0 0 0 0 0.25 0"/>
<feBlend mode="normal" in2="BackgroundImageFix" result="effect1_dropShadow"/>
<feBlend mode="normal" in="SourceGraphic" in2="effect1_dropShadow" result="shape"/>
</filter>
</defs>
</svg>
