<svg width="61" height="60" viewBox="0 0 61 60" fill="none" xmlns="http://www.w3.org/2000/svg">
<path d="M30.6802 13.7412C21.5731 13.7412 14.1904 21.1239 14.1904 30.231C14.1904 39.3381 21.5731 46.7208 30.6802 46.7208C39.7873 46.7208 47.17 39.3381 47.17 30.231C47.17 21.1239 39.7873 13.7412 30.6802 13.7412Z" fill="#40B3E0"/>
<path d="M38.9251 22.5704L35.8823 37.7897C35.8823 37.7897 35.4568 38.8451 34.2866 38.3385L27.2652 32.9981L24.712 31.7739L20.4141 30.3384C20.4141 30.3384 19.7545 30.1063 19.6906 29.5997C19.6267 29.0931 20.4354 28.8187 20.4354 28.8187L37.5206 22.1696C37.5206 22.1696 38.925 21.5575 38.925 22.5707" fill="white"/>
<path d="M27.2124 38.4757C27.2124 38.4757 27.0059 38.4569 26.7484 37.6636C26.4914 36.8704 25.1836 32.6955 25.1836 32.6955L35.5808 26.2661C35.5808 26.2661 36.1811 25.9112 36.1597 26.2661C36.1597 26.2661 36.2668 26.3288 35.9451 26.621C35.6237 26.9134 27.7776 33.781 27.7776 33.781" fill="#D2E5F1"/>
<path d="M30.6802 35.4273L27.1377 38.3653C27.1377 38.3653 26.8606 38.5564 26.5577 38.4366L27.2361 32.9795" fill="#B5CFE4"/>
<path opacity="0.2" d="M60.5 30C60.5 46.2846 47.0764 59.5 30.5 59.5C13.9236 59.5 0.5 46.2846 0.5 30C0.5 13.7154 13.9236 0.5 30.5 0.5C47.0764 0.5 60.5 13.7154 60.5 30Z" stroke="white"/>
</svg>
