<svg width="60" height="60" viewBox="0 0 60 60" fill="none" xmlns="http://www.w3.org/2000/svg">
<circle opacity="0.2" cx="30" cy="30" r="29.5" stroke="white"/>
<path d="M45.8812 21.8326L45.8713 21.7933C45.0756 18.5766 41.4884 15.1248 38.194 14.4067L38.1569 14.3991C32.8285 13.3826 27.4257 13.3826 22.0984 14.3991L22.0602 14.4067C18.7669 15.1248 15.1797 18.5766 14.3829 21.7933L14.3741 21.8326C13.3904 26.3249 13.3904 30.8806 14.3741 35.3728L14.3829 35.4122C15.1457 38.4916 18.4658 41.7847 21.6372 42.6904V46.2811C21.6372 47.5807 23.2209 48.219 24.1216 47.2812L27.7596 43.4995C28.5487 43.5437 29.3382 43.5683 30.1277 43.5683C32.8099 43.5683 35.4932 43.3147 38.1569 42.8065L38.194 42.7988C41.4884 42.0807 45.0756 38.629 45.8713 35.4123L45.8812 35.3729C46.8649 30.8806 46.8649 26.3249 45.8812 21.8326ZM43.0022 34.7214C42.471 36.82 39.7472 39.429 37.5831 39.911C34.7499 40.4497 31.8943 40.68 29.0415 40.601C28.9848 40.5995 28.9303 40.6214 28.8907 40.6621C28.4858 41.0777 26.2344 43.3889 26.2344 43.3889L23.4089 46.2887C23.2024 46.504 22.8395 46.3575 22.8395 46.0602V40.1119C22.8395 40.0136 22.7693 39.9301 22.6728 39.9112C22.6722 39.9111 22.6717 39.911 22.6712 39.9109C20.507 39.4289 17.7843 36.8198 17.252 34.7213C16.3667 30.6607 16.3667 26.5445 17.252 22.484C17.7843 20.3854 20.507 17.7764 22.6712 17.2944C27.6192 16.3533 32.6361 16.3533 37.5831 17.2944C39.7483 17.7764 42.471 20.3854 43.0022 22.484C43.8885 26.5446 43.8885 30.6609 43.0022 34.7214Z" fill="#924CC4"/>
<path d="M34.8355 37.4659C34.5028 37.3649 34.1857 37.297 33.8912 37.1748C30.84 35.9089 28.0318 34.2757 25.8075 31.7722C24.5425 30.3485 23.5525 28.7413 22.7156 27.0403C22.3187 26.2337 21.9842 25.3954 21.6433 24.5627C21.3325 23.8033 21.7903 23.0187 22.2724 22.4465C22.7248 21.9095 23.307 21.4985 23.9374 21.1957C24.4295 20.9593 24.9149 21.0955 25.2743 21.5126C26.0512 22.4144 26.7648 23.3622 27.3427 24.4075C27.698 25.0504 27.6005 25.8363 26.9565 26.2738C26.8 26.3801 26.6574 26.505 26.5116 26.6251C26.3837 26.7303 26.2633 26.8367 26.1757 26.9792C26.0155 27.24 26.0078 27.5476 26.111 27.8311C26.9052 30.0136 28.2438 31.7107 30.4405 32.6248C30.792 32.7711 31.145 32.9414 31.55 32.8941C32.2282 32.8149 32.4478 32.071 32.923 31.6823C33.3876 31.3025 33.9812 31.2975 34.4816 31.6141C34.982 31.9309 35.4672 32.2709 35.9495 32.6145C36.4228 32.9518 36.8942 33.2818 37.3308 33.6663C37.7506 34.0361 37.8952 34.5212 37.6588 35.023C37.226 35.942 36.5962 36.7065 35.6877 37.1946C35.4312 37.3322 35.1248 37.3768 34.8355 37.4659C34.5028 37.3648 35.1248 37.3768 34.8355 37.4659Z" fill="white"/>
<path d="M30.1359 20.1442C34.127 20.2561 37.4051 22.9047 38.1076 26.8505C38.2272 27.5228 38.2699 28.2102 38.3231 28.8926C38.3455 29.1796 38.183 29.4523 37.8732 29.456C37.5533 29.4598 37.4093 29.1922 37.3886 28.9053C37.3475 28.3373 37.319 27.7669 37.2407 27.2037C36.8275 24.2306 34.4568 21.7709 31.4975 21.243C31.0522 21.1636 30.5964 21.1427 30.1453 21.0954C29.8602 21.0654 29.4867 21.0482 29.4235 20.6937C29.3705 20.3965 29.6213 20.1599 29.9043 20.1447C29.9813 20.1404 30.0587 20.1439 30.1359 20.1442C34.127 20.2561 30.0587 20.1439 30.1359 20.1442Z" fill="white"/>
<path d="M36.2016 28.0086C36.195 28.0584 36.1915 28.1756 36.1623 28.286C36.0564 28.6867 35.4489 28.7369 35.309 28.3325C35.2676 28.2124 35.2614 28.0759 35.2611 27.9467C35.2597 27.1014 35.076 26.2569 34.6497 25.5215C34.2115 24.7655 33.5421 24.1301 32.7569 23.7455C32.2821 23.5131 31.7686 23.3686 31.2482 23.2824C31.0207 23.2448 30.7909 23.222 30.5623 23.1902C30.2854 23.1517 30.1375 22.9752 30.1506 22.7023C30.1628 22.4465 30.3497 22.2625 30.6284 22.2783C31.5444 22.3303 32.4291 22.5283 33.2433 22.9594C34.8993 23.8364 35.8451 25.2206 36.1212 27.0688C36.1337 27.1526 36.1538 27.2355 36.1601 27.3196C36.1758 27.5271 36.1856 27.7349 36.2016 28.0086C36.195 28.0584 36.1856 27.7349 36.2016 28.0086Z" fill="white"/>
<path d="M33.7187 27.9111C33.3848 27.9171 33.2061 27.7322 33.1716 27.4261C33.1477 27.2126 33.1288 26.9963 33.0779 26.7886C32.9775 26.3796 32.7601 26.0006 32.416 25.75C32.2536 25.6316 32.0696 25.5453 31.8768 25.4897C31.6318 25.419 31.3775 25.4384 31.1331 25.3786C30.8677 25.3135 30.7209 25.0986 30.7626 24.8496C30.8006 24.6231 31.021 24.4462 31.2686 24.4641C32.816 24.5758 33.9219 25.3758 34.0797 27.1974C34.0909 27.326 34.104 27.4618 34.0754 27.5848C34.0266 27.7953 33.8707 27.9008 33.7187 27.9111C33.3848 27.9171 33.8707 27.9008 33.7187 27.9111Z" fill="white"/>
</svg>
