<svg width="60" height="60" viewBox="0 0 60 60" fill="none" xmlns="http://www.w3.org/2000/svg">
<path d="M40.1053 33.8021C38.6248 33.8021 37.1748 33.571 35.8004 33.1175C35.1297 32.8863 34.368 33.0644 33.9272 33.5141L31.2025 35.5718C28.0762 33.9032 26.0754 31.9036 24.4295 28.8L26.4316 26.1398C26.9356 25.6358 27.1162 24.8981 26.9002 24.2072C26.443 22.824 26.2106 21.3726 26.2106 19.8947C26.2106 18.8501 25.3605 18 24.3158 18H19.8947C18.8501 18 18 18.8501 18 19.8947C18 32.0829 27.9171 42 40.1053 42C41.1499 42 42 41.1499 42 40.1053V35.6969C42 34.6522 41.1499 33.8021 40.1053 33.8021Z" fill="#F7F7F7"/>
<circle opacity="0.2" cx="30" cy="30" r="29.5" stroke="white"/>
</svg>
