<svg width="86" height="86" viewBox="0 0 86 86" fill="none" xmlns="http://www.w3.org/2000/svg">
<path d="M58.8812 30.8326L58.8713 30.7933C58.0756 27.5766 54.4884 24.1248 51.194 23.4067L51.1569 23.3991C45.8285 22.3826 40.4257 22.3826 35.0984 23.3991L35.0602 23.4067C31.7669 24.1248 28.1797 27.5766 27.3829 30.7933L27.3741 30.8326C26.3904 35.3249 26.3904 39.8806 27.3741 44.3728L27.3829 44.4122C28.1457 47.4916 31.4658 50.7847 34.6372 51.6904V55.2811C34.6372 56.5807 36.2209 57.219 37.1216 56.2812L40.7596 52.4995C41.5487 52.5437 42.3382 52.5683 43.1277 52.5683C45.8099 52.5683 48.4932 52.3147 51.1569 51.8065L51.194 51.7988C54.4884 51.0807 58.0756 47.629 58.8713 44.4123L58.8812 44.3729C59.8649 39.8806 59.8649 35.3249 58.8812 30.8326ZM56.0022 43.7214C55.471 45.82 52.7472 48.429 50.5831 48.911C47.7499 49.4497 44.8943 49.68 42.0415 49.601C41.9848 49.5995 41.9303 49.6214 41.8907 49.6621C41.4858 50.0777 39.2344 52.3889 39.2344 52.3889L36.4089 55.2887C36.2024 55.504 35.8395 55.3575 35.8395 55.0602V49.1119C35.8395 49.0136 35.7693 48.9301 35.6728 48.9112C35.6722 48.9111 35.6717 48.911 35.6712 48.9109C33.507 48.4289 30.7843 45.8198 30.252 43.7213C29.3667 39.6607 29.3667 35.5445 30.252 31.484C30.7843 29.3854 33.507 26.7764 35.6712 26.2944C40.6192 25.3533 45.6361 25.3533 50.5831 26.2944C52.7483 26.7764 55.471 29.3854 56.0022 31.484C56.8885 35.5446 56.8885 39.6609 56.0022 43.7214Z" fill="#924CC4"/>
<path d="M47.8355 46.4659C47.5028 46.3649 47.1857 46.297 46.8912 46.1748C43.84 44.9089 41.0318 43.2757 38.8075 40.7722C37.5425 39.3485 36.5525 37.7413 35.7156 36.0403C35.3187 35.2337 34.9842 34.3954 34.6433 33.5627C34.3325 32.8033 34.7903 32.0187 35.2724 31.4465C35.7248 30.9095 36.307 30.4985 36.9374 30.1957C37.4295 29.9593 37.9149 30.0955 38.2743 30.5126C39.0512 31.4144 39.7648 32.3622 40.3427 33.4075C40.698 34.0504 40.6005 34.8363 39.9565 35.2738C39.8 35.3801 39.6574 35.505 39.5116 35.6251C39.3837 35.7303 39.2633 35.8367 39.1757 35.9792C39.0155 36.24 39.0078 36.5476 39.111 36.8311C39.9052 39.0136 41.2438 40.7107 43.4405 41.6248C43.792 41.7711 44.145 41.9414 44.55 41.8941C45.2282 41.8149 45.4478 41.071 45.923 40.6823C46.3876 40.3025 46.9812 40.2975 47.4816 40.6141C47.982 40.9309 48.4672 41.2709 48.9495 41.6145C49.4228 41.9518 49.8942 42.2818 50.3308 42.6663C50.7506 43.0361 50.8952 43.5212 50.6588 44.023C50.226 44.942 49.5962 45.7065 48.6877 46.1946C48.4312 46.3322 48.1248 46.3768 47.8355 46.4659C47.5028 46.3648 48.1248 46.3768 47.8355 46.4659Z" fill="white"/>
<path d="M43.1359 29.1442C47.127 29.2561 50.4051 31.9047 51.1076 35.8505C51.2272 36.5228 51.2699 37.2102 51.3231 37.8926C51.3455 38.1796 51.183 38.4523 50.8732 38.456C50.5533 38.4598 50.4093 38.1922 50.3886 37.9053C50.3475 37.3373 50.319 36.7669 50.2407 36.2037C49.8275 33.2306 47.4568 30.7709 44.4975 30.243C44.0522 30.1636 43.5964 30.1427 43.1453 30.0954C42.8602 30.0654 42.4867 30.0482 42.4235 29.6937C42.3705 29.3965 42.6213 29.1599 42.9043 29.1447C42.9813 29.1404 43.0587 29.1439 43.1359 29.1442C47.127 29.2561 43.0587 29.1439 43.1359 29.1442Z" fill="white"/>
<path d="M49.2016 37.0086C49.195 37.0584 49.1915 37.1756 49.1623 37.286C49.0564 37.6867 48.4489 37.7369 48.309 37.3325C48.2676 37.2124 48.2614 37.0759 48.2611 36.9467C48.2597 36.1014 48.076 35.2569 47.6497 34.5215C47.2115 33.7655 46.5421 33.1301 45.7569 32.7455C45.2821 32.5131 44.7686 32.3686 44.2482 32.2824C44.0207 32.2448 43.7909 32.222 43.5623 32.1902C43.2854 32.1517 43.1375 31.9752 43.1506 31.7023C43.1628 31.4465 43.3497 31.2625 43.6284 31.2783C44.5444 31.3303 45.4291 31.5283 46.2433 31.9594C47.8993 32.8364 48.8451 34.2206 49.1212 36.0688C49.1337 36.1526 49.1538 36.2355 49.1601 36.3196C49.1758 36.5271 49.1856 36.7349 49.2016 37.0086C49.195 37.0584 49.1856 36.7349 49.2016 37.0086Z" fill="white"/>
<path d="M46.7187 36.9111C46.3848 36.9171 46.2061 36.7322 46.1716 36.4261C46.1477 36.2126 46.1288 35.9963 46.0779 35.7886C45.9775 35.3796 45.7601 35.0006 45.416 34.75C45.2536 34.6316 45.0696 34.5453 44.8768 34.4897C44.6318 34.419 44.3775 34.4384 44.1331 34.3786C43.8677 34.3135 43.7209 34.0986 43.7626 33.8496C43.8006 33.6231 44.021 33.4462 44.2686 33.4641C45.816 33.5758 46.9219 34.3758 47.0797 36.1974C47.0909 36.326 47.104 36.4618 47.0754 36.5848C47.0266 36.7953 46.8707 36.9008 46.7187 36.9111C46.3848 36.9171 46.8707 36.9008 46.7187 36.9111Z" fill="white"/>
<g opacity="0.2" filter="url(#filter0_d)">
<circle cx="43" cy="39" r="29.5" stroke="white"/>
</g>
<defs>
<filter id="filter0_d" x="0" y="0" width="86" height="86" filterUnits="userSpaceOnUse" color-interpolation-filters="sRGB">
<feFlood flood-opacity="0" result="BackgroundImageFix"/>
<feColorMatrix in="SourceAlpha" type="matrix" values="0 0 0 0 0 0 0 0 0 0 0 0 0 0 0 0 0 0 127 0"/>
<feOffset dy="4"/>
<feGaussianBlur stdDeviation="6.5"/>
<feColorMatrix type="matrix" values="0 0 0 0 0 0 0 0 0 0 0 0 0 0 0 0 0 0 0.25 0"/>
<feBlend mode="normal" in2="BackgroundImageFix" result="effect1_dropShadow"/>
<feBlend mode="normal" in="SourceGraphic" in2="effect1_dropShadow" result="shape"/>
</filter>
</defs>
</svg>
