<svg width="45" height="45" viewBox="0 0 45 45" fill="none" xmlns="http://www.w3.org/2000/svg">
<circle cx="22.5" cy="22.5" r="22.5" fill="#363C52"/>
<path d="M31.2632 26.4853C29.9061 26.4853 28.5769 26.2734 27.317 25.8577C26.7022 25.6458 26.004 25.809 25.5999 26.2213L23.1023 28.1075C20.2365 26.5779 18.4024 24.745 16.8937 21.9L18.729 19.4615C19.191 18.9995 19.3566 18.3233 19.1586 17.6899C18.7394 16.422 18.5263 15.0916 18.5263 13.7368C18.5263 12.7792 17.7471 12 16.7895 12H12.7368C11.7792 12 11 12.7792 11 13.7368C11 24.9094 20.0906 34 31.2632 34C32.2208 34 33 33.2208 33 32.2632V28.2221C33 27.2645 32.2208 26.4853 31.2632 26.4853Z" fill="#262B3F"/>
</svg>
