<svg width="11" height="10" viewBox="0 0 11 10" fill="none" xmlns="http://www.w3.org/2000/svg">
<path d="M9.86153 4.11326C9.80534 3.91515 9.63671 3.76976 9.4319 3.74378L6.64996 3.38899L5.64007 0.765606C5.56557 0.573328 5.38468 0.444047 5.17876 0.436569C4.97283 0.429092 4.78305 0.544912 4.69477 0.731722L3.49729 3.2745L0.696499 3.42657C0.490699 3.43809 0.312426 3.57043 0.241642 3.76393C0.170858 3.95744 0.221863 4.17435 0.372108 4.31537L2.41469 6.24227L1.69306 8.96014C1.64022 9.15998 1.71086 9.3711 1.87366 9.49803C1.96117 9.56622 2.06511 9.60309 2.17113 9.60694C2.26254 9.61026 2.35412 9.58891 2.43727 9.54317L4.89715 8.19164L7.25164 9.71799C7.42391 9.83034 7.64627 9.82874 7.81748 9.71387C7.98914 9.59872 8.07484 9.3932 8.03662 9.19049L7.51401 6.42744L9.69096 4.65414C9.85105 4.52401 9.91808 4.31176 9.86153 4.11326Z" fill="white"/>
</svg>
