<svg width="20" height="20" viewBox="0 0 20 20" fill="none" xmlns="http://www.w3.org/2000/svg">
<path d="M18.2843 4.89899L15.8021 3.7948L14.697 1.31166L11.9957 1.59377L9.79797 0L7.59901 1.59377L4.89899 1.31166L3.79464 3.79368L1.3115 4.89899L1.59377 7.60029L0 9.79797L1.59377 11.9969L1.3115 14.697L3.79368 15.8011L4.89899 18.2843L7.60029 18.0022L9.79797 19.5959L11.9969 18.0022L14.697 18.2843L15.8011 15.8021L18.2843 14.697L18.002 11.9957L19.5959 9.79797L18.002 7.59901L18.2843 4.89899ZM7.83838 13.7172L5.06548 10.9443L5.98978 10.0233L7.83838 11.8686L13.3807 6.32626L14.305 7.2504L7.83838 13.7172Z" fill="#45A834"/>
</svg>
