<svg width="44" height="44" viewBox="0 0 44 44" fill="none" xmlns="http://www.w3.org/2000/svg">
<path fill-rule="evenodd" clip-rule="evenodd" d="M32.0037 16.9927C32.0037 14.2317 29.7647 11.9927 27.0037 11.9927C23.9497 11.9927 20.0577 11.9927 17.0037 11.9927C14.2427 11.9927 12.0037 14.2317 12.0037 16.9927C12.0037 20.0467 12.0037 23.9387 12.0037 26.9927C12.0037 29.7537 14.2427 31.9927 17.0037 31.9927C20.0577 31.9927 23.9497 31.9927 27.0037 31.9927C29.7647 31.9927 32.0037 29.7537 32.0037 26.9927C32.0037 23.9387 32.0037 20.0467 32.0037 16.9927Z" fill="url(#paint0_radial)"/>
<path d="M24.9619 14.9979C27.0529 15.0179 28.9779 16.8129 28.9989 19.0349C29.0059 21.0069 29.0059 22.9789 28.9989 24.9509C28.9789 27.0339 27.1839 28.9669 24.9619 28.9879C22.9899 28.9949 21.0179 28.9949 19.0459 28.9879C16.9539 28.9679 15.0299 27.1729 15.0089 24.9509C15.0019 22.9789 15.0019 21.0069 15.0089 19.0349C15.0279 16.9419 16.8189 15.0189 19.0459 14.9979C21.0179 14.9909 22.9899 14.9909 24.9619 14.9979ZM19.0729 15.9429C17.4499 15.9479 15.9699 17.3549 15.9539 19.0409C15.9479 21.0089 15.9479 22.9769 15.9539 24.9449C15.9689 26.5499 17.3419 28.0269 19.0519 28.0429C21.0199 28.0489 22.9879 28.0489 24.9559 28.0429C26.5649 28.0279 28.0379 26.6549 28.0539 24.9449C28.0599 22.9769 28.0599 21.0089 28.0539 19.0409C28.0389 17.4249 26.6389 15.9589 24.9559 15.9429C22.9949 15.9369 21.0339 15.9429 19.0729 15.9429Z" fill="white"/>
<path d="M22.0222 18.5073C23.6402 18.5223 25.1482 19.7703 25.4442 21.3693C25.6552 22.5093 25.2572 23.7453 24.4172 24.5473C23.4822 25.4373 22.0352 25.7553 20.7952 25.3013C19.4092 24.7943 18.4342 23.3333 18.4992 21.8533C18.5782 20.0853 20.1402 18.5133 21.9982 18.5073C22.0062 18.5073 22.0142 18.5073 22.0222 18.5073ZM21.9822 19.4543C20.8272 19.4653 19.7382 20.3413 19.4982 21.4793C19.2552 22.6303 19.9172 23.9073 21.0042 24.3663C22.1912 24.8683 23.7242 24.3053 24.2972 23.1333C24.8902 21.9223 24.3312 20.2773 23.0792 19.6923C22.7382 19.5333 22.3592 19.4533 21.9822 19.4543Z" fill="white"/>
<path fill-rule="evenodd" clip-rule="evenodd" d="M26.5 18.227C26.5 18.034 26.423 17.849 26.287 17.713C26.151 17.577 25.966 17.5 25.773 17.5C25.758 17.5 25.742 17.5 25.727 17.5C25.534 17.5 25.349 17.577 25.213 17.713C25.077 17.849 25 18.034 25 18.227C25 18.235 25 18.242 25 18.25C25 18.449 25.079 18.64 25.22 18.78C25.36 18.921 25.551 19 25.75 19C26.164 19 26.5 18.664 26.5 18.25C26.5 18.242 26.5 18.235 26.5 18.227Z" fill="white"/>
<circle opacity="0.2" cx="22" cy="22" r="21.5" stroke="white"/>
<defs>
<radialGradient id="paint0_radial" cx="0" cy="0" r="1" gradientUnits="userSpaceOnUse" gradientTransform="translate(12.0037 31.4927) scale(27.933)">
<stop stop-color="#FF8100"/>
<stop offset="0.19" stop-color="#FF7209"/>
<stop offset="0.32" stop-color="#F55E16"/>
<stop offset="0.48" stop-color="#D92938"/>
<stop offset="1" stop-color="#9100FF"/>
</radialGradient>
</defs>
</svg>
