<svg width="27" height="27" viewBox="0 0 27 27" fill="none" xmlns="http://www.w3.org/2000/svg">
<circle cx="13.4996" cy="13.5003" r="7.25421" fill="white"/>
<path d="M25.1927 6.75L21.7727 5.22861L20.25 1.80725L16.5281 2.19595L13.5 0L10.4702 2.19595L6.75 1.80725L5.22839 5.22708L1.80703 6.75L2.19595 10.4719L0 13.5L2.19595 16.5298L1.80703 20.25L5.22708 21.7714L6.75 25.1927L10.4719 24.8041L13.5 27L16.5298 24.8041L20.25 25.1927L21.7714 21.7727L25.1927 20.25L24.8038 16.5281L27 13.5L24.8038 10.4702L25.1927 6.75ZM10.8 18.9L6.97939 15.0794L8.25293 13.8105L10.8 16.3529L18.4364 8.71655L19.7099 9.98987L10.8 18.9Z" fill="url(#paint0_linear)"/>
<defs>
<linearGradient id="paint0_linear" x1="0" y1="0" x2="28.2053" y2="1.32408" gradientUnits="userSpaceOnUse">
<stop stop-color="#E74063"/>
<stop offset="1" stop-color="#755CDB"/>
</linearGradient>
</defs>
</svg>
