<svg width="32" height="32" viewBox="0 0 32 32" fill="none" xmlns="http://www.w3.org/2000/svg">
<circle cx="16" cy="16" r="16" fill="url(#paint0_linear)"/>
<g clip-path="url(#clip0)">
<path d="M11.5617 16.3477L16.4568 21.2427C16.57 21.356 16.7212 21.4185 16.8823 21.4185C17.0435 21.4185 17.1946 21.356 17.3078 21.2427L17.6683 20.8823C17.9029 20.6475 17.9029 20.2658 17.6683 20.0313L13.5578 15.9207L17.6729 11.8056C17.7861 11.6923 17.8486 11.5413 17.8486 11.3802C17.8486 11.2189 17.7861 11.0679 17.6729 10.9545L17.3124 10.5942C17.1991 10.4809 17.0481 10.4185 16.8869 10.4185C16.7257 10.4185 16.5746 10.4809 16.4614 10.5942L11.5617 15.4937C11.4482 15.6074 11.3859 15.7591 11.3862 15.9205C11.3859 16.0824 11.4482 16.2341 11.5617 16.3477Z" fill="white"/>
</g>
<defs>
<linearGradient id="paint0_linear" x1="0" y1="0" x2="33.4286" y2="1.56929" gradientUnits="userSpaceOnUse">
<stop stop-color="#E74063"/>
<stop offset="1" stop-color="#755CDB"/>
</linearGradient>
<clipPath id="clip0">
<rect width="11" height="11" fill="white" transform="translate(11 10.4185)"/>
</clipPath>
</defs>
</svg>
