<svg width="15" height="15" viewBox="0 0 15 15" fill="none" xmlns="http://www.w3.org/2000/svg">
<g opacity="0.5">
<path d="M15 7.5C15 3.35484 11.6456 0 7.5 0C3.35484 0 0 3.35438 0 7.5C0 11.6084 3.32634 15 7.5 15C11.6565 15 15 11.6273 15 7.5ZM7.5 0.878906C11.1509 0.878906 14.1211 3.84911 14.1211 7.5C14.1211 8.83553 13.7239 10.1192 12.9872 11.2065C10.0291 8.0246 4.97623 8.01888 2.01279 11.2065C1.27613 10.1192 0.878906 8.83553 0.878906 7.5C0.878906 3.84911 3.84911 0.878906 7.5 0.878906ZM2.56096 11.9092C5.19104 8.95912 9.80965 8.95981 12.4389 11.9092C9.80003 14.8615 5.201 14.8624 2.56096 11.9092Z" fill="white"/>
<path d="M7.5 7.93945C8.95386 7.93945 10.1367 6.75659 10.1367 5.30273V4.42383C10.1367 2.96997 8.95386 1.78711 7.5 1.78711C6.04614 1.78711 4.86328 2.96997 4.86328 4.42383V5.30273C4.86328 6.75659 6.04614 7.93945 7.5 7.93945ZM5.74219 4.42383C5.74219 3.45451 6.53069 2.66602 7.5 2.66602C8.46931 2.66602 9.25781 3.45451 9.25781 4.42383V5.30273C9.25781 6.27205 8.46931 7.06055 7.5 7.06055C6.53069 7.06055 5.74219 6.27205 5.74219 5.30273V4.42383Z" fill="white"/>
</g>
</svg>
