<svg width="15" height="15" viewBox="0 0 15 15" fill="none" xmlns="http://www.w3.org/2000/svg">
<g opacity="0.5" clip-path="url(#clip0)">
<path d="M14.3649 5.46279C14.1202 5.21935 13.7244 5.22044 13.481 5.46516L5.9677 13.0191C4.99294 13.9939 3.40979 13.9939 2.43321 13.0178C1.45737 12.0414 1.45737 10.4583 2.43333 9.48232L10.169 1.70599C10.7776 1.09745 11.767 1.09745 12.3773 1.70731C12.9875 2.31746 12.9875 3.30675 12.3772 3.91708L5.96887 10.3253C5.96846 10.3257 5.96811 10.3262 5.9677 10.3266C5.72356 10.5694 5.32901 10.5691 5.08537 10.3254C4.84132 10.0814 4.84132 9.68585 5.08537 9.44181L8.17861 6.34792C8.42266 6.10382 8.42263 5.70807 8.17852 5.46402C7.93441 5.21997 7.53866 5.22 7.29461 5.46411L4.20141 8.55793C3.46923 9.2901 3.46923 10.4771 4.20147 11.2093C4.93367 11.9415 6.12069 11.9415 6.85292 11.2093C6.85377 11.2085 6.85445 11.2076 6.85527 11.2067L13.2611 4.80093C14.3595 3.70244 14.3595 1.92168 13.2611 0.823196C12.1624 -0.274643 10.3818 -0.274643 9.28395 0.823196L1.54825 8.59959C0.085304 10.0625 0.0853039 12.437 1.5493 13.9017C3.01427 15.3659 5.38872 15.3659 6.85281 13.9018L14.3673 6.34669C14.6107 6.10194 14.6096 5.70622 14.3649 5.46279Z" fill="white"/>
</g>
<defs>
<clipPath id="clip0">
<rect width="15" height="15" fill="white"/>
</clipPath>
</defs>
</svg>
