<svg width="64" height="64" viewBox="0 0 64 64" fill="none" xmlns="http://www.w3.org/2000/svg">
<g filter="url(#filter0_d)">
<path d="M32.0002 47.4074C43.1277 47.4074 52.1484 38.3867 52.1484 27.2592C52.1484 16.1317 43.1277 7.11108 32.0002 7.11108C20.8727 7.11108 11.8521 16.1317 11.8521 27.2592C11.8521 38.3867 20.8727 47.4074 32.0002 47.4074Z" fill="url(#paint0_linear)"/>
</g>
<path d="M23.236 25.5303L36.8998 20.2132C37.534 19.982 38.0879 20.3694 37.8824 21.3372L37.8836 21.336L35.557 32.3981C35.3847 33.1823 34.923 33.373 34.2769 33.0036L30.734 30.3682L29.0251 32.0297C28.8362 32.2204 28.6767 32.3814 28.3106 32.3814L28.5622 28.7425L35.1284 22.7555C35.4142 22.5017 35.0646 22.3586 34.6879 22.6113L26.5734 27.7676L23.0754 26.6662C22.316 26.4231 22.2994 25.8998 23.236 25.5303Z" fill="white"/>
<defs>
<filter id="filter0_d" x="1.85205" y="1.11108" width="60.2963" height="60.2963" filterUnits="userSpaceOnUse" color-interpolation-filters="sRGB">
<feFlood flood-opacity="0" result="BackgroundImageFix"/>
<feColorMatrix in="SourceAlpha" type="matrix" values="0 0 0 0 0 0 0 0 0 0 0 0 0 0 0 0 0 0 127 0"/>
<feOffset dy="4"/>
<feGaussianBlur stdDeviation="5"/>
<feColorMatrix type="matrix" values="0 0 0 0 0 0 0 0 0 0 0 0 0 0 0 0 0 0 0.15 0"/>
<feBlend mode="normal" in2="BackgroundImageFix" result="effect1_dropShadow"/>
<feBlend mode="normal" in="SourceGraphic" in2="effect1_dropShadow" result="shape"/>
</filter>
<linearGradient id="paint0_linear" x1="46.2224" y1="40.2963" x2="19.5558" y2="11.8518" gradientUnits="userSpaceOnUse">
<stop stop-color="#0075FF"/>
<stop offset="1" stop-color="#53A2FF"/>
</linearGradient>
</defs>
</svg>
