<svg width="64" height="64" viewBox="0 0 64 64" fill="none" xmlns="http://www.w3.org/2000/svg">
<g filter="url(#filter0_d)">
<path d="M32.0002 47.4074C43.1277 47.4074 52.1484 38.3867 52.1484 27.2592C52.1484 16.1317 43.1277 7.11108 32.0002 7.11108C20.8727 7.11108 11.8521 16.1317 11.8521 27.2592C11.8521 38.3867 20.8727 47.4074 32.0002 47.4074Z" fill="url(#paint0_linear)"/>
</g>
<path d="M39.7117 29.753C40.2067 25.5862 39.4738 22.9556 38.152 21.7658L38.1527 21.7651C36.0191 19.7332 28.8138 19.4324 26.2613 21.8563C25.1151 23.042 24.7113 24.7822 24.6671 26.9364C24.6227 29.0914 24.5702 33.1283 28.3319 34.2234H28.3353L28.3319 35.8958C28.3319 35.8958 28.3063 36.5733 28.7391 36.7094C29.2342 36.8699 29.4582 36.5554 30.9978 34.7163C33.5724 34.9396 35.5497 34.428 35.7744 34.3533C36.2943 34.1791 39.2361 33.7899 39.7117 29.753ZM31.2515 33.5397C31.2515 33.5397 29.622 35.5715 29.1152 36.0991C28.9493 36.2704 28.7674 36.2546 28.7703 35.9144C28.7703 35.6911 28.7827 33.1379 28.7827 33.1379C25.5934 32.224 25.7815 28.7865 25.8161 26.9883C25.8506 25.1894 26.1797 23.7161 27.1504 22.724C29.3897 20.6243 35.7066 21.0938 37.3161 22.6064C39.2837 24.3508 38.5834 29.2788 38.5875 29.4467C38.183 32.8165 35.7993 33.03 35.361 33.1759C35.1736 33.2381 33.4348 33.6854 31.2515 33.5397Z" fill="white"/>
<path d="M32.1533 23.1185C31.8871 23.1185 31.8871 23.5333 32.1533 23.5369C34.2183 23.5528 35.9191 24.9922 35.9377 27.6324C35.9377 27.9111 36.3456 27.9076 36.3422 27.629H36.3415C36.3193 24.7841 34.4624 23.1345 32.1533 23.1185Z" fill="white"/>
<path d="M34.8696 27.1951C34.8634 27.4703 35.2707 27.4835 35.2741 27.2048C35.308 25.6361 34.3408 24.344 32.5232 24.2079C32.257 24.1884 32.2294 24.6067 32.4948 24.6261C34.0711 24.7457 34.9015 25.8215 34.8696 27.1951Z" fill="white"/>
<path d="M34.4342 28.9792C34.0926 28.7815 33.7449 28.9045 33.601 29.0989L33.3003 29.4881C33.1475 29.6858 32.862 29.6595 32.862 29.6595C30.7782 29.1085 30.221 26.928 30.221 26.928C30.221 26.928 30.1954 26.6327 30.3862 26.4744L30.7624 26.1633C30.9503 26.014 31.0693 25.6545 30.8778 25.3012C30.3662 24.3769 30.0226 24.0582 29.8476 23.8134C29.6638 23.5831 29.3872 23.5313 29.0997 23.6868H29.0934C28.4953 24.0367 27.8406 24.6914 28.0502 25.3655C28.4075 26.0762 29.0643 28.3418 31.1577 30.0535C32.1416 30.8631 33.6985 31.6928 34.3595 31.8843L34.3657 31.894C35.0169 32.111 35.6502 31.4307 35.9883 30.8148V30.8099C36.1384 30.512 36.0886 30.2299 35.8694 30.0452C35.4808 29.6665 34.8946 29.2482 34.4342 28.9792Z" fill="white"/>
<path d="M32.8076 25.7508C33.4721 25.7896 33.7942 26.1366 33.8288 26.8494C33.8412 27.128 34.2456 27.1087 34.2332 26.8301C34.189 25.8995 33.7036 25.3809 32.8298 25.3326C32.5636 25.3167 32.5387 25.735 32.8076 25.7508Z" fill="white"/>
<defs>
<filter id="filter0_d" x="1.85205" y="1.11108" width="60.2963" height="60.2963" filterUnits="userSpaceOnUse" color-interpolation-filters="sRGB">
<feFlood flood-opacity="0" result="BackgroundImageFix"/>
<feColorMatrix in="SourceAlpha" type="matrix" values="0 0 0 0 0 0 0 0 0 0 0 0 0 0 0 0 0 0 127 0"/>
<feOffset dy="4"/>
<feGaussianBlur stdDeviation="5"/>
<feColorMatrix type="matrix" values="0 0 0 0 0 0 0 0 0 0 0 0 0 0 0 0 0 0 0.15 0"/>
<feBlend mode="normal" in2="BackgroundImageFix" result="effect1_dropShadow"/>
<feBlend mode="normal" in="SourceGraphic" in2="effect1_dropShadow" result="shape"/>
</filter>
<linearGradient id="paint0_linear" x1="46.2224" y1="40.2963" x2="19.5558" y2="11.8518" gradientUnits="userSpaceOnUse">
<stop stop-color="#8E24AA"/>
<stop offset="1" stop-color="#BB49DA"/>
</linearGradient>
</defs>
</svg>
