<svg width="15" height="15" viewBox="0 0 15 15" fill="none" xmlns="http://www.w3.org/2000/svg">
<g opacity="0.5">
<path d="M12.7998 2.1986C11.3835 0.782229 9.50113 0.00152588 7.49846 0.00152588C5.49578 0.00152588 3.61345 0.782229 2.19708 2.1986C0.780703 3.61498 0 5.49731 0 7.49998C0 9.50266 0.780703 11.385 2.19708 12.8014C3.61345 14.2177 5.49578 14.9984 7.49846 14.9984C8.6618 14.9984 9.72331 14.7824 10.5657 14.3782C11.3649 13.9925 11.9451 13.4401 12.2012 12.826C12.5067 12.0885 12.3339 11.3202 11.7291 10.7154L11.7075 10.6938C11.7167 10.6814 11.7291 10.6722 11.7383 10.6629C12.1703 10.2093 12.1703 9.61375 11.7322 9.17556L10.6645 8.10788C10.4546 7.89188 10.2016 7.77462 9.93314 7.77462C9.66468 7.77462 9.40856 7.88879 9.19255 8.1048L8.63711 8.66024C8.60934 8.64481 8.58465 8.63247 8.55688 8.62012C8.48899 8.58618 8.42728 8.55532 8.37482 8.52138C7.81012 8.16343 7.29788 7.69439 6.80724 7.09266C6.59124 6.82111 6.44312 6.58968 6.33203 6.36133C6.47089 6.23173 6.60049 6.09904 6.72701 5.96943C6.77947 5.91389 6.83501 5.86143 6.89056 5.80589C7.34417 5.35228 7.34417 4.76598 6.89056 4.31237L6.36289 3.7847C6.30117 3.72298 6.24254 3.66435 6.18391 3.60264C6.06665 3.48229 5.94631 3.35886 5.8167 3.23851C5.60687 3.03177 5.35692 2.92376 5.09155 2.92376C4.82617 2.92376 4.57313 3.03177 4.35713 3.23851C4.35404 3.2416 4.35404 3.2416 4.35096 3.24469L3.68751 3.90813C3.42214 4.17351 3.26785 4.5006 3.23699 4.87707C3.1907 5.46337 3.36042 6.00646 3.49311 6.36133C3.81094 7.21918 4.28616 8.01531 4.9928 8.86699C5.85065 9.89147 6.88439 10.703 8.06624 11.2739C8.51985 11.4899 9.12775 11.7429 9.8128 11.7892C9.856 11.7923 9.8992 11.7923 9.9424 11.7923C10.4207 11.7923 10.8249 11.6195 11.1397 11.277C11.1428 11.2739 11.1489 11.2677 11.152 11.2646C11.1613 11.2523 11.1736 11.24 11.186 11.2276L11.2045 11.2461C11.5995 11.6411 11.7075 12.0916 11.5161 12.5514C11.1613 13.3938 9.78194 14.2579 7.49846 14.2579C3.77083 14.2579 0.740588 11.2276 0.740588 7.49998C0.740588 3.77236 3.77083 0.742114 7.49846 0.742114C11.2261 0.742114 14.2563 3.77236 14.2563 7.49998C14.2563 8.11405 14.173 8.71887 14.0125 9.30208C13.957 9.49957 14.0743 9.70323 14.2718 9.75878C14.4692 9.81432 14.6729 9.69706 14.7285 9.49957C14.9074 8.85156 15 8.17886 15 7.49998C14.9969 5.49731 14.2162 3.61498 12.7998 2.1986ZM10.5904 10.774C10.4145 10.9622 10.217 11.0456 9.9424 11.0456C9.91463 11.0456 9.88685 11.0456 9.85908 11.0425C9.30364 11.0054 8.77906 10.7863 8.38716 10.5981C7.30405 10.0735 6.35363 9.32985 5.56367 8.3856C4.91257 7.60181 4.47747 6.87665 4.18741 6.09904C4.01461 5.63 3.9498 5.27205 3.97449 4.93261C3.99301 4.73203 4.06706 4.56849 4.2121 4.42654L4.87554 3.76618C4.928 3.71681 5.00823 3.65818 5.09463 3.65818C5.18103 3.65818 5.25509 3.71373 5.30138 3.7631C5.30446 3.76618 5.30755 3.76927 5.31064 3.77236C5.4279 3.88036 5.53898 3.99453 5.65624 4.11488C5.71796 4.17659 5.77968 4.24139 5.84139 4.30311L6.36906 4.83078C6.53261 4.99433 6.53261 5.11467 6.36906 5.27822C6.31352 5.33376 6.25797 5.38931 6.20243 5.44485C6.03888 5.6084 5.88768 5.76577 5.72105 5.91389C5.71487 5.91698 5.71179 5.92315 5.70562 5.92932C5.47418 6.16075 5.55441 6.40144 5.5791 6.48167C5.58218 6.49093 5.58527 6.4971 5.58836 6.50636C5.7303 6.84888 5.92779 7.1698 6.2302 7.55244L6.23329 7.55553C6.77638 8.22514 7.34725 8.74356 7.97984 9.14471C8.06316 9.19717 8.14647 9.24037 8.2267 9.28048C8.29459 9.31443 8.35631 9.34528 8.40876 9.37923C8.41802 9.3854 8.43036 9.39157 8.44271 9.39774C8.52294 9.43786 8.60317 9.45637 8.6834 9.45637C8.81917 9.45637 8.94569 9.40083 9.05369 9.28974L9.71714 8.6263C9.76959 8.57384 9.84674 8.51212 9.93314 8.51212C10.0134 8.51212 10.0874 8.57075 10.1337 8.62012C10.1368 8.62321 10.1368 8.62321 10.1399 8.6263L11.2076 9.69398C11.3588 9.84518 11.3588 9.98404 11.2014 10.1476L11.1983 10.1507C11.1273 10.2278 11.0502 10.3019 10.9669 10.3821C10.8434 10.5025 10.7138 10.629 10.5904 10.774Z" fill="white"/>
</g>
</svg>
