<svg width="64" height="64" viewBox="0 0 64 64" fill="none" xmlns="http://www.w3.org/2000/svg">
<g filter="url(#filter0_d)">
<path d="M32.0002 47.4074C43.1277 47.4074 52.1484 38.3867 52.1484 27.2592C52.1484 16.1317 43.1277 7.11108 32.0002 7.11108C20.8727 7.11108 11.8521 16.1317 11.8521 27.2592C11.8521 38.3867 20.8727 47.4074 32.0002 47.4074Z" fill="url(#paint0_linear)"/>
</g>
<path fill-rule="evenodd" clip-rule="evenodd" d="M37.5028 21.7341C36.0475 20.277 34.1121 19.4743 32.0503 19.4734C27.8015 19.4734 24.3437 22.9311 24.3419 27.1811C24.3415 28.5395 24.6963 29.8657 25.3709 31.0347L24.2773 35.029L28.3636 33.957C29.4896 34.5713 30.7571 34.8948 32.0472 34.8953H32.0504C36.2986 34.8953 39.7568 31.4373 39.7585 27.1872C39.7593 25.1275 38.9582 23.1909 37.5028 21.7341ZM32.0503 33.5935H32.0477C30.898 33.593 29.7706 33.2841 28.7867 32.7005L28.5529 32.5616L26.128 33.1977L26.7752 30.8335L26.6229 30.5911C25.9815 29.571 25.6429 28.392 25.6435 27.1815C25.6448 23.6491 28.5189 20.7753 32.0529 20.7753C33.764 20.7758 35.3727 21.4431 36.5823 22.6541C37.7919 23.8652 38.4576 25.4748 38.457 27.1868C38.4556 30.7194 35.5816 33.5935 32.0503 33.5935ZM35.5645 28.7952C35.372 28.6987 34.425 28.2329 34.2484 28.1686C34.072 28.1042 33.9435 28.0722 33.8151 28.265C33.6868 28.4577 33.3177 28.8916 33.2052 29.0201C33.0929 29.1486 32.9806 29.1648 32.7879 29.0684C32.5953 28.972 31.9748 28.7685 31.2391 28.1123C30.6666 27.6016 30.2801 26.9709 30.1676 26.7782C30.0554 26.5853 30.1667 26.491 30.2521 26.3851C30.4606 26.1262 30.6694 25.8547 30.7336 25.7262C30.7979 25.5978 30.7656 25.4852 30.7174 25.3888C30.6694 25.2925 30.2842 24.3444 30.1237 23.9588C29.9673 23.5833 29.8086 23.634 29.6903 23.6281C29.5781 23.6225 29.4496 23.6214 29.3213 23.6214C29.1929 23.6214 28.9842 23.6695 28.8076 23.8624C28.6311 24.0553 28.1336 24.5212 28.1336 25.4692C28.1336 26.4172 28.8237 27.333 28.92 27.4616C29.0163 27.5902 30.2782 29.5356 32.2101 30.3697C32.6696 30.5683 33.0284 30.6867 33.3082 30.7755C33.7696 30.9221 34.1894 30.9014 34.5213 30.8518C34.8914 30.7965 35.6607 30.3858 35.8213 29.936C35.9818 29.486 35.9818 29.1005 35.9335 29.0201C35.8855 28.9398 35.7571 28.8916 35.5645 28.7952Z" fill="white"/>
<defs>
<filter id="filter0_d" x="1.85205" y="1.11108" width="60.2963" height="60.2963" filterUnits="userSpaceOnUse" color-interpolation-filters="sRGB">
<feFlood flood-opacity="0" result="BackgroundImageFix"/>
<feColorMatrix in="SourceAlpha" type="matrix" values="0 0 0 0 0 0 0 0 0 0 0 0 0 0 0 0 0 0 127 0"/>
<feOffset dy="4"/>
<feGaussianBlur stdDeviation="5"/>
<feColorMatrix type="matrix" values="0 0 0 0 0 0 0 0 0 0 0 0 0 0 0 0 0 0 0.15 0"/>
<feBlend mode="normal" in2="BackgroundImageFix" result="effect1_dropShadow"/>
<feBlend mode="normal" in="SourceGraphic" in2="effect1_dropShadow" result="shape"/>
</filter>
<linearGradient id="paint0_linear" x1="46.2224" y1="40.2963" x2="19.5558" y2="11.8518" gradientUnits="userSpaceOnUse">
<stop stop-color="#24AC31"/>
<stop offset="1" stop-color="#3CD94B"/>
</linearGradient>
</defs>
</svg>
