<svg width="58" height="70" viewBox="0 0 58 70" fill="none" xmlns="http://www.w3.org/2000/svg">
<path d="M56.4634 1.14345C55.6468 0.360513 54.5749 -0.0437703 53.4449 0.00376096C43.3068 0.434213 33.2056 3.16326 24.2339 7.89717C15.2639 12.63 7.31437 19.4233 1.24531 27.5426C0.567589 28.4489 0.296821 29.5634 0.483208 30.6802C0.670129 31.7974 1.28804 32.7641 2.22371 33.4017L7.7288 37.153L7.72933 37.1535L10.9978 39.3805V42.233C10.9978 42.9881 11.6098 43.6001 12.365 43.6001C13.1201 43.6001 13.7322 42.9881 13.7322 42.233V38.658C13.7322 38.2056 13.5084 37.7826 13.1351 37.5279L10.4146 35.6742C11.6205 33.9956 12.9183 32.387 14.2977 30.8479C15.7157 29.2654 17.226 27.7583 18.8202 26.3521C20.3545 24.9988 21.9524 23.7203 23.6208 22.5352C25.3544 21.3042 27.1574 20.1784 29.0148 19.1439C30.8755 18.1068 32.8056 17.185 34.7752 16.3732C35.0219 16.2718 35.2697 16.1714 35.5181 16.0726C35.5047 17.1022 35.7055 18.1314 36.1242 19.105C36.9088 20.9288 38.3566 22.3382 40.2013 23.0725C41.0915 23.4276 42.0229 23.6044 42.9533 23.6044C43.9504 23.6044 44.9464 23.4009 45.8895 22.9956C47.7133 22.2105 49.1222 20.7627 49.8571 18.9186C50.5919 17.0739 50.5642 15.0541 49.7796 13.2303C49.6749 12.9862 49.5558 12.7491 49.4261 12.5179C51.2745 12.2893 53.134 12.1531 54.9958 12.1082V46.4803C52.7757 47.2419 51.0299 49.0347 50.3206 51.2725C49.5356 53.75 50.1364 56.5255 51.8678 58.4614C52.7121 59.4057 53.7979 60.1229 54.9958 60.5331V66.0526L48.57 61.6738C48.1507 61.3886 47.6087 61.3576 47.1606 61.5948C46.713 61.8319 46.4327 62.2971 46.4327 62.8039V65.9735C46.4327 66.6662 45.8692 67.2291 45.1771 67.2291C44.4849 67.2291 43.9215 66.6657 43.9215 65.9735V59.2294C43.9215 59.0617 43.8905 58.8983 43.8334 58.7461C45.7587 56.6296 46.3381 53.515 45.1696 50.7993C43.5503 47.0347 39.1694 45.2894 35.4043 46.9092C33.8475 47.5789 32.5781 48.7688 31.7898 50.2396L29.9393 48.9787C29.5206 48.6935 28.9785 48.663 28.5304 48.8996C28.0824 49.1367 27.802 49.6019 27.802 50.1082V55.3666C27.802 56.0587 27.2391 56.6216 26.5469 56.6216C25.8548 56.6216 25.2914 56.0582 25.2914 55.3666V46.5343C25.2914 46.0819 25.0676 45.6589 24.6943 45.4042L18.3801 41.1023C17.9619 40.8172 17.4193 40.7862 16.9712 41.0233C16.5232 41.2599 16.2433 41.7256 16.2433 42.2319V60.5058C16.2433 61.1985 15.6799 61.7614 14.9877 61.7614C14.2956 61.7614 13.7327 61.198 13.7327 60.5058V53.171C13.7327 52.4159 13.1201 51.8038 12.365 51.8038C11.6098 51.8038 10.9978 52.4159 10.9978 53.171V60.5058C10.9978 62.7061 12.7879 64.4958 14.9877 64.4958C17.1875 64.4958 18.9777 62.7061 18.9777 60.5058V44.8183L22.557 47.2569V55.3666C22.557 57.5663 24.3466 59.356 26.5469 59.356C28.7467 59.356 30.5369 57.5663 30.5369 55.3666V52.6947L31.6691 53.4664C31.6696 53.4664 31.6696 53.4669 31.6702 53.4669L41.0344 59.8479L41.1871 59.952V65.9735C41.1871 68.1733 42.9768 69.9635 45.1771 69.9635C47.3769 69.9635 49.167 68.1733 49.167 65.9735V65.3893L55.5934 69.7686C56.4853 70.3763 57.7307 69.713 57.7307 68.6385V4.11228C57.7302 2.98061 57.2805 1.92638 56.4634 1.14345ZM34.0644 51.7894C34.5418 50.7314 35.391 49.8914 36.4847 49.4209C38.865 48.3971 41.6336 49.4999 42.6579 51.8797C43.4152 53.641 43.0115 55.6678 41.7185 57.0051L36.6599 53.5582L34.0644 51.7894ZM3.18074 30.2305C3.11826 29.8561 3.20905 29.4833 3.43549 29.1795C9.26315 21.3833 16.8965 14.8602 25.5098 10.3154C34.1258 5.76947 43.8248 3.14884 53.5602 2.73601C53.5805 2.73494 53.6008 2.73441 53.6206 2.73441C53.9763 2.73441 54.3122 2.86899 54.5712 3.11733C54.8446 3.38009 54.9952 3.7331 54.9952 4.11175V9.37117C52.8093 9.42084 50.6256 9.59388 48.4589 9.88441C47.841 9.96772 47.222 10.0548 46.6073 10.1562C43.3015 10.7037 40.0234 11.5389 36.8644 12.6391C34.6294 13.4172 32.443 14.3534 30.3137 15.3847C28.1529 16.4304 26.0556 17.6261 24.0459 18.9389C22.0694 20.2302 20.1708 21.6327 18.3561 23.1424C16.5253 24.6661 14.7982 26.3105 13.1618 28.0403C11.5553 29.7392 10.06 31.5459 8.66928 33.4242C8.49518 33.6592 8.32267 33.8952 8.15231 34.1323L3.7634 31.1416C3.45045 30.9285 3.24323 30.6049 3.18074 30.2305ZM47.3165 17.906C46.8519 19.0718 45.9616 19.9872 44.8086 20.4834C43.6556 20.979 42.3792 20.9966 41.2133 20.532C40.0474 20.0679 39.1321 19.177 38.6359 18.024C38.2231 17.0638 38.1425 16.017 38.3956 15.0205C40.4469 14.3326 42.5404 13.7542 44.659 13.3141C45.238 13.194 45.8174 13.0792 46.399 12.975C46.7622 13.3649 47.0532 13.8119 47.2674 14.3107C47.7635 15.4637 47.7806 16.7401 47.3165 17.906ZM53.094 55.3639C52.5979 54.2114 52.5808 52.9344 53.0449 51.7686C53.4315 50.7982 54.1135 50.0019 54.9958 49.4759V57.5386C54.1605 57.0392 53.4908 56.2862 53.094 55.3639Z" fill="#DDDDDD"/>
<path d="M23.0065 40.4174C23.8968 40.772 24.8282 40.9488 25.7585 40.9488C26.7556 40.9488 27.7516 40.7458 28.6948 40.3399C32.4594 38.7201 34.2047 34.3392 32.5849 30.5747C31.8003 28.7508 30.3525 27.3415 28.5079 26.6071C26.6637 25.8723 24.6434 25.8995 22.8196 26.6846C20.9958 27.4691 19.5869 28.9169 18.8521 30.7616C18.1172 32.6057 18.145 34.626 18.9295 36.4499C19.714 38.2737 21.1619 39.6825 23.0065 40.4174ZM21.3926 31.7736C21.8567 30.6078 22.7475 29.6924 23.9005 29.1963C24.4965 28.9399 25.1262 28.8112 25.7564 28.8112C26.3444 28.8112 26.9329 28.9233 27.4958 29.1477C28.6617 29.6117 29.577 30.5026 30.0732 31.6551C31.097 34.0348 29.9936 36.8039 27.6138 37.8277C26.4613 38.3239 25.1844 38.341 24.0185 37.8769C22.8527 37.4122 21.9373 36.5214 21.4417 35.3689C20.9456 34.2159 20.9279 32.9389 21.3926 31.7736Z" fill="#DDDDDD"/>
<path d="M43.2602 43.219C44.1505 43.5741 45.0819 43.7509 46.0122 43.7509C47.0093 43.7509 48.0053 43.5474 48.9485 43.1415C50.7723 42.357 52.1811 40.9091 52.916 39.065C53.6509 37.2204 53.6236 35.2006 52.8386 33.3762C52.054 31.5529 50.6062 30.1436 48.7621 29.4087C46.9174 28.6738 44.8971 28.7016 43.0738 29.4861C41.25 30.2707 39.8406 31.7185 39.1058 33.5631C38.3714 35.4078 38.3987 37.4276 39.1832 39.2514C39.9677 41.0752 41.4156 42.4846 43.2602 43.219ZM41.6463 34.5752C42.1104 33.4093 43.0012 32.4945 44.1542 31.9984C44.7502 31.742 45.3799 31.6133 46.0101 31.6133C46.5981 31.6133 47.1866 31.7249 47.7495 31.9492C48.9154 32.4139 49.8307 33.3047 50.3269 34.4572C50.8225 35.6102 50.8401 36.8871 50.3755 38.053C49.9109 39.2183 49.0206 40.1337 47.8675 40.6298C46.715 41.1254 45.4381 41.1431 44.2722 40.6784C43.1064 40.2143 42.191 39.3235 41.6949 38.171C41.1993 37.018 41.1822 35.741 41.6463 34.5752Z" fill="#DDDDDD"/>
<path d="M12.3663 49.0703C12.9447 49.0703 13.4712 48.6906 13.6587 48.1453C13.8467 47.599 13.6598 46.9677 13.1983 46.6168C12.7556 46.2804 12.1414 46.2467 11.6634 46.5303C11.1689 46.8235 10.911 47.4179 11.0279 47.9803C11.1588 48.6067 11.7254 49.0703 12.3663 49.0703Z" fill="#DDDDDD"/>
</svg>
