<svg width="50" height="50" viewBox="0 0 50 50" fill="none" xmlns="http://www.w3.org/2000/svg">
<path d="M47.7029 25.0017L49.8965 19.2803C50.1372 18.649 49.9497 17.9335 49.4216 17.5054L44.6655 13.6494L43.703 7.59669C43.5967 6.92798 43.0717 6.40614 42.403 6.2999L36.3501 5.33747L32.4971 0.578422C32.0721 0.0503336 31.3408 -0.137153 30.7252 0.103455L25.0004 2.30018L19.2787 0.10658C18.6443 -0.137153 17.935 0.0565832 17.5069 0.581547L13.6507 5.34059L7.5978 6.30303C6.93219 6.40927 6.40721 6.93423 6.30096 7.59981L5.33849 13.6525L0.579257 17.5085C0.0542731 17.9335 -0.136346 18.649 0.104272 19.2803L2.29796 25.0017L0.104272 30.7232C-0.139471 31.3544 0.0542731 32.07 0.579257 32.495L5.33849 36.3478L6.30096 42.4005C6.40721 43.0692 6.92907 43.5942 7.5978 43.7004L13.6507 44.6629L17.5069 49.4188C17.935 49.95 18.6506 50.1375 19.2818 49.8938L25.0004 47.7033L30.7221 49.8969C30.9034 49.9656 31.0909 50 31.2815 50C31.7408 50 32.1939 49.7969 32.4971 49.4188L36.3501 44.6629L42.403 43.7004C43.0717 43.5942 43.5967 43.0692 43.703 42.4005L44.6655 36.3478L49.4216 32.495C49.9497 32.0669 50.1372 31.3544 49.8965 30.7232L47.7029 25.0017Z" fill="white"/>
</svg>
