<svg width="33" height="33" viewBox="0 0 33 33" fill="none" xmlns="http://www.w3.org/2000/svg">
<path fill-rule="evenodd" clip-rule="evenodd" d="M17.7129 6.94367C22.0854 7.49367 25.5091 10.9174 26.0591 15.2899C26.1416 15.9912 26.7329 16.4999 27.4204 16.4999C27.4754 16.4999 27.5304 16.4999 27.5854 16.4862C28.3416 16.3899 28.8779 15.7024 28.7816 14.9462C28.0804 9.32242 23.6666 4.90867 18.0429 4.20742C17.2866 4.12492 16.5991 4.66117 16.5166 5.41742C16.4204 6.17367 16.9566 6.86117 17.7129 6.94367ZM18.2354 9.84492C17.5066 9.65242 16.7504 10.0924 16.5579 10.8349C16.3654 11.5774 16.8054 12.3199 17.5479 12.5124C18.9916 12.8837 20.1191 14.0112 20.5041 15.4687C20.6691 16.0874 21.2191 16.4999 21.8379 16.4999C21.9479 16.4999 22.0716 16.4862 22.1816 16.4587C22.9104 16.2662 23.3504 15.5099 23.1716 14.7812C22.5254 12.3474 20.6416 10.4637 18.2354 9.84492ZM26.4441 20.9824L22.9516 20.5837C22.1129 20.4874 21.2879 20.7762 20.6966 21.3674L18.1666 23.8974C14.2754 21.9174 11.0854 18.7412 9.10536 14.8362L11.6491 12.2924C12.2404 11.7012 12.5291 10.8762 12.4329 10.0374L12.0341 6.57242C11.8691 5.18367 10.7004 4.13867 9.29786 4.13867H6.91911C5.36536 4.13867 4.07286 5.43117 4.16911 6.98492C4.89786 18.7274 14.2891 28.1049 26.0179 28.8337C27.5716 28.9299 28.8641 27.6374 28.8641 26.0837V23.7049C28.8779 22.3162 27.8329 21.1474 26.4441 20.9824Z" fill="white"/>
</svg>
