<svg width="90" height="89" viewBox="0 0 90 89" fill="none" xmlns="http://www.w3.org/2000/svg">
<path d="M88.5982 47.5869C88.5982 69.7959 70.5019 87.8921 48.293 87.8921V47.5869H88.5982Z" stroke="#DDDDDD" stroke-width="2" stroke-miterlimit="10"/>
<path d="M42.9467 83.78C20.1208 83.78 1.61328 65.2726 1.61328 42.4467C1.61328 19.6208 20.1208 1.11328 42.9467 1.11328C65.7726 1.11328 84.28 19.6208 84.28 42.4467H42.9467V83.78Z" stroke="#DDDDDD" stroke-width="2" stroke-miterlimit="10"/>
<path d="M77.0845 42.4471C77.0845 23.5283 61.6616 8.31104 42.9485 8.31104C24.0298 8.31104 8.8125 23.7339 8.8125 42.4471C8.8125 61.3658 24.2354 76.5831 42.9485 76.5831V42.4471H77.0845Z" stroke="#DDDDDD" stroke-width="2" stroke-miterlimit="10"/>
<path d="M82.429 47.5869C82.429 64.2436 67.2117 80.9004 48.293 80.9004" stroke="#DDDDDD" stroke-width="2" stroke-miterlimit="10"/>
<path d="M32.6599 67.7407C34.5906 67.7407 36.1558 66.1756 36.1558 64.2449C36.1558 62.3142 34.5906 60.749 32.6599 60.749C30.7292 60.749 29.1641 62.3142 29.1641 64.2449C29.1641 66.1756 30.7292 67.7407 32.6599 67.7407Z" stroke="#DDDDDD" stroke-width="2" stroke-miterlimit="10"/>
<path d="M19.7116 52.9338C22.2101 52.9338 24.2356 50.9084 24.2356 48.4098C24.2356 45.9112 22.2101 43.8857 19.7116 43.8857C17.213 43.8857 15.1875 45.9112 15.1875 48.4098C15.1875 50.9084 17.213 52.9338 19.7116 52.9338Z" stroke="#DDDDDD" stroke-width="2" stroke-miterlimit="10"/>
<path d="M22.1794 34.0142C24.1102 34.0142 25.6753 32.449 25.6753 30.5183C25.6753 28.5876 24.1102 27.0225 22.1794 27.0225C20.2487 27.0225 18.6836 28.5876 18.6836 30.5183C18.6836 32.449 20.2487 34.0142 22.1794 34.0142Z" stroke="#DDDDDD" stroke-width="2" stroke-miterlimit="10"/>
<path d="M33.4891 22.7057C31.6384 21.0606 31.6384 18.1817 33.2835 16.3309C34.9286 14.4802 37.8075 14.4802 39.6583 16.1253C41.509 17.7704 41.509 20.6493 39.8639 22.5001C38.0132 24.3508 35.1342 24.3508 33.4891 22.7057Z" stroke="#DDDDDD" stroke-width="2" stroke-miterlimit="10"/>
<path d="M55.8982 26.2002C57.8289 26.2002 59.3941 24.6351 59.3941 22.7044C59.3941 20.7736 57.8289 19.2085 55.8982 19.2085C53.9675 19.2085 52.4023 20.7736 52.4023 22.7044C52.4023 24.6351 53.9675 26.2002 55.8982 26.2002Z" stroke="#DDDDDD" stroke-width="2" stroke-miterlimit="10"/>
<path d="M65.1569 38.5393C67.6554 38.5393 69.6809 36.5138 69.6809 34.0153C69.6809 31.5167 67.6554 29.4912 65.1569 29.4912C62.6583 29.4912 60.6328 31.5167 60.6328 34.0153C60.6328 36.5138 62.6583 38.5393 65.1569 38.5393Z" stroke="#DDDDDD" stroke-width="2" stroke-miterlimit="10"/>
<path d="M71.7341 59.5151C73.6648 59.5151 75.23 57.95 75.23 56.0193C75.23 54.0886 73.6648 52.5234 71.7341 52.5234C69.8034 52.5234 68.2383 54.0886 68.2383 56.0193C68.2383 57.95 69.8034 59.5151 71.7341 59.5151Z" stroke="#DDDDDD" stroke-width="2" stroke-miterlimit="10"/>
<path d="M58.1686 73.9099C60.6671 73.9099 62.6926 71.8844 62.6926 69.3859C62.6926 66.8873 60.6671 64.8618 58.1686 64.8618C55.67 64.8618 53.6445 66.8873 53.6445 69.3859C53.6445 71.8844 55.67 73.9099 58.1686 73.9099Z" stroke="#DDDDDD" stroke-width="2" stroke-miterlimit="10"/>
<path d="M26.082 20.6484L28.3441 22.7048" stroke="#DDDDDD" stroke-width="2" stroke-miterlimit="10"/>
<path d="M14.5703 37.0996L17.038 39.156" stroke="#DDDDDD" stroke-width="2" stroke-miterlimit="10"/>
<path d="M28.3477 41.417L30.6097 43.4734" stroke="#DDDDDD" stroke-width="2" stroke-miterlimit="10"/>
<path d="M35.332 50.6719L37.7997 52.5226" stroke="#DDDDDD" stroke-width="2" stroke-miterlimit="10"/>
<path d="M49.5273 35.0439L51.7894 36.8947" stroke="#DDDDDD" stroke-width="2" stroke-miterlimit="10"/>
<path d="M36.5703 32.9873L38.8323 35.0437" stroke="#DDDDDD" stroke-width="2" stroke-miterlimit="10"/>
<path d="M22.9922 56.4307L25.4599 58.2814" stroke="#DDDDDD" stroke-width="2" stroke-miterlimit="10"/>
<path d="M45.2109 22.9102L47.473 24.9665" stroke="#DDDDDD" stroke-width="2" stroke-miterlimit="10"/>
<path d="M65.1562 61.9814L68.4465 64.6547" stroke="#DDDDDD" stroke-width="2" stroke-miterlimit="10"/>
<path d="M56.5195 54.9907L60.0154 58.0753" stroke="#DDDDDD" stroke-width="2" stroke-miterlimit="10"/>
</svg>
