<svg width="15" height="15" viewBox="0 0 15 15" fill="none" xmlns="http://www.w3.org/2000/svg">
<path d="M7.03125 13.125H7.96875V12.1875H7.03125V13.125ZM7.5 1.875C7.24125 1.875 7.03125 2.085 7.03125 2.34375V7.0425H3.28125C3.0225 7.0425 2.8125 7.2525 2.8125 7.51125C2.8125 7.77 3.0225 7.98 3.28125 7.98H7.5C7.75875 7.98 7.96875 7.77 7.96875 7.51125V2.34375C7.96875 2.085 7.75875 1.875 7.5 1.875ZM3.1561 10.7025L3.80485 11.3526L4.4536 10.7025L3.80485 10.0524L3.1561 10.7025ZM4.54358 3.9014L3.88029 3.2386L3.21748 3.9014L3.88029 4.56422L4.54358 3.9014ZM10.3481 3.87797L10.9969 4.52811L11.6456 3.87797L10.9969 3.22782L10.3481 3.87797ZM10.2108 10.6772L10.8736 11.34L11.5364 10.6772L10.8736 10.0144L10.2108 10.6772ZM12.1875 7.03125V7.96875H13.125V7.03125H12.1875ZM7.5 0C3.35765 0 0 3.35814 0 7.5C0 11.6424 3.35765 15 7.5 15C11.6424 15 15 11.6419 15 7.5C15 3.35814 11.6424 0 7.5 0ZM7.5 14.0625C3.87561 14.0625 0.9375 11.1244 0.9375 7.5C0.9375 3.87561 3.87561 0.9375 7.5 0.9375C11.1244 0.9375 14.0625 3.87561 14.0625 7.5C14.0625 11.1244 11.1244 14.0625 7.5 14.0625Z" fill="#FF0329"/>
</svg>
