<svg width="12" height="15" viewBox="0 0 12 15" fill="none" xmlns="http://www.w3.org/2000/svg">
<path fill-rule="evenodd" clip-rule="evenodd" d="M10.166 8.38125C10.696 7.37531 11 6.43313 11 5.625C11 4.3818 10.4732 3.18951 9.53553 2.31044C8.59785 1.43136 7.32608 0.9375 6 0.9375C4.67392 0.9375 3.40215 1.43136 2.46447 2.31044C1.52678 3.18951 1 4.3818 1 5.625C1 6.43313 1.305 7.37531 1.834 8.38125C2.358 9.37687 3.068 10.3688 3.794 11.2594C4.48268 12.099 5.21908 12.9033 6 13.6687L6.208 13.4625C6.91198 12.7592 7.57878 12.0239 8.206 11.2594C8.932 10.3688 9.642 9.37687 10.166 8.38125ZM6 15C6 15 12 9.66938 12 5.625C12 4.13316 11.3679 2.70242 10.2426 1.64752C9.11742 0.592632 7.5913 0 6 0C4.4087 0 2.88258 0.592632 1.75736 1.64752C0.632141 2.70242 2.37122e-08 4.13316 0 5.625C0 9.66938 6 15 6 15Z" fill="#FF0329"/>
<path fill-rule="evenodd" clip-rule="evenodd" d="M6 7.5C6.53043 7.5 7.03914 7.30246 7.41421 6.95083C7.78929 6.59919 8 6.12228 8 5.625C8 5.12772 7.78929 4.65081 7.41421 4.29917C7.03914 3.94754 6.53043 3.75 6 3.75C5.46957 3.75 4.96086 3.94754 4.58579 4.29917C4.21071 4.65081 4 5.12772 4 5.625C4 6.12228 4.21071 6.59919 4.58579 6.95083C4.96086 7.30246 5.46957 7.5 6 7.5ZM6 8.4375C6.79565 8.4375 7.55871 8.14118 8.12132 7.61374C8.68393 7.08629 9 6.37092 9 5.625C9 4.87908 8.68393 4.16371 8.12132 3.63626C7.55871 3.10882 6.79565 2.8125 6 2.8125C5.20435 2.8125 4.44129 3.10882 3.87868 3.63626C3.31607 4.16371 3 4.87908 3 5.625C3 6.37092 3.31607 7.08629 3.87868 7.61374C4.44129 8.14118 5.20435 8.4375 6 8.4375Z" fill="#FF0329"/>
</svg>
