<svg width="13" height="14" viewBox="0 0 13 14" fill="none" xmlns="http://www.w3.org/2000/svg">
<path fill-rule="evenodd" clip-rule="evenodd" d="M7.1309 1.58988C9.43219 1.90162 11.2342 3.8422 11.5236 6.32053C11.567 6.718 11.8782 7.00636 12.2401 7.00636C12.269 7.00636 12.298 7.00636 12.3269 6.99857C12.7249 6.94401 13.0072 6.55434 12.9565 6.1257C12.5874 2.93815 10.2644 0.436436 7.30458 0.0389675C6.90655 -0.00779354 6.54472 0.296153 6.50129 0.724796C6.45064 1.15344 6.73287 1.54311 7.1309 1.58988ZM7.40589 3.2343C7.02234 3.1252 6.62432 3.37459 6.52301 3.79544C6.42169 4.21629 6.65327 4.63714 7.04405 4.74625C7.80392 4.95667 8.39733 5.59574 8.59996 6.42185C8.6868 6.77256 8.97628 7.00636 9.30193 7.00636C9.35983 7.00636 9.42496 6.99857 9.48285 6.98298C9.8664 6.87387 10.098 6.44523 10.0039 6.03217C9.66377 4.65272 8.67233 3.58501 7.40589 3.2343ZM11.7263 9.54705L9.88811 9.32103C9.44667 9.26648 9.01246 9.43014 8.70128 9.76526L7.36971 11.1993C5.3217 10.077 3.64276 8.2767 2.60067 6.06335L3.93947 4.62155C4.25065 4.28643 4.40263 3.81882 4.35197 3.34341L4.1421 1.37945C4.05526 0.592307 3.44013 0 2.70198 0H1.45002C0.632259 0 -0.0479991 0.73259 0.00265842 1.61326C0.386208 8.26891 5.32894 13.5841 11.5019 13.9971C12.3197 14.0517 12.9999 13.3191 12.9999 12.4384V11.0902C13.0072 10.303 12.4572 9.64057 11.7263 9.54705Z" fill="#FF0329"/>
</svg>
