<svg width="25" height="15" viewBox="0 0 25 15" fill="none" xmlns="http://www.w3.org/2000/svg">
<path d="M24.8674 12.8816C24.8371 12.8163 24.8089 12.7622 24.7827 12.7189C24.3489 11.9377 23.5201 10.9788 22.2965 9.84202L22.2707 9.81599L22.2577 9.80322L22.2447 9.79014H22.2315C21.6762 9.26079 21.3246 8.90486 21.1773 8.72263C20.9079 8.37551 20.8475 8.02414 20.9948 7.66813C21.0988 7.39914 21.4896 6.83108 22.1663 5.96318C22.5222 5.50321 22.8041 5.13457 23.0123 4.85683C24.5136 2.86088 25.1645 1.58544 24.9648 1.03001L24.8873 0.900213C24.8352 0.822071 24.7007 0.750585 24.484 0.68539C24.2668 0.620333 23.9892 0.609574 23.6507 0.65293L19.902 0.678826C19.8413 0.657307 19.7546 0.659313 19.6416 0.68539C19.5288 0.711468 19.4723 0.724553 19.4723 0.724553L19.4071 0.75715L19.3553 0.796312C19.3119 0.822208 19.2642 0.867753 19.2121 0.932856C19.1602 0.997732 19.1169 1.07387 19.0822 1.16063C18.6741 2.21062 18.2101 3.18685 17.6893 4.08927C17.3682 4.62737 17.0733 5.09372 16.804 5.48858C16.5351 5.8833 16.3095 6.17412 16.1274 6.36054C15.945 6.54715 15.7804 6.69664 15.6326 6.80956C15.485 6.92254 15.3724 6.97027 15.2944 6.95281C15.2162 6.93535 15.1426 6.91802 15.0729 6.9007C14.9515 6.82256 14.8538 6.71629 14.7802 6.58179C14.7062 6.4473 14.6564 6.27802 14.6304 6.0741C14.6045 5.87003 14.5892 5.69451 14.5848 5.54694C14.5808 5.39954 14.5826 5.19106 14.5914 4.92207C14.6005 4.65295 14.6045 4.47086 14.6045 4.3754C14.6045 4.04559 14.6109 3.68766 14.6238 3.30151C14.637 2.91536 14.6476 2.6094 14.6565 2.384C14.6653 2.15837 14.6694 1.91966 14.6694 1.668C14.6694 1.41634 14.6541 1.21898 14.6238 1.07574C14.5939 0.932673 14.548 0.793805 14.4875 0.659176C14.4267 0.524684 14.3376 0.420647 14.2207 0.34679C14.1036 0.273025 13.9579 0.214486 13.7847 0.170993C13.3247 0.0669097 12.739 0.0106054 12.0273 0.00185206C10.4133 -0.0154723 9.37628 0.0887474 8.91636 0.314375C8.73414 0.409705 8.56924 0.539957 8.4218 0.704721C8.26556 0.895699 8.24377 0.99992 8.35656 1.01706C8.87729 1.09507 9.24594 1.28167 9.4629 1.57669L9.54109 1.73302C9.60191 1.84581 9.66264 2.04549 9.72341 2.3318C9.78409 2.61811 9.82325 2.93483 9.84048 3.28177C9.8838 3.91534 9.8838 4.45769 9.84048 4.90885C9.79704 5.3602 9.75601 5.71156 9.71684 5.96322C9.67768 6.21488 9.61914 6.41881 9.54109 6.57496C9.4629 6.73115 9.41089 6.82662 9.38481 6.86126C9.35878 6.89591 9.33707 6.91775 9.31984 6.92632C9.20705 6.96954 9.08975 6.99156 8.96834 6.99156C8.84675 6.99156 8.69931 6.93074 8.52579 6.8092C8.35232 6.68766 8.17228 6.5207 7.98568 6.30807C7.79908 6.09539 7.58863 5.79818 7.35425 5.41641C7.12005 5.03464 6.87706 4.58343 6.6254 4.06278L6.41718 3.6852C6.28702 3.44229 6.10922 3.0886 5.88359 2.62445C5.65783 2.16011 5.45828 1.71095 5.28481 1.27706C5.21546 1.09484 5.11129 0.956107 4.97247 0.860641L4.90732 0.821478C4.86401 0.786829 4.79448 0.750038 4.69911 0.71083C4.60359 0.671668 4.50393 0.643584 4.39971 0.626305L0.833212 0.652201C0.468762 0.652201 0.221479 0.734765 0.0912722 0.899666L0.0391623 0.977671C0.0131301 1.02112 0 1.09051 0 1.18602C0 1.28149 0.0260322 1.39865 0.0781421 1.53739C0.598786 2.76104 1.16497 3.94115 1.77671 5.0779C2.38844 6.21465 2.92003 7.13034 3.37115 7.82414C3.82235 8.51843 4.28227 9.17371 4.7509 9.78963C5.21952 10.4058 5.52972 10.8006 5.68149 10.9741C5.83344 11.1479 5.9528 11.2778 6.03956 11.3646L6.36503 11.6769C6.57329 11.8852 6.87911 12.1347 7.28263 12.4254C7.68624 12.7162 8.13307 13.0025 8.62335 13.2847C9.11373 13.5665 9.6842 13.7965 10.3351 13.9743C10.9859 14.1524 11.6193 14.2238 12.2355 14.1893H13.7324C14.036 14.1631 14.266 14.0677 14.4223 13.9029L14.4741 13.8377C14.509 13.7859 14.5416 13.7054 14.5716 13.5971C14.6021 13.4887 14.6172 13.3692 14.6172 13.2392C14.6083 12.8661 14.6367 12.5299 14.7017 12.2306C14.7665 11.9313 14.8405 11.7057 14.9232 11.5537C15.0058 11.4019 15.0991 11.2738 15.2029 11.1699C15.307 11.0658 15.3811 11.0028 15.4246 10.9811C15.4678 10.9593 15.5023 10.9444 15.5284 10.9356C15.7366 10.8662 15.9817 10.9334 16.264 11.1375C16.5461 11.3414 16.8106 11.5932 17.0581 11.8925C17.3054 12.192 17.6026 12.528 17.9496 12.9011C18.2969 13.2743 18.6005 13.5517 18.8608 13.7342L19.121 13.8904C19.2948 13.9946 19.5204 14.0901 19.7981 14.1769C20.0754 14.2636 20.3183 14.2853 20.5269 14.2419L23.8589 14.1899C24.1885 14.1899 24.445 14.1354 24.6269 14.0271C24.8091 13.9186 24.9174 13.7991 24.9523 13.6692C24.9872 13.539 24.989 13.3914 24.9589 13.2264C24.9281 13.0618 24.8977 12.9466 24.8674 12.8816Z" fill="#F4F4F4"/>
</svg>
