<svg width="22" height="23" viewBox="0 0 22 23" fill="none" xmlns="http://www.w3.org/2000/svg">
<path d="M21.9892 11.0026C21.9892 12.5457 21.9582 14.0933 21.9981 15.6364C22.0646 18.3679 20.3486 20.4785 18.1625 21.4186C17.2845 21.7955 16.3622 21.995 15.4089 21.995C12.4247 21.9995 9.436 22.0394 6.45178 21.9817C4.20363 21.9374 2.35457 20.9973 1.02874 19.1438C0.332566 18.1683 0 17.0598 0 15.8581C0 12.6788 0 9.50387 0 6.32454C0 3.73053 1.26375 1.91694 3.50746 0.737436C4.48299 0.227502 5.54276 0.0102258 6.64688 0.00579163C9.54242 0.00579163 12.4424 -0.0119452 15.3379 0.01466C17.5861 0.0323969 19.4617 0.892634 20.8452 2.70179C21.6168 3.71279 21.9892 4.87455 21.9892 6.15161C21.9892 7.76566 21.9892 9.38414 21.9892 11.0026ZM1.63622 11.0026C1.63622 12.63 1.63622 14.2529 1.63622 15.8803C1.63622 16.6075 1.80472 17.2903 2.18163 17.9067C3.17046 19.5252 4.66479 20.3145 6.51829 20.3455C9.49364 20.3899 12.4734 20.3632 15.4532 20.3544C16.1849 20.3544 16.8943 20.2036 17.555 19.8888C19.3553 19.0286 20.3619 17.6584 20.353 15.6009C20.3353 12.4526 20.3486 9.30433 20.3486 6.15604C20.3486 5.26476 20.0958 4.44887 19.5682 3.73053C18.5483 2.35149 17.1382 1.67305 15.4532 1.65532C12.4823 1.61984 9.51138 1.64201 6.54046 1.64645C5.90637 1.64645 5.29445 1.77504 4.70026 1.99675C3.06847 2.60424 1.55197 4.14291 1.62292 6.40879C1.67613 7.94303 1.63622 9.47283 1.63622 11.0026Z" fill="white"/>
<path d="M11.0258 15.7026C8.1657 15.7026 5.85991 13.4234 5.85548 10.5855C5.85104 7.79197 8.17457 5.50391 11.0169 5.50391C13.8681 5.49948 16.1827 7.7831 16.1872 10.5988C16.1872 13.4101 13.877 15.6982 11.0258 15.7026ZM11.0258 14.0619C12.9724 14.0619 14.551 12.5055 14.5465 10.59C14.5421 8.69211 12.9635 7.14014 11.0258 7.14014C9.07915 7.14014 7.4917 8.68767 7.4917 10.5988C7.49613 12.5144 9.07915 14.0664 11.0258 14.0619Z" fill="white"/>
<path d="M16.7812 3.9519C17.3798 3.9519 17.8676 4.46184 17.8676 5.08706C17.8631 5.71229 17.3709 6.21779 16.7723 6.21335C16.1826 6.20892 15.6992 5.70342 15.6992 5.0915C15.6948 4.46627 16.1826 3.9519 16.7812 3.9519Z" fill="white"/>
</svg>
