<svg width="12" height="24" viewBox="0 0 12 24" fill="none" xmlns="http://www.w3.org/2000/svg">
<path d="M7.91121 23.528C7.79439 23.5327 7.71962 23.542 7.64485 23.542C6.04672 23.542 4.45327 23.5374 2.85514 23.5467C2.63084 23.5467 2.57009 23.486 2.57009 23.2617C2.57476 19.5421 2.57476 15.8178 2.57476 12.0981C2.57476 12 2.57476 11.9019 2.57476 11.7757C1.70561 11.7757 0.859812 11.7757 0 11.7757C0 10.4486 0 9.14487 0 7.80374C0.088785 7.80374 0.172897 7.80374 0.252336 7.80374C0.95327 7.80374 1.6542 7.79907 2.35514 7.80842C2.53271 7.80842 2.57944 7.75702 2.57944 7.58412C2.57009 6.54206 2.57009 5.49534 2.57944 4.45328C2.58411 3.72431 2.70093 3.01403 3.03738 2.35515C3.51869 1.42524 4.28037 0.822441 5.24299 0.44861C6.02803 0.140199 6.85513 0.0280491 7.68691 0.0140304C9.04205 -0.0046612 10.3972 0.00468458 11.7523 1.16823e-05C11.8785 1.16823e-05 11.9813 -0.00466121 11.9813 0.172909C11.9766 1.45795 11.9766 2.743 11.9766 4.02805C11.9766 4.04206 11.972 4.05608 11.9533 4.11683C11.8738 4.11683 11.785 4.11683 11.6963 4.11683C10.8551 4.11683 10.014 4.11216 9.17289 4.11683C8.68691 4.11683 8.29439 4.31309 8.04672 4.73833C7.97196 4.86449 7.92523 5.02805 7.92523 5.17758C7.91121 5.97197 7.92523 6.76636 7.91588 7.56075C7.91588 7.74767 7.97196 7.79907 8.1542 7.79907C9.32242 7.78973 10.4906 7.7944 11.6589 7.7944C11.7523 7.7944 11.8411 7.7944 12 7.7944C11.8364 9.13085 11.6776 10.4393 11.514 11.7617C10.2991 11.7617 9.11681 11.7617 7.91121 11.7617C7.91121 15.6916 7.91121 19.5981 7.91121 23.528Z" fill="#F4F4F4"/>
</svg>
