<svg width="33" height="65" viewBox="0 0 33 65" fill="none" xmlns="http://www.w3.org/2000/svg">
<path d="M28.3171 64.9916C29.4093 64.9937 30.4678 64.6168 31.3089 63.9261C31.7822 63.5372 32.1735 63.0596 32.4603 62.5206C32.7471 61.9816 32.9238 61.3919 32.9803 60.7851C33.0367 60.1783 32.9718 59.5665 32.7893 58.9846C32.6068 58.4028 32.3102 57.8623 31.9166 57.3942L10.9738 32.5635L31.1686 7.68656C31.5569 7.2127 31.8469 6.66746 32.0219 6.08219C32.1969 5.49691 32.2534 4.88313 32.1883 4.27613C32.1231 3.66913 31.9375 3.08088 31.6422 2.54518C31.3469 2.00948 30.9476 1.53691 30.4674 1.15461C29.9837 0.732879 29.4173 0.414771 28.8037 0.220253C28.1901 0.0257352 27.5425 -0.0409911 26.9017 0.0242583C26.2608 0.0895077 25.6405 0.285326 25.0796 0.599424C24.5187 0.913521 24.0294 1.33912 23.6423 1.8495L1.06344 29.645C0.375874 30.4739 0 31.5137 0 32.5867C0 33.6597 0.375874 34.6995 1.06344 35.5284L24.437 63.3239C24.906 63.8845 25.5017 64.3277 26.1758 64.6174C26.85 64.9072 27.5836 65.0354 28.3171 64.9916Z" fill="white"/>
</svg>
