<svg width="38" height="38" viewBox="0 0 38 38" fill="none" xmlns="http://www.w3.org/2000/svg">
<path fill-rule="evenodd" clip-rule="evenodd" d="M22.8891 17.5942H27.9635C28.7329 17.5942 29.3374 16.958 29.3374 16.191C29.3374 15.4052 28.7329 14.7878 27.9635 14.7878H22.8891C22.1197 14.7878 21.5152 15.4052 21.5152 16.191C21.5152 16.958 22.1197 17.5942 22.8891 17.5942ZM33.9905 7.86715C35.1079 7.86715 35.8407 8.26005 36.5735 9.12068C37.3062 9.98131 37.4345 11.2161 37.2696 12.3368L35.5293 24.6101C35.1995 26.9694 33.2211 28.7075 30.8946 28.7075H10.9085C8.47203 28.7075 6.45693 26.801 6.25542 24.3314L4.57007 3.93632L1.80389 3.44988C1.07113 3.31891 0.558193 2.58925 0.686427 1.84088C0.81466 1.07566 1.5291 0.568641 2.28018 0.682768L6.64928 1.35443C7.27213 1.46856 7.7301 1.99055 7.78506 2.62667L8.13312 6.81756C8.18808 7.41813 8.66438 7.86715 9.25059 7.86715H33.9905ZM10.615 31.6646C9.07617 31.6646 7.83047 32.9368 7.83047 34.5084C7.83047 36.0613 9.07617 37.3335 10.615 37.3335C12.1354 37.3335 13.3811 36.0613 13.3811 34.5084C13.3811 32.9368 12.1354 31.6646 10.615 31.6646ZM31.2239 31.6646C29.6851 31.6646 28.4394 32.9368 28.4394 34.5084C28.4394 36.0613 29.6851 37.3335 31.2239 37.3335C32.7444 37.3335 33.9901 36.0613 33.9901 34.5084C33.9901 32.9368 32.7444 31.6646 31.2239 31.6646Z" fill="white"/>
</svg>
