<svg width="33" height="33" viewBox="0 0 33 33" fill="none" xmlns="http://www.w3.org/2000/svg">
<circle cx="16.5" cy="16.5" r="16.5" fill="white"/>
<path d="M16.5 5C13.3792 5 12.9868 5.01438 11.7606 5.069C10.5344 5.1265 9.69919 5.31912 8.9675 5.60375C8.20001 5.89243 7.50483 6.34525 6.93056 6.93056C6.34561 7.50513 5.89284 8.20022 5.60375 8.9675C5.31912 9.69775 5.12506 10.5344 5.069 11.7562C5.01438 12.9853 5 13.3763 5 16.5014C5 19.6237 5.01438 20.0147 5.069 21.2409C5.1265 22.4656 5.31912 23.3008 5.60375 24.0325C5.89844 24.7886 6.29088 25.4297 6.93056 26.0694C7.56881 26.7091 8.20994 27.103 8.96606 27.3962C9.69919 27.6809 10.5329 27.8749 11.7577 27.931C12.9853 27.9856 13.3763 28 16.5 28C19.6237 28 20.0133 27.9856 21.2409 27.931C22.4642 27.8735 23.3022 27.6809 24.0339 27.3962C24.8009 27.1074 25.4956 26.6546 26.0694 26.0694C26.7091 25.4297 27.1016 24.7886 27.3962 24.0325C27.6794 23.3008 27.8735 22.4656 27.931 21.2409C27.9856 20.0147 28 19.6237 28 16.5C28 13.3763 27.9856 12.9853 27.931 11.7577C27.8735 10.5344 27.6794 9.69775 27.3962 8.9675C27.1072 8.2002 26.6544 7.5051 26.0694 6.93056C25.4953 6.34503 24.8001 5.89218 24.0325 5.60375C23.2994 5.31912 22.4627 5.12506 21.2394 5.069C20.0118 5.01438 19.6223 5 16.4971 5H16.5014H16.5ZM15.4693 7.07288H16.5014C19.5719 7.07288 19.9356 7.08294 21.1474 7.139C22.2687 7.18931 22.8782 7.37762 23.2836 7.53431C23.8197 7.74275 24.2036 7.99288 24.6061 8.39538C25.0086 8.79787 25.2572 9.18025 25.4657 9.71788C25.6238 10.1218 25.8107 10.7313 25.861 11.8526C25.9171 13.0644 25.9286 13.4281 25.9286 16.4971C25.9286 19.5662 25.9171 19.9313 25.861 21.1431C25.8107 22.2644 25.6224 22.8724 25.4657 23.2778C25.2813 23.7771 24.987 24.2286 24.6046 24.5989C24.2021 25.0014 23.8197 25.2501 23.2821 25.4585C22.8796 25.6166 22.2701 25.8035 21.1474 25.8553C19.9356 25.9099 19.5719 25.9228 16.5014 25.9228C13.4309 25.9228 13.0658 25.9099 11.854 25.8553C10.7328 25.8035 10.1247 25.6166 9.71931 25.4585C9.21978 25.2744 8.76787 24.9806 8.39681 24.5989C8.01408 24.228 7.71935 23.7761 7.53431 23.2764C7.37762 22.8724 7.18931 22.2629 7.139 21.1417C7.08438 19.9299 7.07288 19.5662 7.07288 16.4942C7.07288 13.4237 7.08438 13.0615 7.139 11.8497C7.19075 10.7284 7.37762 10.1189 7.53575 9.71356C7.74419 9.17737 7.99431 8.79356 8.39681 8.39106C8.79931 7.98856 9.18169 7.73988 9.71931 7.53144C10.1247 7.37331 10.7328 7.18644 11.854 7.13469C12.9149 7.08581 13.326 7.07144 15.4693 7.07V7.07288ZM22.6396 8.98187C22.4583 8.98187 22.2789 9.01757 22.1115 9.08692C21.944 9.15627 21.7919 9.25792 21.6638 9.38607C21.5356 9.51421 21.434 9.66634 21.3646 9.83377C21.2953 10.0012 21.2596 10.1807 21.2596 10.3619C21.2596 10.5431 21.2953 10.7225 21.3646 10.89C21.434 11.0574 21.5356 11.2095 21.6638 11.3377C21.7919 11.4658 21.944 11.5675 22.1115 11.6368C22.2789 11.7062 22.4583 11.7419 22.6396 11.7419C23.0056 11.7419 23.3566 11.5965 23.6154 11.3377C23.8742 11.0789 24.0196 10.7279 24.0196 10.3619C24.0196 9.99588 23.8742 9.64487 23.6154 9.38607C23.3566 9.12727 23.0056 8.98187 22.6396 8.98187ZM16.5014 10.5947C15.7181 10.5825 14.9402 10.7263 14.2129 11.0176C13.4857 11.3089 12.8236 11.742 12.2653 12.2916C11.7071 12.8412 11.2637 13.4964 10.9611 14.2191C10.6585 14.9417 10.5026 15.7173 10.5026 16.5007C10.5026 17.2842 10.6585 18.0598 10.9611 18.7824C11.2637 19.505 11.7071 20.1602 12.2653 20.7098C12.8236 21.2595 13.4857 21.6925 14.2129 21.9839C14.9402 22.2752 15.7181 22.4189 16.5014 22.4067C18.0518 22.3825 19.5306 21.7496 20.6184 20.6447C21.7063 19.5397 22.316 18.0513 22.316 16.5007C22.316 14.9501 21.7063 13.4617 20.6184 12.3568C19.5306 11.2518 18.0518 10.6189 16.5014 10.5947ZM16.5014 12.6662C17.5182 12.6662 18.4934 13.0701 19.2124 13.7891C19.9313 14.5081 20.3352 15.4832 20.3352 16.5C20.3352 17.5168 19.9313 18.4919 19.2124 19.2109C18.4934 19.9299 17.5182 20.3338 16.5014 20.3338C15.4846 20.3338 14.5095 19.9299 13.7905 19.2109C13.0715 18.4919 12.6676 17.5168 12.6676 16.5C12.6676 15.4832 13.0715 14.5081 13.7905 13.7891C14.5095 13.0701 15.4846 12.6662 16.5014 12.6662Z" fill="#878787"/>
</svg>
