<svg width="26" height="20" viewBox="0 0 26 20" fill="none" xmlns="http://www.w3.org/2000/svg">
<path d="M24.375 0H1.625C1.19402 0 0.780698 0.175595 0.475951 0.488155C0.171205 0.800716 0 1.22464 0 1.66667V18.3333C0 18.7754 0.171205 19.1993 0.475951 19.5118C0.780698 19.8244 1.19402 20 1.625 20H24.375C24.806 20 25.2193 19.8244 25.524 19.5118C25.8288 19.1993 26 18.7754 26 18.3333V1.66667C26 1.22464 25.8288 0.800716 25.524 0.488155C25.2193 0.175595 24.806 0 24.375 0ZM23.1237 18.3333H2.97375L8.66125 12.3L7.49125 11.1417L1.625 17.3667V2.93333L11.7244 13.2417C12.0288 13.5521 12.4407 13.7263 12.87 13.7263C13.2993 13.7263 13.7112 13.5521 14.0156 13.2417L24.375 2.675V17.2583L18.395 11.125L17.2494 12.3L23.1237 18.3333ZM2.68937 1.66667H23.0588L12.87 12.0583L2.68937 1.66667Z" fill="black"/>
</svg>
