<svg width="20" height="28" viewBox="0 0 20 28" fill="none" xmlns="http://www.w3.org/2000/svg">
<path d="M9.79452 27.5L9.19178 26.8219C8.81507 26.4452 0 16.0479 0 9.79452C0 4.36986 4.36986 0 9.79452 0C15.2192 0 19.589 4.36986 19.589 9.79452C19.589 16.0479 10.774 26.4452 10.3973 26.8973L9.79452 27.5ZM9.79452 1.50685C5.19863 1.50685 1.50685 5.19863 1.50685 9.79452C1.50685 14.6164 7.83562 22.7534 9.79452 25.1644C11.7534 22.7534 18.0822 14.6164 18.0822 9.79452C18.0822 5.19863 14.3904 1.50685 9.79452 1.50685Z" fill="black"/>
<path d="M9.79447 13.5616C7.68488 13.5616 6.02734 11.9041 6.02734 9.79447C6.02734 7.68488 7.68488 6.02734 9.79447 6.02734C11.9041 6.02734 13.5616 7.68488 13.5616 9.79447C13.5616 11.9041 11.9041 13.5616 9.79447 13.5616ZM9.79447 7.53419C8.51364 7.53419 7.53419 8.51364 7.53419 9.79447C7.53419 11.0753 8.51364 12.0547 9.79447 12.0547C11.0753 12.0547 12.0547 11.0753 12.0547 9.79447C12.0547 8.51364 11.0753 7.53419 9.79447 7.53419Z" fill="black"/>
</svg>
