<svg width="47" height="49" viewBox="0 0 47 49" fill="none" xmlns="http://www.w3.org/2000/svg">
<path d="M38.5236 13.8294C34.956 12.4732 30.9923 12.2891 27.4129 13.2219C25.7865 13.527 24.2244 13.9638 22.7266 14.5323C24.253 8.4048 20.3857 2.13925 14.2845 0.552763C8.18331 -1.03372 1.98915 2.80716 0.462738 8.93467C-1.06368 15.0622 2.80364 21.3277 8.90485 22.9142C10.0083 23.1907 11.0475 23.3355 11.958 23.217L13.3729 26.1138L10.3231 25.1571C7.59833 24.2047 4.6011 25.6687 3.54679 28.4669C2.62279 31.2015 3.90741 34.162 6.63222 35.1144L16.0997 39.297C17.2607 41.0131 18.7484 42.4067 20.4324 43.5412C21.6628 44.4081 23.1538 45.1476 24.5162 45.6238L25.7382 48.1256C26.1241 48.9157 26.9026 49.1878 27.6845 48.8059L45.4073 40.1495C46.0589 39.8312 46.3889 38.8546 46.0673 38.1962L44.3951 34.7727C45.3919 30.5348 44.8299 26.0796 42.9647 22.261L39.2345 14.6238C39.1075 14.0335 38.8486 13.8338 38.5236 13.8294ZM3.8088 15.4548C1.68641 11.1095 3.53271 5.96739 7.89741 3.99861C12.1978 1.89816 17.3225 3.79852 19.3146 8.20748C20.4722 10.5777 20.4588 13.1937 19.3418 15.5332L16.1261 8.9494C15.5021 7.84076 14.4824 7.01084 13.2759 6.62976C12.0695 6.24868 10.7676 6.34532 9.63728 6.89987C7.22731 7.91389 6.107 10.9074 7.26467 13.2776L10.609 20.1248C7.75055 19.8901 5.22542 18.0247 3.8088 15.4548ZM40.4244 23.3387C42.2269 26.6986 42.662 30.5634 41.7329 34.279C41.6009 34.6696 41.4689 35.0603 41.6619 35.4553L43.0125 38.2205L27.896 45.6039L26.9956 43.7604C26.8026 43.3654 26.3491 43.0977 25.9598 42.9616C24.6617 42.6171 23.4296 42.0773 22.1992 41.2105C20.7742 40.2756 19.4811 38.9501 18.4487 37.4973C18.3201 37.2339 18.0612 37.0342 17.8022 36.8345L7.88116 32.3842C7.29727 32.1801 6.77938 31.7807 6.45781 31.1223C6.20055 30.5956 6.1396 29.8099 6.3376 29.2239C6.86391 27.9883 8.16706 27.3518 9.46515 27.6963L15.1094 29.6691L17.0389 33.6194L18.8717 31.0933L9.61033 12.1319C9.29044 11.1465 9.68644 9.97456 10.7933 9.59704C11.7055 9.15149 12.9392 9.36432 13.3895 10.2861L20.7857 25.4288L23.6492 24.6825L20.6907 18.6254C20.7567 18.4301 20.8871 18.3664 20.9531 18.1711C21.8653 17.7256 22.8418 17.4117 23.8183 17.0978L27.0984 23.8133L29.3763 23.1899L26.032 16.3428L27.7887 15.974C28.5046 15.7874 29.2848 15.7325 30.065 15.6776L33.2807 22.2614L35.5587 21.6381L32.6002 15.581C34.0303 15.5348 35.4587 15.8157 36.8211 16.2919L40.4244 23.3387Z" fill="white"/>
</svg>
