<svg width="32" height="31" viewBox="0 0 32 31" fill="none" xmlns="http://www.w3.org/2000/svg">
<path d="M28 2C28.5304 2 29.0391 2.21071 29.4142 2.58579C29.7893 2.96086 30 3.46957 30 4V20C30 20.5304 29.7893 21.0391 29.4142 21.4142C29.0391 21.7893 28.5304 22 28 22H8.828C7.76722 22.0002 6.74997 22.4218 6 23.172L2 27.172V4C2 3.46957 2.21071 2.96086 2.58579 2.58579C2.96086 2.21071 3.46957 2 4 2H28ZM4 0C2.93913 0 1.92172 0.421427 1.17157 1.17157C0.421427 1.92172 0 2.93913 0 4L0 29.586C4.20298e-05 29.7839 0.0587852 29.9773 0.168795 30.1418C0.278804 30.3062 0.435134 30.4344 0.617999 30.51C0.800863 30.5855 1.00204 30.6052 1.19607 30.5664C1.3901 30.5276 1.56826 30.4321 1.708 30.292L7.414 24.586C7.78899 24.2109 8.29761 24.0001 8.828 24H28C29.0609 24 30.0783 23.5786 30.8284 22.8284C31.5786 22.0783 32 21.0609 32 20V4C32 2.93913 31.5786 1.92172 30.8284 1.17157C30.0783 0.421427 29.0609 0 28 0L4 0Z" fill="white"/>
</svg>
