<svg width="41" height="41" viewBox="0 0 41 41" fill="none" xmlns="http://www.w3.org/2000/svg">
<path d="M20.5 38.4375C16.9523 38.4375 13.4843 37.3855 10.5345 35.4145C7.58466 33.4435 5.28557 30.642 3.92792 27.3644C2.57027 24.0867 2.21505 20.4801 2.90717 17.0006C3.59929 13.521 5.30768 10.3249 7.81628 7.81628C10.3249 5.30768 13.521 3.59929 17.0006 2.90717C20.4801 2.21505 24.0867 2.57027 27.3644 3.92792C30.642 5.28557 33.4435 7.58466 35.4145 10.5345C37.3855 13.4843 38.4375 16.9523 38.4375 20.5C38.4375 25.2573 36.5477 29.8198 33.1837 33.1837C29.8198 36.5477 25.2573 38.4375 20.5 38.4375ZM20.5 5.12501C17.4591 5.12501 14.4865 6.02674 11.9581 7.71616C9.42971 9.40559 7.45906 11.8068 6.29536 14.6163C5.13166 17.4257 4.82719 20.5171 5.42043 23.4995C6.01368 26.482 7.47801 29.2215 9.62824 31.3718C11.7785 33.522 14.518 34.9863 17.5005 35.5796C20.483 36.1728 23.5744 35.8684 26.3838 34.7047C29.1932 33.541 31.5944 31.5703 33.2839 29.0419C34.9733 26.5135 35.875 23.5409 35.875 20.5C35.875 16.4223 34.2551 12.5116 31.3718 9.62824C28.4884 6.74487 24.5777 5.12501 20.5 5.12501Z" fill="white"/>
<path d="M26.3809 28.1875L19.2188 21.0253V8.96875H21.7812V19.9619L28.1875 26.3809L26.3809 28.1875Z" fill="white"/>
</svg>
