<svg width="11" height="20" viewBox="0 0 11 20" fill="none" xmlns="http://www.w3.org/2000/svg">
<path d="M2.33373 19.3331C2.02219 19.3337 1.72028 19.2252 1.48039 19.0264C1.34538 18.9145 1.23378 18.777 1.15198 18.6219C1.07017 18.4668 1.01978 18.297 1.00368 18.1224C0.987577 17.9478 1.00609 17.7717 1.05815 17.6042C1.1102 17.4367 1.19479 17.2812 1.30706 17.1464L7.28039 9.99976L1.52039 2.83976C1.40964 2.70337 1.32693 2.54645 1.27702 2.37799C1.22711 2.20954 1.21099 2.03289 1.22957 1.85818C1.24816 1.68348 1.30109 1.51417 1.38532 1.35999C1.46955 1.2058 1.58342 1.06979 1.72039 0.959758C1.85835 0.838376 2.0199 0.746819 2.19492 0.690834C2.36994 0.634848 2.55464 0.615643 2.73743 0.634423C2.92022 0.653203 3.09715 0.709563 3.25713 0.799965C3.41711 0.890368 3.55667 1.01286 3.66706 1.15976L10.1071 9.15976C10.3032 9.39834 10.4104 9.69759 10.4104 10.0064C10.4104 10.3153 10.3032 10.6145 10.1071 10.8531L3.44039 18.8531C3.30664 19.0144 3.13673 19.142 2.94445 19.2254C2.75217 19.3088 2.54293 19.3457 2.33373 19.3331Z" fill="#242424"/>
</svg>
