<svg width="15" height="15" viewBox="0 0 15 15" fill="none" xmlns="http://www.w3.org/2000/svg">
<path d="M12.8033 2.19671C11.3867 0.780147 9.50332 0 7.5 0C5.49665 0 3.61324 0.780147 2.19668 2.19671C0.780147 3.61327 0 5.49668 0 7.5C0 9.50335 0.780147 11.3868 2.19668 12.8033C3.61324 14.2199 5.49665 15 7.5 15C9.50332 15 11.3867 14.2199 12.8033 12.8033C14.2199 11.3868 15 9.50335 15 7.5C15 5.49668 14.2199 3.61327 12.8033 2.19671ZM11.341 5.52861L6.77669 10.0929C6.69088 10.1787 6.57841 10.2216 6.46597 10.2216C6.3535 10.2216 6.24103 10.1787 6.15522 10.0929L3.65897 7.59671C3.48735 7.42512 3.48735 7.14683 3.65895 6.97523C3.83057 6.80361 4.1088 6.80361 4.28045 6.97523L6.46597 9.16069L10.7195 4.90714C10.8911 4.73552 11.1694 4.73552 11.341 4.90714C11.5126 5.07876 11.5126 5.35699 11.341 5.52861Z" fill="#00AD07"/>
</svg>
