<svg width="6" height="11" viewBox="0 0 6 11" fill="none" xmlns="http://www.w3.org/2000/svg">
<path d="M0.343587 5.06924L4.47386 0.939044C4.56939 0.84344 4.69691 0.790771 4.83288 0.790771C4.96886 0.790771 5.09638 0.84344 5.19191 0.939044L5.49607 1.24313C5.694 1.44128 5.694 1.76333 5.49607 1.96118L2.02778 5.42947L5.49992 8.90161C5.59545 8.99722 5.64819 9.12466 5.64819 9.26056C5.64819 9.39661 5.59545 9.52405 5.49992 9.61973L5.19575 9.92375C5.10015 10.0194 4.9727 10.072 4.83673 10.072C4.70076 10.072 4.57324 10.0194 4.47771 9.92375L0.343587 5.78978C0.247832 5.69387 0.19524 5.56582 0.195541 5.4297C0.19524 5.29305 0.247832 5.16507 0.343587 5.06924Z" fill="white"/>
</svg>
