<svg width="18" height="12" viewBox="0 0 18 12" fill="none" xmlns="http://www.w3.org/2000/svg">
<path d="M17.5571 5.81716C15.7642 2.78318 12.5087 0.881226 9.0001 0.881226C5.4915 0.881226 2.23252 2.78318 0.443066 5.81716C0.369238 5.92615 0.369238 6.0738 0.443066 6.18279C2.23604 9.21677 5.4915 11.1187 9.0001 11.1187C12.5087 11.1187 15.7677 9.21677 17.5571 6.18279C17.631 6.0738 17.631 5.92615 17.5571 5.81716ZM9.0001 10.3875C5.81846 10.3875 2.85479 8.70701 1.20947 5.99998C2.85479 3.29294 5.81846 1.61248 9.0001 1.61248C12.1817 1.61248 15.1454 3.29294 16.7907 5.99998C15.1454 8.70701 12.1817 10.3875 9.0001 10.3875Z" fill="white"/>
<path d="M9.0001 2.70935C7.17197 2.70935 5.70947 4.17185 5.70947 5.99998C5.70947 7.8281 7.17197 9.2906 9.0001 9.2906C10.8282 9.2906 12.2907 7.8281 12.2907 5.99998C12.2907 4.17185 10.8282 2.70935 9.0001 2.70935ZM9.0001 8.55935C7.57275 8.55935 6.44072 7.4238 6.44072 5.99998C6.44072 4.57615 7.57627 3.4406 9.0001 3.4406C10.4239 3.4406 11.5595 4.57615 11.5595 5.99998C11.5595 7.4238 10.4274 8.55935 9.0001 8.55935Z" fill="white"/>
<path d="M9.0001 4.53748V5.26873C9.40088 5.26873 9.73135 5.59919 9.73135 5.99998C9.73135 6.40076 9.40088 6.73123 9.0001 6.73123C8.59932 6.73123 8.26885 6.40076 8.26885 5.99998H7.5376C7.5376 6.80505 8.19502 7.46248 9.0001 7.46248C9.80518 7.46248 10.4626 6.80505 10.4626 5.99998C10.4626 5.1949 9.80518 4.53748 9.0001 4.53748Z" fill="white"/>
</svg>
