<svg width="10" height="16" viewBox="0 0 10 16" fill="none" xmlns="http://www.w3.org/2000/svg">
<path d="M0.815839 7.59511L7.39368 1.01739C7.54582 0.86513 7.74891 0.78125 7.96546 0.78125C8.18201 0.78125 8.3851 0.86513 8.53724 1.01739L9.02165 1.50168C9.33686 1.81725 9.33686 2.33014 9.02165 2.64523L3.49807 8.16881L9.02778 13.6985C9.17992 13.8508 9.26392 14.0537 9.26392 14.2702C9.26392 14.4868 9.17992 14.6898 9.02778 14.8422L8.54337 15.3264C8.39111 15.4786 8.18814 15.5625 7.97159 15.5625C7.75504 15.5625 7.55195 15.4786 7.39981 15.3264L0.815839 8.74263C0.663341 8.58989 0.579581 8.38596 0.580062 8.16917C0.579581 7.95154 0.663341 7.74773 0.815839 7.59511Z" fill="#755CDB"/>
</svg>
