<svg width="14" height="17" viewBox="0 0 14 17" fill="none" xmlns="http://www.w3.org/2000/svg">
<path d="M1.636 0.288004C1.48966 0.167399 1.31205 0.0908878 1.12388 0.067396C0.935712 0.0439042 0.744741 0.0743998 0.573245 0.155326C0.401749 0.236252 0.256798 0.364272 0.1553 0.524453C0.0538017 0.684634 -5.89237e-05 0.870373 4.83745e-08 1.06V15.058C4.83745e-08 15.984 1.15 16.413 1.756 15.713L5.28 11.64C5.42082 11.4774 5.59497 11.347 5.79064 11.2576C5.9863 11.1682 6.19889 11.122 6.414 11.122H12.006C12.944 11.122 13.366 9.946 12.642 9.35L1.636 0.288004Z" fill="white"/>
</svg>
