<svg width="309" height="309" viewBox="0 0 309 309" fill="none" xmlns="http://www.w3.org/2000/svg">
<path d="M203.658 154.5L298.819 59.3386C312.394 45.764 312.394 23.7556 298.819 10.181C285.244 -3.39366 263.237 -3.39366 249.661 10.181L154.5 105.342L59.3386 10.181C45.764 -3.39366 23.7556 -3.39366 10.181 10.181C-3.39366 23.7556 -3.39366 45.764 10.181 59.3386L105.342 154.5L10.181 249.661C-3.39366 263.236 -3.39366 285.244 10.181 298.819C16.9683 305.606 25.8639 309 34.7594 309C43.655 309 52.5513 305.606 59.3379 298.819L154.5 203.658L249.661 298.819C256.449 305.606 265.344 309 274.24 309C283.135 309 292.031 305.606 298.818 298.819C312.393 285.244 312.393 263.236 298.818 249.661L203.658 154.5Z" fill="#FFEE7A" fill-opacity="0.5"/>
</svg>
