<svg width="135" height="128" viewBox="0 0 135 128" fill="none" xmlns="http://www.w3.org/2000/svg">
<path d="M111.818 34L132.76 13.0583C135.747 10.071 135.747 5.22777 132.76 2.24047C129.772 -0.746824 124.929 -0.746824 121.942 2.24047L101 23.1821L80.0583 2.24047C77.071 -0.746824 72.2278 -0.746824 69.2405 2.24047C66.2532 5.22777 66.2532 10.071 69.2405 13.0583L90.1821 34L69.2405 54.9417C66.2532 57.929 66.2532 62.7722 69.2405 65.7595C70.7341 67.253 72.6917 68 74.6493 68C76.6069 68 78.5647 67.2532 80.0582 65.7595L101 44.8179L121.942 65.7595C123.435 67.253 125.393 68 127.351 68C129.308 68 131.266 67.2532 132.759 65.7595C135.747 62.7722 135.747 57.929 132.759 54.9417L111.818 34Z" fill="#FFEE7A" fill-opacity="0.5"/>
<path d="M19.1135 68.5L28.0445 59.569C29.3185 58.295 29.3185 56.2295 28.0445 54.9555C26.7704 53.6815 24.7051 53.6815 23.431 54.9555L14.5 63.8865L5.56899 54.9555C4.295 53.6815 2.22949 53.6815 0.955495 54.9555C-0.318498 56.2295 -0.318498 58.295 0.955495 59.569L9.8865 68.5L0.955495 77.431C-0.318498 78.705 -0.318498 80.7705 0.955495 82.0445C1.59249 82.6814 2.42735 83 3.26221 83C4.09707 83 4.932 82.6815 5.56893 82.0445L14.5 73.1135L23.431 82.0445C24.068 82.6814 24.9029 83 25.7377 83C26.5726 83 27.4074 82.6815 28.0444 82.0445C29.3184 80.7705 29.3184 78.705 28.0444 77.431L19.1135 68.5Z" fill="#FFEE7A" fill-opacity="0.5"/>
<path d="M120.114 113.5L129.045 104.569C130.318 103.295 130.318 101.229 129.045 99.9555C127.77 98.6815 125.705 98.6815 124.431 99.9555L115.5 108.887L106.569 99.9555C105.295 98.6815 103.229 98.6815 101.955 99.9555C100.682 101.229 100.682 103.295 101.955 104.569L110.887 113.5L101.955 122.431C100.682 123.705 100.682 125.771 101.955 127.045C102.592 127.681 103.427 128 104.262 128C105.097 128 105.932 127.682 106.569 127.045L115.5 118.114L124.431 127.045C125.068 127.681 125.903 128 126.738 128C127.573 128 128.407 127.682 129.044 127.045C130.318 125.771 130.318 123.705 129.044 122.431L120.114 113.5Z" fill="#FFEE7A" fill-opacity="0.5"/>
</svg>
