<svg width="7" height="13" viewBox="0 0 7 13" fill="none" xmlns="http://www.w3.org/2000/svg">
<path d="M5.0932 2.02066H6.70158C6.84955 2.02066 6.96964 1.9075 6.96964 1.76806V0.252476C6.96964 0.113042 6.84955 -0.00012207 6.70158 -0.00012207H5.0932C3.46766 -0.00012207 2.1445 1.2462 2.1445 2.77846V4.54664H0.268063C0.120092 4.54664 0 4.6598 0 4.79924V6.31483C0 6.45426 0.120092 6.56742 0.268063 6.56742H2.1445V11.872C2.1445 12.0114 2.2646 12.1246 2.41257 12.1246H4.02095C4.16892 12.1246 4.28901 12.0114 4.28901 11.872V6.56742H6.16545C6.28072 6.56742 6.38312 6.49771 6.42011 6.39465L6.95624 4.87906C6.98358 4.80227 6.96964 4.7174 6.91924 4.65122C6.86831 4.58554 6.78789 4.54664 6.70158 4.54664H4.28901V2.77846C4.28901 2.36066 4.64982 2.02066 5.0932 2.02066Z" fill="white"/>
</svg>
