<svg width="20" height="215" viewBox="0 0 20 215" fill="none" xmlns="http://www.w3.org/2000/svg">
<path opacity="0.5" d="M4.95 123.2C4.95 122.33 5.13 121.58 5.49 120.95C5.84 120.32 6.36 119.795 7.05 119.375L7.83 120.38C7.19 120.75 6.74 121.17 6.48 121.64C6.21 122.1 6.075 122.66 6.075 123.32C6.075 124.12 6.235 124.705 6.555 125.075C6.875 125.445 7.265 125.63 7.725 125.63C8.075 125.63 8.385 125.52 8.655 125.3C8.915 125.08 9.12 124.64 9.27 123.98L9.75 121.835C9.96 120.885 10.28 120.225 10.71 119.855C11.13 119.475 11.655 119.285 12.285 119.285C12.845 119.285 13.345 119.445 13.785 119.765C14.215 120.075 14.55 120.515 14.79 121.085C15.03 121.655 15.15 122.325 15.15 123.095C15.15 124.165 14.94 125.05 14.52 125.75C14.09 126.45 13.57 126.985 12.96 127.355L12.105 126.305C12.675 126.015 13.14 125.605 13.5 125.075C13.85 124.535 14.025 123.85 14.025 123.02C14.025 122.25 13.885 121.645 13.605 121.205C13.325 120.755 12.92 120.53 12.39 120.53C12.07 120.53 11.785 120.635 11.535 120.845C11.275 121.055 11.08 121.45 10.95 122.03L10.425 124.355C10.225 125.275 9.9 125.93 9.45 126.32C9 126.7 8.48 126.89 7.89 126.89C7.36 126.89 6.875 126.745 6.435 126.455C5.985 126.155 5.625 125.73 5.355 125.18C5.085 124.62 4.95 123.96 4.95 123.2ZM15.15 113.904C15.15 114.384 15.06 114.839 14.88 115.269C14.7 115.689 14.41 116.034 14.01 116.304C13.6 116.564 13.07 116.694 12.42 116.694L7.5 116.694L7.5 115.494L12.105 115.494C12.865 115.494 13.39 115.329 13.68 114.999C13.96 114.669 14.1 114.204 14.1 113.604C14.1 113.224 14.015 112.864 13.845 112.524C13.665 112.184 13.39 111.904 13.02 111.684C12.65 111.464 12.17 111.354 11.58 111.354L7.5 111.354L7.5 110.154L15 110.154L15 111.204L13.86 111.279C14.31 111.539 14.64 111.894 14.85 112.344C15.05 112.784 15.15 113.304 15.15 113.904ZM15 107.451L14.085 107.451L9.48 103.521L8.505 102.576L8.535 103.911L8.535 107.406L7.5 107.406L7.5 101.241L8.415 101.241L13.02 105.171L13.995 106.101L13.965 104.646L13.965 101.121L15 101.121L15 107.451ZM3.75 102.141L6.255 103.851L6.255 105.201L3.75 106.911L3.75 105.816L5.475 104.526L3.75 103.236L3.75 102.141ZM6.06 97.8484C6.06 98.1184 5.98 98.3384 5.82 98.5084C5.65 98.6684 5.43 98.7484 5.16 98.7484C4.89 98.7484 4.675 98.6684 4.515 98.5084C4.345 98.3384 4.26 98.1184 4.26 97.8484C4.26 97.5784 4.345 97.3634 4.515 97.2034C4.675 97.0334 4.89 96.9484 5.16 96.9484C5.43 96.9484 5.65 97.0334 5.82 97.2034C5.98 97.3634 6.06 97.5784 6.06 97.8484ZM7.5 97.2484L15 97.2484L15 98.4484L7.5 98.4484L7.5 97.2484ZM15 94.014L7.5 94.014L7.5 92.964L8.67 92.889C8.2 92.629 7.865 92.274 7.665 91.824C7.455 91.374 7.35 90.889 7.35 90.369C7.35 89.829 7.455 89.339 7.665 88.899C7.865 88.459 8.175 88.109 8.595 87.849C9.015 87.579 9.55 87.444 10.2 87.444L15 87.444L15 88.644L10.62 88.644C9.79 88.644 9.215 88.824 8.895 89.184C8.565 89.534 8.4 89.969 8.4 90.489C8.4 90.849 8.485 91.209 8.655 91.569C8.825 91.929 9.1 92.229 9.48 92.469C9.86 92.699 10.37 92.814 11.01 92.814L15 92.814L15 94.014ZM7.35 81.1719C7.35 80.4619 7.505 79.8369 7.815 79.2969C8.125 78.7469 8.575 78.3169 9.165 78.0069C9.745 77.6969 10.44 77.5419 11.25 77.5419C12.06 77.5419 12.76 77.6969 13.35 78.0069C13.93 78.3169 14.375 78.7469 14.685 79.2969C14.995 79.8369 15.15 80.4619 15.15 81.1719C15.15 81.8719 14.995 82.4969 14.685 83.0469C14.375 83.5969 13.93 84.0269 13.35 84.3369C12.76 84.6469 12.06 84.8019 11.25 84.8019C10.44 84.8019 9.745 84.6469 9.165 84.3369C8.575 84.0269 8.125 83.5969 7.815 83.0469C7.505 82.4969 7.35 81.8719 7.35 81.1719ZM8.385 81.1719C8.385 81.9319 8.64 82.5269 9.15 82.9569C9.66 83.3869 10.36 83.6019 11.25 83.6019C12.14 83.6019 12.84 83.3869 13.35 82.9569C13.86 82.5269 14.115 81.9319 14.115 81.1719C14.115 80.4119 13.86 79.8169 13.35 79.3869C12.84 78.9569 12.14 78.7419 11.25 78.7419C10.36 78.7419 9.66 78.9569 9.15 79.3869C8.64 79.8169 8.385 80.4119 8.385 81.1719ZM7.5 70.4646L8.535 70.4646L8.535 73.1946L12.93 73.1946C13.3 73.1946 13.575 73.0896 13.755 72.8796C13.935 72.6696 14.025 72.3996 14.025 72.0696C14.025 71.7796 13.975 71.5296 13.875 71.3196C13.775 71.1096 13.64 70.9196 13.47 70.7496L14.475 70.3296C14.685 70.5596 14.85 70.8346 14.97 71.1546C15.09 71.4646 15.15 71.8246 15.15 72.2346C15.15 72.6146 15.085 72.9696 14.955 73.2996C14.815 73.6296 14.6 73.8946 14.31 74.0946C14.01 74.2846 13.62 74.3846 13.14 74.3946L8.535 74.3946L8.535 75.8946L7.5 75.8946L7.5 74.3946L5.7 74.3946L5.37 73.1946L7.5 73.1946L7.5 70.4646ZM6.06 67.6304C6.06 67.9004 5.98 68.1204 5.82 68.2904C5.65 68.4504 5.43 68.5304 5.16 68.5304C4.89 68.5304 4.675 68.4504 4.515 68.2904C4.345 68.1204 4.26 67.9004 4.26 67.6304C4.26 67.3604 4.345 67.1454 4.515 66.9854C4.675 66.8154 4.89 66.7304 5.16 66.7304C5.43 66.7304 5.65 66.8154 5.82 66.9854C5.98 67.1454 6.06 67.3604 6.06 67.6304ZM7.5 67.0304L15 67.0304L15 68.2304L7.5 68.2304L7.5 67.0304ZM15.15 55.3087C15.15 55.9287 14.995 56.4987 14.685 57.0187C14.375 57.5387 13.93 57.9537 13.35 58.2637C12.76 58.5737 12.06 58.7287 11.25 58.7287C10.42 58.7287 9.715 58.5637 9.135 58.2337C8.555 57.9037 8.115 57.4687 7.815 56.9287C7.505 56.3887 7.35 55.8087 7.35 55.1887C7.35 54.6487 7.475 54.1687 7.725 53.7487C7.965 53.3287 8.295 53.0187 8.715 52.8187L4.05 52.8187L4.05 51.6187L15 51.6187L15 52.6687L13.59 52.7437C14.1 52.9537 14.49 53.2937 14.76 53.7637C15.02 54.2337 15.15 54.7487 15.15 55.3087ZM14.1 55.1887C14.1 54.4787 13.835 53.9087 13.305 53.4787C12.775 53.0387 12.055 52.8187 11.145 52.8187C10.285 52.8187 9.615 53.0337 9.135 53.4637C8.645 53.8937 8.4 54.4487 8.4 55.1287C8.4 55.8887 8.66 56.4787 9.18 56.8987C9.7 57.3187 10.39 57.5287 11.25 57.5287C12.11 57.5287 12.8 57.3237 13.32 56.9137C13.84 56.5037 14.1 55.9287 14.1 55.1887ZM10.155 43.9994C9.595 43.9994 9.165 44.1494 8.865 44.4494C8.555 44.7494 8.4 45.1744 8.4 45.7244C8.4 46.2444 8.515 46.6844 8.745 47.0444C8.965 47.4044 9.325 47.6694 9.825 47.8394L9.225 48.8144C8.665 48.6144 8.215 48.2444 7.875 47.7044C7.525 47.1644 7.35 46.4944 7.35 45.6944C7.35 45.1544 7.445 44.6644 7.635 44.2244C7.815 43.7844 8.095 43.4394 8.475 43.1894C8.845 42.9294 9.325 42.7994 9.915 42.7994L13.545 42.7994C13.905 42.7994 14.085 42.6094 14.085 42.2294C14.085 42.0394 14.06 41.8544 14.01 41.6744L14.955 41.7344C15.055 41.9344 15.105 42.1944 15.105 42.5144C15.105 42.8844 15.015 43.2044 14.835 43.4744C14.655 43.7344 14.38 43.9044 14.01 43.9844C14.4 44.2444 14.69 44.5994 14.88 45.0494C15.06 45.4994 15.15 45.9444 15.15 46.3844C15.15 46.8244 15.075 47.2344 14.925 47.6144C14.775 47.9944 14.55 48.2994 14.25 48.5294C13.94 48.7494 13.56 48.8594 13.11 48.8594C12.55 48.8594 12.09 48.6744 11.73 48.3044C11.36 47.9244 11.11 47.3994 10.98 46.7294L10.44 43.9994L10.155 43.9994ZM13.05 47.6294C13.36 47.6294 13.615 47.5094 13.815 47.2694C14.005 47.0194 14.1 46.6694 14.1 46.2194C14.1 45.8294 14.035 45.4694 13.905 45.1394C13.765 44.7994 13.56 44.5244 13.29 44.3144C13.01 44.1044 12.655 43.9994 12.225 43.9994L11.43 43.9994L11.88 46.1744C11.98 46.6644 12.12 47.0294 12.3 47.2694C12.48 47.5094 12.73 47.6294 13.05 47.6294ZM15.15 36.7183C15.15 37.1983 15.06 37.6533 14.88 38.0833C14.7 38.5033 14.41 38.8483 14.01 39.1183C13.6 39.3783 13.07 39.5083 12.42 39.5083L7.5 39.5083L7.5 38.3083L12.105 38.3083C12.865 38.3083 13.39 38.1433 13.68 37.8133C13.96 37.4833 14.1 37.0183 14.1 36.4183C14.1 36.0383 14.015 35.6783 13.845 35.3383C13.665 34.9983 13.39 34.7183 13.02 34.4983C12.65 34.2783 12.17 34.1683 11.58 34.1683L7.5 34.1683L7.5 32.9683L15 32.9683L15 34.0183L13.86 34.0933C14.31 34.3533 14.64 34.7083 14.85 35.1583C15.05 35.5983 15.15 36.1183 15.15 36.7183ZM14.04 25.6905C14.04 24.9805 14.205 24.4255 14.535 24.0255C14.855 23.6255 15.285 23.4255 15.825 23.4255C16.315 23.4255 16.74 23.5905 17.1 23.9205C17.46 24.2405 17.735 24.6755 17.925 25.2255C18.125 25.7655 18.225 26.3755 18.225 27.0555C18.225 28.2355 18.025 29.1205 17.625 29.7105C17.225 30.2905 16.745 30.5805 16.185 30.5805C15.845 30.5805 15.535 30.4855 15.255 30.2955C14.975 30.1055 14.775 29.7905 14.655 29.3505C14.545 29.5905 14.395 29.7855 14.205 29.9355C14.005 30.0855 13.74 30.1605 13.41 30.1605C13.1 30.1605 12.82 30.0705 12.57 29.8905C12.31 29.7105 12.11 29.4405 11.97 29.0805C11.75 29.4605 11.46 29.7505 11.1 29.9505C10.74 30.1505 10.335 30.2505 9.885 30.2505C9.385 30.2505 8.945 30.1205 8.565 29.8605C8.185 29.5905 7.89 29.2255 7.68 28.7655C7.45999 28.3055 7.34999 27.7755 7.34999 27.1755C7.34999 26.5455 7.47499 25.9805 7.725 25.4805C7.225 25.4105 6.835 25.1905 6.555 24.8205C6.265 24.4405 6.12 23.9955 6.12 23.4855L6.12 23.4105L7.185 23.1405L7.185 23.2455C7.185 23.7055 7.27 24.0655 7.44 24.3255C7.61 24.5855 7.875 24.7305 8.23499 24.7605C8.69499 24.3205 9.245 24.1005 9.885 24.1005C10.375 24.1005 10.815 24.2305 11.205 24.4905C11.585 24.7505 11.885 25.1155 12.105 25.5855C12.315 26.0455 12.42 26.5755 12.42 27.1755C12.42 27.5455 12.385 27.8905 12.315 28.2105C12.405 28.5105 12.53 28.7255 12.69 28.8555C12.85 28.9855 13.025 29.0505 13.215 29.0505C13.765 29.0505 14.04 28.6605 14.04 27.8805L14.04 25.6905ZM8.325 27.1755C8.325 27.6955 8.47 28.1305 8.76 28.4805C9.04 28.8305 9.415 29.0055 9.885 29.0055C10.345 29.0055 10.72 28.8305 11.01 28.4805C11.3 28.1305 11.445 27.6955 11.445 27.1755C11.445 26.6555 11.3 26.2205 11.01 25.8705C10.72 25.5205 10.345 25.3455 9.885 25.3455C9.415 25.3455 9.04 25.5205 8.76 25.8705C8.47 26.2205 8.325 26.6555 8.325 27.1755ZM17.22 27.0705C17.22 26.2005 17.09 25.5605 16.83 25.1505C16.58 24.7405 16.29 24.5355 15.96 24.5355C15.69 24.5355 15.475 24.6455 15.315 24.8655C15.155 25.0755 15.075 25.4605 15.075 26.0205L15.075 28.3305C15.075 28.6505 15.155 28.9205 15.315 29.1405C15.485 29.3605 15.715 29.4705 16.005 29.4705C16.375 29.4705 16.67 29.2605 16.89 28.8405C17.11 28.4105 17.22 27.8205 17.22 27.0705ZM6.06 20.6921C6.06 20.9621 5.97999 21.1821 5.81999 21.3521C5.65 21.5121 5.43 21.5921 5.16 21.5921C4.88999 21.5921 4.67499 21.5121 4.51499 21.3521C4.34499 21.1821 4.26 20.9621 4.26 20.6921C4.25999 20.4221 4.34499 20.2071 4.51499 20.0471C4.67499 19.8771 4.88999 19.7921 5.15999 19.7921C5.43 19.7921 5.64999 19.8771 5.81999 20.0471C5.97999 20.2071 6.06 20.4221 6.06 20.6921ZM7.5 20.0921L15 20.0921L15 21.2921L7.5 21.2921L7.5 20.0921ZM10.155 12.4777C9.59499 12.4777 9.16499 12.6277 8.86499 12.9277C8.55499 13.2277 8.39999 13.6527 8.39999 14.2027C8.39999 14.7227 8.51499 15.1627 8.74499 15.5227C8.96499 15.8827 9.32499 16.1477 9.82499 16.3177L9.22499 17.2927C8.66499 17.0927 8.21499 16.7227 7.87499 16.1827C7.52499 15.6427 7.34999 14.9727 7.34999 14.1727C7.34999 13.6327 7.44499 13.1427 7.63499 12.7027C7.81499 12.2627 8.09499 11.9177 8.47499 11.6677C8.84499 11.4077 9.32499 11.2777 9.91499 11.2777L13.545 11.2777C13.905 11.2777 14.085 11.0877 14.085 10.7077C14.085 10.5177 14.06 10.3327 14.01 10.1527L14.955 10.2127C15.055 10.4127 15.105 10.6727 15.105 10.9927C15.105 11.3627 15.015 11.6827 14.835 11.9527C14.655 12.2127 14.38 12.3827 14.01 12.4627C14.4 12.7227 14.69 13.0777 14.88 13.5277C15.06 13.9777 15.15 14.4227 15.15 14.8627C15.15 15.3027 15.075 15.7127 14.925 16.0927C14.775 16.4727 14.55 16.7777 14.25 17.0077C13.94 17.2277 13.56 17.3377 13.11 17.3377C12.55 17.3377 12.09 17.1527 11.73 16.7827C11.36 16.4027 11.11 15.8777 10.98 15.2077L10.44 12.4777L10.155 12.4777ZM13.05 16.1077C13.36 16.1077 13.615 15.9877 13.815 15.7477C14.005 15.4977 14.1 15.1477 14.1 14.6977C14.1 14.3077 14.035 13.9477 13.905 13.6177C13.765 13.2777 13.56 13.0027 13.29 12.7927C13.01 12.5827 12.655 12.4777 12.225 12.4777L11.43 12.4777L11.88 14.6527C11.98 15.1427 12.12 15.5077 12.3 15.7477C12.48 15.9877 12.73 16.1077 13.05 16.1077ZM15.15 5.19664C15.15 5.67664 15.06 6.13164 14.88 6.56164C14.7 6.98164 14.41 7.32664 14.01 7.59664C13.6 7.85664 13.07 7.98664 12.42 7.98664L7.49999 7.98664L7.49999 6.78664L12.105 6.78664C12.865 6.78664 13.39 6.62164 13.68 6.29164C13.96 5.96164 14.1 5.49664 14.1 4.89664C14.1 4.51664 14.015 4.15664 13.845 3.81664C13.665 3.47664 13.39 3.19664 13.02 2.97664C12.65 2.75664 12.17 2.64664 11.58 2.64664L7.49999 2.64664L7.49999 1.44664L15 1.44664L15 2.49664L13.86 2.57164C14.31 2.83164 14.64 3.18664 14.85 3.63664C15.05 4.07664 15.15 4.59664 15.15 5.19664Z" fill="white"/>
<path opacity="0.5" d="M9.64645 214.354C9.84171 214.549 10.1583 214.549 10.3536 214.354L13.5355 211.172C13.7308 210.976 13.7308 210.66 13.5355 210.464C13.3403 210.269 13.0237 210.269 12.8284 210.464L10 213.293L7.17157 210.464C6.97631 210.269 6.65973 210.269 6.46447 210.464C6.2692 210.66 6.2692 210.976 6.46447 211.172L9.64645 214.354ZM9.5 138L9.5 214H10.5L10.5 138H9.5Z" fill="#FFEE7A"/>
</svg>
