<svg width="22" height="22" viewBox="0 0 22 22" fill="none" xmlns="http://www.w3.org/2000/svg">
<path d="M11 15.125C9.90598 15.125 8.85677 14.6904 8.08318 13.9168C7.3096 13.1432 6.875 12.094 6.875 11C6.875 9.90598 7.3096 8.85677 8.08318 8.08318C8.85677 7.3096 9.90598 6.875 11 6.875C12.094 6.875 13.1432 7.3096 13.9168 8.08318C14.6904 8.85677 15.125 9.90598 15.125 11C15.125 12.094 14.6904 13.1432 13.9168 13.9168C13.1432 14.6904 12.094 15.125 11 15.125ZM11 16.5C12.4587 16.5 13.8576 15.9205 14.8891 14.8891C15.9205 13.8576 16.5 12.4587 16.5 11C16.5 9.54131 15.9205 8.14236 14.8891 7.11091C13.8576 6.07946 12.4587 5.5 11 5.5C9.54131 5.5 8.14236 6.07946 7.11091 7.11091C6.07946 8.14236 5.5 9.54131 5.5 11C5.5 12.4587 6.07946 13.8576 7.11091 14.8891C8.14236 15.9205 9.54131 16.5 11 16.5ZM11 0C11.1823 0 11.3572 0.0724328 11.4861 0.201364C11.6151 0.330295 11.6875 0.505164 11.6875 0.6875V3.4375C11.6875 3.61984 11.6151 3.7947 11.4861 3.92364C11.3572 4.05257 11.1823 4.125 11 4.125C10.8177 4.125 10.6428 4.05257 10.5139 3.92364C10.3849 3.7947 10.3125 3.61984 10.3125 3.4375V0.6875C10.3125 0.505164 10.3849 0.330295 10.5139 0.201364C10.6428 0.0724328 10.8177 0 11 0V0ZM11 17.875C11.1823 17.875 11.3572 17.9474 11.4861 18.0764C11.6151 18.2053 11.6875 18.3802 11.6875 18.5625V21.3125C11.6875 21.4948 11.6151 21.6697 11.4861 21.7986C11.3572 21.9276 11.1823 22 11 22C10.8177 22 10.6428 21.9276 10.5139 21.7986C10.3849 21.6697 10.3125 21.4948 10.3125 21.3125V18.5625C10.3125 18.3802 10.3849 18.2053 10.5139 18.0764C10.6428 17.9474 10.8177 17.875 11 17.875ZM22 11C22 11.1823 21.9276 11.3572 21.7986 11.4861C21.6697 11.6151 21.4948 11.6875 21.3125 11.6875H18.5625C18.3802 11.6875 18.2053 11.6151 18.0764 11.4861C17.9474 11.3572 17.875 11.1823 17.875 11C17.875 10.8177 17.9474 10.6428 18.0764 10.5139C18.2053 10.3849 18.3802 10.3125 18.5625 10.3125H21.3125C21.4948 10.3125 21.6697 10.3849 21.7986 10.5139C21.9276 10.6428 22 10.8177 22 11ZM4.125 11C4.125 11.1823 4.05257 11.3572 3.92364 11.4861C3.7947 11.6151 3.61984 11.6875 3.4375 11.6875H0.6875C0.505164 11.6875 0.330295 11.6151 0.201364 11.4861C0.0724328 11.3572 0 11.1823 0 11C0 10.8177 0.0724328 10.6428 0.201364 10.5139C0.330295 10.3849 0.505164 10.3125 0.6875 10.3125H3.4375C3.61984 10.3125 3.7947 10.3849 3.92364 10.5139C4.05257 10.6428 4.125 10.8177 4.125 11ZM18.7784 3.22162C18.9073 3.35055 18.9797 3.52539 18.9797 3.70769C18.9797 3.88999 18.9073 4.06482 18.7784 4.19375L16.8341 6.13938C16.7702 6.20321 16.6943 6.25382 16.6109 6.28833C16.5274 6.32284 16.4379 6.34057 16.3476 6.34051C16.1651 6.34038 15.9902 6.26778 15.8613 6.13869C15.7975 6.07477 15.7469 5.9989 15.7124 5.91542C15.6778 5.83193 15.6601 5.74247 15.6602 5.65214C15.6603 5.4697 15.7329 5.29479 15.862 5.16587L17.8062 3.22162C17.9352 3.09274 18.11 3.02033 18.2923 3.02033C18.4746 3.02033 18.6494 3.09274 18.7784 3.22162ZM6.138 15.862C6.26689 15.9909 6.33929 16.1658 6.33929 16.3481C6.33929 16.5304 6.26689 16.7052 6.138 16.8341L4.19375 18.7784C4.06409 18.9036 3.89042 18.9729 3.71016 18.9713C3.5299 18.9698 3.35747 18.8975 3.23 18.77C3.10253 18.6425 3.03023 18.4701 3.02866 18.2898C3.0271 18.1096 3.09639 17.9359 3.22162 17.8062L5.16587 15.862C5.2948 15.7331 5.46964 15.6607 5.65194 15.6607C5.83424 15.6607 6.00908 15.7331 6.138 15.862ZM18.7784 18.7784C18.6494 18.9073 18.4746 18.9797 18.2923 18.9797C18.11 18.9797 17.9352 18.9073 17.8062 18.7784L15.862 16.8341C15.7368 16.7045 15.6675 16.5308 15.669 16.3505C15.6706 16.1703 15.7429 15.9978 15.8704 15.8704C15.9978 15.7429 16.1703 15.6706 16.3505 15.669C16.5308 15.6675 16.7045 15.7368 16.8341 15.862L18.7784 17.8062C18.9073 17.9352 18.9797 18.11 18.9797 18.2923C18.9797 18.4746 18.9073 18.6494 18.7784 18.7784ZM6.138 6.13938C6.00908 6.26826 5.83424 6.34067 5.65194 6.34067C5.46964 6.34067 5.2948 6.26826 5.16587 6.13938L3.22162 4.19375C3.15596 4.13033 3.10359 4.05447 3.06756 3.97059C3.03152 3.88671 3.01256 3.7965 3.01177 3.70521C3.01097 3.61393 3.02837 3.5234 3.06294 3.43891C3.0975 3.35442 3.14855 3.27765 3.2131 3.2131C3.27765 3.14855 3.35442 3.0975 3.43891 3.06294C3.5234 3.02837 3.61393 3.01097 3.70521 3.01177C3.7965 3.01256 3.88671 3.03152 3.97059 3.06756C4.05447 3.10359 4.13033 3.15596 4.19375 3.22162L6.138 5.16587C6.20202 5.22974 6.25282 5.3056 6.28748 5.38913C6.32214 5.47265 6.33998 5.56219 6.33998 5.65263C6.33998 5.74306 6.32214 5.8326 6.28748 5.91612C6.25282 5.99965 6.20202 6.07551 6.138 6.13938Z" fill="white"/>
</svg>
