<svg width="20" height="20" viewBox="0 0 20 20" fill="none" xmlns="http://www.w3.org/2000/svg">
<path d="M18.7223 11.2194C18.0337 11.4023 17.3242 11.4948 16.6117 11.4947C14.4422 11.4947 12.4048 10.6516 10.8745 9.12183C9.86953 8.11147 9.14705 6.85546 8.77905 5.47899C8.41105 4.10252 8.41038 2.65367 8.7771 1.27687C8.8229 1.10472 8.82261 0.923565 8.77626 0.751569C8.72991 0.579573 8.63913 0.422785 8.51302 0.296932C8.38692 0.17108 8.22993 0.0805886 8.05779 0.0345358C7.88566 -0.011517 7.70443 -0.0115118 7.5323 0.0345506C5.80804 0.493875 4.23492 1.39838 2.97075 2.65733C-0.99025 6.61689 -0.99025 13.0621 2.97075 17.0237C3.91225 17.9701 5.03217 18.7204 6.2657 19.2313C7.49922 19.7422 8.82185 20.0035 10.1571 20C11.4919 20.0037 12.8142 19.7427 14.0474 19.2319C15.2806 18.7212 16.4002 17.971 17.3413 17.0247C18.6017 15.7608 19.5069 14.1874 19.9661 12.4628C20.0117 12.2907 20.0113 12.1097 19.965 11.9378C19.9186 11.7659 19.828 11.6092 19.7021 11.4833C19.5762 11.3575 19.4194 11.2669 19.2474 11.2205C19.0755 11.1742 18.8944 11.1739 18.7223 11.2194ZM15.9055 15.5884C15.1525 16.3452 14.2568 16.9453 13.2702 17.3538C12.2837 17.7624 11.2259 17.9712 10.1581 17.9684C9.08987 17.971 8.03174 17.762 7.04488 17.3533C6.05801 16.9446 5.16199 16.3444 4.40862 15.5874C1.24023 12.4191 1.24023 7.26293 4.40862 4.09468C5.02086 3.48334 5.7277 2.97467 6.50191 2.58825C6.38859 4.05004 6.5923 5.51905 7.09914 6.8949C7.60598 8.27075 8.40398 9.52099 9.43862 10.5602C10.4759 11.5977 11.7263 12.3976 13.1032 12.9047C14.4801 13.4117 15.9508 13.6138 17.4135 13.4969C17.0248 14.2695 16.5158 14.9755 15.9055 15.5884Z" fill="white"/>
</svg>
