<svg width="489" height="603" viewBox="0 0 489 603" fill="none" xmlns="http://www.w3.org/2000/svg">
<path opacity="0.07" d="M488.933 303.288C480.424 298.329 474.259 298.195 470.44 302.886C466.621 307.511 464.745 315.352 464.745 326.41V385.991C464.745 397.317 463.673 406.7 461.595 414.139C459.518 421.846 455.967 427.342 451.076 430.559C446.318 433.843 439.886 434.714 431.711 433.172C423.738 431.698 413.754 427.543 401.827 420.64L396.132 417.356V370.442L403.234 374.53C411.744 379.49 417.439 380.093 420.32 376.474C423.336 372.989 424.877 365.684 424.877 354.625V302.149C424.877 288.477 426.217 277.687 428.897 269.712C431.577 261.736 436.871 256.71 444.844 254.431C436.871 242.971 431.577 231.779 428.897 220.787C426.217 209.796 424.944 197.465 424.944 183.793V131.316C424.944 120.258 423.403 111.277 420.388 104.24C417.573 97.3373 411.878 91.4396 403.301 86.4802L396.199 82.392V35.4783L401.894 38.7622C413.821 45.6652 423.805 52.9704 431.778 60.7446C439.953 68.5859 446.385 76.9634 451.143 85.7429C456.101 94.6565 459.585 104.173 461.662 114.293C463.74 124.145 464.812 134.801 464.812 146.061V205.641C464.812 216.699 466.688 226.752 470.507 235.733C474.326 244.78 480.491 251.75 489 256.643L488.933 303.288Z" fill="url(#paint0_linear)"/>
<path opacity="0.07" d="M272.843 130.713C281.353 135.673 287.517 135.807 291.337 131.115C295.156 126.491 297.032 118.65 297.032 107.591V48.0109C297.032 36.6846 298.104 27.3019 300.181 19.8627C302.258 12.1554 305.676 6.59281 310.433 3.30885C315.391 0.0919124 321.824 -0.779342 329.797 0.695089C337.972 2.23654 348.023 6.45877 359.949 13.3618L365.645 16.6457V63.5594L358.542 59.4712C350.033 54.5118 344.203 53.8416 341.188 57.3266C338.374 60.9457 336.9 68.2508 336.9 79.309V131.785C336.9 145.457 335.56 156.248 332.88 164.223C330.199 172.131 324.906 177.225 316.932 179.503C324.906 190.964 330.199 202.156 332.88 213.147C335.56 224.138 336.833 236.47 336.833 250.142V302.618C336.833 313.676 338.24 322.657 341.121 329.56C344.136 336.597 349.966 342.562 358.475 347.454L365.578 351.543V398.456L359.882 395.172C347.956 388.269 337.905 380.897 329.73 373.056C321.757 365.282 315.324 356.971 310.366 348.058C305.609 339.278 302.191 329.828 300.114 319.641C298.037 309.789 296.965 299.133 296.965 287.874V228.294C296.965 217.235 295.089 207.182 291.27 198.202C287.45 189.154 281.286 182.184 272.776 177.292L272.843 130.713Z" fill="url(#paint1_linear)"/>
<path opacity="0.4" d="M462.132 323.394C453.622 318.435 447.458 318.301 443.638 322.992C439.819 327.617 437.943 335.458 437.943 346.516V406.097C437.943 417.423 436.871 426.806 434.794 434.245C432.717 441.952 429.165 447.448 424.274 450.665C419.517 453.948 413.084 454.82 404.91 453.278C396.936 451.804 386.952 447.649 375.025 440.746L369.33 437.462V390.548L376.433 394.636C384.942 399.596 390.638 400.199 393.519 396.58C396.534 393.095 398.075 385.79 398.075 374.731V322.255C398.075 308.583 399.415 297.793 402.095 289.818C404.776 281.842 410.069 276.816 418.042 274.537C410.069 263.077 404.776 251.884 402.095 240.893C399.415 229.902 398.142 217.57 398.142 203.898V151.422C398.142 140.364 396.601 131.383 393.586 124.346C390.772 117.443 385.076 111.545 376.5 106.586L369.397 102.498V55.5841L375.092 58.8681C387.019 65.7711 397.003 73.0762 404.977 80.8505C413.151 88.6918 419.584 97.0692 424.341 105.849C429.299 114.762 432.784 124.279 434.861 134.399C436.938 144.251 438.01 154.907 438.01 166.166V225.747C438.01 236.805 439.886 246.858 443.705 255.839C447.525 264.886 453.689 271.856 462.199 276.749L462.132 323.394Z" fill="#BCBCBC"/>
<path opacity="0.4" d="M246.041 150.819C254.55 155.778 260.715 155.912 264.534 151.221C268.353 146.597 270.229 138.755 270.229 127.697V68.1167C270.229 56.7904 271.301 47.4077 273.379 39.9685C275.456 32.2613 278.873 26.6986 283.63 23.4147C288.589 20.1977 295.021 19.3265 302.995 20.8009C311.169 22.3424 321.22 26.5646 333.147 33.4676L338.842 36.7516V83.6653L331.74 79.5771C323.23 74.6176 317.401 73.9474 314.385 77.4325C311.571 81.0515 310.097 88.3567 310.097 99.4149V151.891C310.097 165.563 308.757 176.353 306.077 184.329C303.397 192.237 298.103 197.33 290.13 199.609C298.103 211.069 303.397 222.262 306.077 233.253C308.757 244.244 310.03 256.576 310.03 270.248V322.724C310.03 333.782 311.437 342.763 314.318 349.666C317.334 356.703 323.163 362.668 331.673 367.56L338.775 371.648V418.562L333.08 415.278C321.153 408.375 311.102 401.003 302.928 393.162C294.954 385.387 288.522 377.077 283.563 368.163C278.806 359.384 275.389 349.934 273.312 339.747C271.234 329.895 270.162 319.239 270.162 307.98V248.399C270.162 237.341 268.286 227.288 264.467 218.308C260.648 209.26 254.483 202.29 245.974 197.397L246.041 150.819Z" fill="#BCBCBC"/>
<path opacity="0.15" d="M97.2906 8.20129L211.802 74.3496L211.735 348.661L97.2236 282.512L97.2906 8.20129Z" fill="url(#paint2_linear)"/>
<path opacity="0.8" d="M75.7822 50.3566L166.842 102.967V128.233L75.7822 75.623V50.3566Z" fill="#8A7AFF"/>
<path opacity="0.15" d="M111.429 160.001L198.937 210.533V249.807L111.429 199.274V160.001Z" fill="#BCBCBC"/>
<path opacity="0.15" d="M111.362 112.484L199.004 163.084V172.198L111.362 121.665V112.484Z" fill="#BCBCBC"/>
<path opacity="0.15" d="M111.362 130.311L187.145 174.075V183.189L111.362 139.426V130.311Z" fill="#BCBCBC"/>
<path opacity="0.2" d="M97.291 8.20129L211.802 74.3496V111.143L97.291 44.995V8.20129Z" fill="url(#paint3_linear)"/>
<path opacity="0.2" d="M125.902 43.3195C125.902 48.8821 122.619 51.4959 118.599 49.2172C114.579 46.8715 111.362 40.5047 111.362 34.942C111.362 29.3794 114.646 26.7657 118.666 29.0443C122.619 31.39 125.902 37.7569 125.902 43.3195Z" fill="#BCBCBC"/>
<path opacity="0.15" d="M238.001 262.541L352.512 328.689L352.445 603L237.934 536.852L238.001 262.541Z" fill="url(#paint4_linear)"/>
<path opacity="0.8" d="M281.621 342.361L372.68 394.904V420.104L281.554 367.56L281.621 342.361Z" fill="#8A7AFF"/>
<path opacity="0.15" d="M252.139 368.432L339.714 419.031V458.238L252.139 407.638V368.432Z" fill="#BCBCBC"/>
<path opacity="0.15" d="M252.005 424.46L339.647 475.06V484.174L252.005 433.642V424.46Z" fill="#BCBCBC"/>
<path opacity="0.15" d="M252.005 440.947L327.787 484.71V493.825L252.005 450.061V440.947Z" fill="#BCBCBC"/>
<path opacity="0.2" d="M238.001 262.541L352.512 328.689V365.483L238.001 299.334V262.541Z" fill="url(#paint5_linear)"/>
<path opacity="0.2" d="M266.611 297.726C266.611 303.288 263.328 305.902 259.308 303.623C255.287 301.278 252.071 294.911 252.071 289.348C252.071 283.786 255.355 281.172 259.375 283.451C263.328 285.729 266.611 292.163 266.611 297.726Z" fill="#BCBCBC"/>
<path opacity="0.3" d="M218.167 300.541L18.8281 185.468L18.8951 289.415L200.679 394.368L218.301 420.439L218.167 300.541Z" fill="url(#paint6_linear)"/>
<path opacity="0.15" d="M166.909 296.251L123.222 271.052V280.167L166.909 305.366V296.251Z" fill="#BCBCBC"/>
<path opacity="0.15" d="M166.909 314.548L58.7637 252.085V261.2L166.976 323.662L166.909 314.548Z" fill="#BCBCBC"/>
<path opacity="0.15" d="M166.976 332.844L36.3838 257.447V266.562L166.976 341.959V332.844Z" fill="#BCBCBC"/>
<path opacity="0.8" d="M177.696 312.001C177.696 320.579 182.789 330.431 189.02 334.05C195.252 337.669 200.344 333.648 200.344 325.07C200.344 316.491 195.252 306.639 189.02 303.02C182.722 299.401 177.696 303.422 177.696 312.001Z" fill="#FFEE7A"/>
<path opacity="0.15" d="M38.5278 112.484L12.1279 97.2033V88.2897L38.5278 103.57C40.6719 104.844 43.8211 107.323 46.5013 111.21C49.3825 115.366 51.4597 120.593 51.4597 126.29C51.4597 132.59 49.8515 136.142 46.8363 137.214C43.9551 138.152 40.6049 136.544 38.5278 135.337L27.673 129.038L27.606 128.971C26.6679 128.434 25.1938 127.898 24.0548 128.233C23.1167 128.501 21.9776 129.507 21.9776 132.992C21.9776 136.477 23.0497 138.621 23.9878 139.895C25.1268 141.503 26.6009 142.643 27.539 143.112L27.673 143.179L60.9073 162.346V171.26L27.874 152.159C25.5959 150.953 22.3126 148.473 19.4984 144.519C16.4162 140.163 14.2721 134.667 14.2721 128.501C14.2721 122.403 16.4162 119.253 19.4314 118.381C22.2456 117.577 25.5289 118.784 27.807 120.124L38.5948 126.357C40.1359 127.228 41.342 127.63 42.079 127.362C42.682 127.161 43.7541 126.29 43.7541 121.799C43.7541 118.851 42.8161 116.974 41.878 115.634C40.8059 114.159 39.3988 112.953 38.5278 112.484Z" fill="#BCBCBC"/>
<path opacity="0.8" d="M19.9674 98.1416C19.9674 105.782 15.4781 109.334 9.98369 106.184C4.48931 103.034 0 94.2545 0 86.6142C0 78.974 4.48931 75.422 9.98369 78.5719C15.4781 81.7888 19.9674 90.5684 19.9674 98.1416Z" fill="#FFEE7A"/>
<path opacity="0.8" d="M72.901 171.863C72.901 179.503 68.4117 183.055 62.9173 179.905C57.4229 176.755 52.9336 167.976 52.9336 160.336C52.9336 152.695 57.4229 149.143 62.9173 152.293C68.4117 155.51 72.901 164.29 72.901 171.863Z" fill="#FFEE7A"/>
<path opacity="0.2" d="M144.127 404.89C148.147 407.236 151.364 412.799 151.364 417.49V437.931L164.899 445.705C168.919 448.051 172.135 453.613 172.135 458.305C172.135 462.929 168.852 464.806 164.899 462.527L151.364 454.753V475.194C151.364 479.818 148.08 481.695 144.127 479.416C140.107 477.07 136.891 471.508 136.891 466.816V446.375L123.356 438.601C119.335 436.255 116.119 430.693 116.119 426.001C116.119 421.377 119.402 419.5 123.356 421.779L136.891 429.553V409.112C136.891 404.421 140.107 402.545 144.127 404.89Z" fill="url(#paint7_linear)"/>
<defs>
<linearGradient id="paint0_linear" x1="531.088" y1="49.0286" x2="365.779" y2="335.47" gradientUnits="userSpaceOnUse">
<stop stop-color="white"/>
<stop offset="1" stop-color="white" stop-opacity="0"/>
</linearGradient>
<linearGradient id="paint1_linear" x1="451.629" y1="1.93281" x2="286.32" y2="288.375" gradientUnits="userSpaceOnUse">
<stop stop-color="white"/>
<stop offset="1" stop-color="white" stop-opacity="0"/>
</linearGradient>
<linearGradient id="paint2_linear" x1="213.879" y1="75.5247" x2="104.445" y2="265.077" gradientUnits="userSpaceOnUse">
<stop stop-color="white"/>
<stop offset="1" stop-color="white" stop-opacity="0"/>
</linearGradient>
<linearGradient id="paint3_linear" x1="136.58" y1="8.76138" x2="171.445" y2="107.595" gradientUnits="userSpaceOnUse">
<stop stop-color="white"/>
<stop offset="1" stop-color="white" stop-opacity="0"/>
</linearGradient>
<linearGradient id="paint4_linear" x1="354.584" y1="329.881" x2="245.15" y2="519.433" gradientUnits="userSpaceOnUse">
<stop stop-color="white"/>
<stop offset="1" stop-color="white" stop-opacity="0"/>
</linearGradient>
<linearGradient id="paint5_linear" x1="277.285" y1="263.117" x2="312.15" y2="361.951" gradientUnits="userSpaceOnUse">
<stop stop-color="white"/>
<stop offset="1" stop-color="white" stop-opacity="0"/>
</linearGradient>
<linearGradient id="paint6_linear" x1="174.703" y1="258.943" x2="71.7318" y2="339.548" gradientUnits="userSpaceOnUse">
<stop stop-color="white"/>
<stop offset="1" stop-color="white" stop-opacity="0"/>
</linearGradient>
<linearGradient id="paint7_linear" x1="158.104" y1="431.003" x2="123.006" y2="458.678" gradientUnits="userSpaceOnUse">
<stop stop-color="white"/>
<stop offset="1" stop-color="white" stop-opacity="0"/>
</linearGradient>
</defs>
</svg>
