<svg width="12" height="12" viewBox="0 0 12 12" fill="none" xmlns="http://www.w3.org/2000/svg">
<path d="M1.48355 2.9671C2.30289 2.9671 2.9671 2.30289 2.9671 1.48355C2.9671 0.664208 2.30289 0 1.48355 0C0.664208 0 0 0.664208 0 1.48355C0 2.30289 0.664208 2.9671 1.48355 2.9671Z" fill="#242424"/>
<path d="M2.71984 3.95801H0.247258C0.110772 3.95801 0 4.06878 0 4.20527V11.623C0 11.7595 0.110772 11.8703 0.247258 11.8703H2.71984C2.85633 11.8703 2.9671 11.7595 2.9671 11.623V4.20527C2.9671 4.06878 2.85633 3.95801 2.71984 3.95801Z" fill="#242424"/>
<path d="M10.0885 3.5464C9.03175 3.18442 7.70991 3.50239 6.9172 4.07257C6.89 3.96625 6.79307 3.88712 6.67785 3.88712H4.20527C4.06878 3.88712 3.95801 3.9979 3.95801 4.13438V11.5521C3.95801 11.6886 4.06878 11.7994 4.20527 11.7994H6.67785C6.81434 11.7994 6.92511 11.6886 6.92511 11.5521V6.22124C7.32468 5.87706 7.83947 5.76728 8.2608 5.94629C8.66927 6.11888 8.90317 6.5402 8.90317 7.10148V11.5521C8.90317 11.6886 9.01395 11.7994 9.15043 11.7994H11.623C11.7595 11.7994 11.8703 11.6886 11.8703 11.5521V6.6035C11.8421 4.57153 10.8862 3.81937 10.0885 3.5464Z" fill="#242424"/>
</svg>
