<svg width="12" height="12" viewBox="0 0 12 12" fill="none" xmlns="http://www.w3.org/2000/svg">
<path d="M1.48355 2.9671C2.30289 2.9671 2.9671 2.30289 2.9671 1.48355C2.9671 0.664208 2.30289 0 1.48355 0C0.664208 0 0 0.664208 0 1.48355C0 2.30289 0.664208 2.9671 1.48355 2.9671Z" fill="white"/>
<path d="M2.71984 3.95813H0.247258C0.110772 3.95813 0 4.0689 0 4.20539V11.6231C0 11.7596 0.110772 11.8704 0.247258 11.8704H2.71984C2.85633 11.8704 2.9671 11.7596 2.9671 11.6231V4.20539C2.9671 4.0689 2.85633 3.95813 2.71984 3.95813Z" fill="white"/>
<path d="M10.0885 3.54677C9.03175 3.18478 7.70991 3.50276 6.9172 4.07293C6.89 3.96661 6.79307 3.88749 6.67785 3.88749H4.20527C4.06878 3.88749 3.95801 3.99826 3.95801 4.13475V11.5525C3.95801 11.689 4.06878 11.7998 4.20527 11.7998H6.67785C6.81434 11.7998 6.92511 11.689 6.92511 11.5525V6.22161C7.32468 5.87742 7.83947 5.76764 8.2608 5.94666C8.66927 6.11924 8.90317 6.54057 8.90317 7.10185V11.5525C8.90317 11.689 9.01395 11.7998 9.15043 11.7998H11.623C11.7595 11.7998 11.8703 11.689 11.8703 11.5525V6.60387C11.8421 4.5719 10.8862 3.81974 10.0885 3.54677Z" fill="white"/>
</svg>
