<svg width="31" height="35" viewBox="0 0 31 35" fill="none" xmlns="http://www.w3.org/2000/svg">
<path d="M1.82176 33.4737L1.8185 33.4756C1.79288 33.4903 1.75941 33.5 1.72222 33.5C1.69251 33.5 1.65567 33.4923 1.61627 33.4699C1.54956 33.4285 1.5 33.3496 1.5 33.25V1.75006C1.5 1.64922 1.55082 1.56959 1.6188 1.52859C1.68401 1.49064 1.75933 1.4909 1.82263 1.52685C1.82274 1.52691 1.82286 1.52698 1.82297 1.52704L29.373 17.2738C29.3734 17.274 29.3737 17.2743 29.3741 17.2745C29.448 17.3176 29.5 17.4019 29.5 17.5C29.5 17.5982 29.448 17.6824 29.3741 17.7256C29.3737 17.7258 29.3734 17.726 29.373 17.7262L1.82176 33.4737Z" stroke="url(#paint0_linear)" stroke-width="3"/>
<defs>
<linearGradient id="paint0_linear" x1="1.718e-07" y1="15.5556" x2="17.4669" y2="25.2247" gradientUnits="userSpaceOnUse">
<stop stop-color="#E74063"/>
<stop offset="1" stop-color="#755CDB"/>
</linearGradient>
</defs>
</svg>
