<svg width="102" height="46" viewBox="0 0 102 46" fill="none" xmlns="http://www.w3.org/2000/svg">
<path opacity="0.8" d="M68.976 18.2L64.762 25.466L60.506 18.2H59.652V28H60.646V20.202L64.496 26.754H64.986L68.836 20.16V28H69.83V18.2H68.976ZM79.3485 24.318C79.3485 22.106 77.8505 20.58 75.7785 20.58C73.7065 20.58 72.1805 22.134 72.1805 24.318C72.1805 26.502 73.7485 28.07 76.0445 28.07C77.2065 28.07 78.2285 27.65 78.8865 26.866L78.3265 26.222C77.7665 26.866 76.9685 27.188 76.0725 27.188C74.4625 27.188 73.2865 26.166 73.1745 24.626H79.3345C79.3345 24.514 79.3485 24.402 79.3485 24.318ZM75.7785 21.434C77.2205 21.434 78.2705 22.442 78.3965 23.884H73.1745C73.3005 22.442 74.3505 21.434 75.7785 21.434ZM81.5488 28H82.5428V24.752H87.1768V28H88.1708V20.636H87.1768V23.898H82.5428V20.636H81.5488V28ZM97.324 20.58C95.378 20.58 93.908 21.882 93.684 23.814H91.99V20.636H90.996V28H91.99V24.724H93.67C93.852 26.698 95.35 28.07 97.324 28.07C99.424 28.07 100.978 26.502 100.978 24.318C100.978 22.12 99.424 20.58 97.324 20.58ZM97.324 27.202C95.798 27.202 94.65 26.04 94.65 24.318C94.65 22.596 95.798 21.448 97.324 21.448C98.836 21.448 99.998 22.596 99.998 24.318C99.998 26.04 98.836 27.202 97.324 27.202Z" fill="white"/>
<circle opacity="0.05" cx="23" cy="23" r="22.5" fill="white" stroke="#FF0000" stroke-linecap="round"/>
<line x1="15" y1="17.4263" x2="31" y2="17.4263" stroke="white" stroke-width="2" stroke-linecap="round" stroke-linejoin="round"/>
<line x1="19.9092" y1="23.1538" x2="31.0001" y2="23.1538" stroke="white" stroke-width="2" stroke-linecap="round" stroke-linejoin="round"/>
<line x1="15" y1="28.5737" x2="31" y2="28.5737" stroke="white" stroke-width="2" stroke-linecap="round" stroke-linejoin="round"/>
</svg>
