<svg width="44" height="44" viewBox="0 0 44 44" fill="none" xmlns="http://www.w3.org/2000/svg">
<circle opacity="0.2" cx="22" cy="22" r="21.5" stroke="white"/>
<path opacity="0.8" d="M22.0017 15H21.9983C18.1386 15 15 18.1395 15 22C15 23.5312 15.4935 24.9505 16.3326 26.1029L15.4603 28.7034L18.1509 27.8433C19.2578 28.5765 20.5781 29 22.0017 29C25.8614 29 29 25.8596 29 22C29 18.1404 25.8614 15 22.0017 15ZM26.0749 24.8849C25.906 25.3617 25.2358 25.7572 24.7011 25.8727C24.3354 25.9506 23.8576 26.0128 22.2494 25.346C20.1922 24.4938 18.8675 22.4034 18.7643 22.2677C18.6654 22.1321 17.933 21.1609 17.933 20.1564C17.933 19.1519 18.4431 18.6628 18.6488 18.4528C18.8176 18.2804 19.0967 18.2016 19.3645 18.2016C19.4511 18.2016 19.529 18.206 19.599 18.2095C19.8046 18.2183 19.9079 18.2305 20.0435 18.5551C20.2124 18.962 20.6236 19.9665 20.6726 20.0698C20.7225 20.173 20.7724 20.313 20.7024 20.4486C20.6368 20.5886 20.579 20.6507 20.4757 20.7697C20.3725 20.8888 20.2745 20.9798 20.1712 21.1075C20.0767 21.2186 19.97 21.3376 20.089 21.5433C20.208 21.7445 20.6192 22.4156 21.2248 22.9546C22.0061 23.6502 22.6396 23.8725 22.8663 23.967C23.0351 24.037 23.2364 24.0204 23.3597 23.8891C23.5164 23.7203 23.7098 23.4403 23.9066 23.1646C24.0466 22.9669 24.2234 22.9424 24.4089 23.0124C24.5979 23.078 25.598 23.5724 25.8036 23.6747C26.0092 23.778 26.1449 23.827 26.1947 23.9136C26.2437 24.0002 26.2437 24.4071 26.0749 24.8849Z" fill="white"/>
</svg>
