<svg width="40" height="40" viewBox="0 0 40 40" fill="none" xmlns="http://www.w3.org/2000/svg">
<g opacity="0.4" clip-path="url(#clip0)">
<path d="M17.266 31.8721C15.6559 31.4051 14.1032 30.6361 12.7687 29.6531C11.8675 28.9891 11.0407 28.2173 10.3062 27.3478C9.61222 26.526 8.97959 25.5763 8.49009 24.6156C8.22459 24.0946 7.99143 23.5569 7.79246 23.007C7.38413 21.88 7.12016 20.702 7.00388 19.5091C6.77531 17.1662 7.13023 14.7926 8.02744 12.6341C8.12174 12.6161 8.15287 12.61 8.1901 12.599C8.62406 12.4696 9.03788 12.2526 9.38669 11.9721C10.3053 11.233 10.8171 10.1716 10.8274 8.98325C10.8369 7.92154 10.4353 6.80582 9.72575 5.92233C9.5698 5.72824 9.30826 5.65378 9.07358 5.73648C8.00455 6.11276 7.07499 6.84854 6.52293 7.75583C5.90525 8.77085 5.78013 9.94272 6.17075 11.0551C6.31907 11.4775 6.55619 11.88 6.85679 12.219C6.87174 12.2358 6.88578 12.2502 6.90836 12.2712C6.72068 12.7308 6.55589 13.1986 6.41398 13.6738C5.98582 13.0174 5.36509 12.5102 4.60032 12.2053C3.61399 11.8125 2.42869 11.7832 1.34837 12.125C1.11094 12.2001 0.946757 12.4171 0.938822 12.6658C0.902811 13.7983 1.25285 14.9314 1.8986 15.774C2.62126 16.7173 3.66862 17.2581 4.8469 17.2965C4.88322 17.2975 4.91953 17.2981 4.95585 17.2981C5.23447 17.2981 5.51646 17.263 5.7905 17.1961C5.75205 17.8391 5.75388 18.4852 5.796 19.1303C5.05167 18.5459 4.13401 18.2633 3.15531 18.3283C2.09574 18.3988 1.01359 18.8835 0.185954 19.6574C0.00406904 19.8277 -0.0505574 20.0941 0.0495402 20.3218C0.505473 21.3594 1.30931 22.2309 2.25535 22.7131C2.82115 23.0015 3.42112 23.1462 4.02171 23.1462C4.54508 23.1462 5.06907 23.0363 5.57169 22.816C5.84696 22.6954 6.10941 22.5349 6.34806 22.3448C6.55985 23.0961 6.8278 23.8279 7.14976 24.5356C6.45792 24.3672 5.72886 24.3974 5.01658 24.6339C4.00858 24.9681 3.08268 25.7084 2.47599 26.6654C2.34263 26.8757 2.35667 27.1473 2.51048 27.3426C3.21208 28.2325 4.20908 28.8746 5.24577 29.1038C5.53721 29.1682 5.82804 29.2002 6.11491 29.2002C6.9694 29.2002 7.78819 28.917 8.48185 28.3711C8.71409 28.1886 8.92466 27.9716 9.10593 27.7326C9.20542 27.8581 9.30643 27.9823 9.40989 28.105C9.79258 28.5578 10.1982 28.986 10.6245 29.3885C9.9882 29.495 9.38303 29.7642 8.84959 30.1893C8.0189 30.8506 7.40549 31.8653 7.16624 32.9728C7.11375 33.2164 7.22056 33.4663 7.43266 33.5966C8.22398 34.0827 9.14377 34.344 10.0291 34.344C10.2241 34.344 10.4176 34.3312 10.6077 34.3055C11.7851 34.1459 12.7741 33.505 13.3918 32.501C13.5481 32.2474 13.6717 31.9685 13.7593 31.6792C14.7605 32.2328 15.8256 32.6762 16.9392 32.9994C16.9938 33.0149 17.0487 33.0226 17.1031 33.0226C17.3573 33.0226 17.5916 32.8559 17.6661 32.5993C17.7564 32.288 17.5773 31.9624 17.266 31.8721ZM7.13847 9.59421C7.16319 9.25547 7.25047 8.92191 7.39207 8.61338C7.72532 7.88706 8.34666 7.33835 9.06443 7.0051C10.1032 8.58988 9.66471 10.2424 8.65122 11.0578C8.40098 11.2593 7.99021 11.5766 7.67832 11.3783C7.16105 11.0493 7.0994 10.135 7.13847 9.59421ZM5.73588 20.9629C5.731 21.0234 5.7194 21.081 5.7017 21.136C5.61137 21.4167 5.3657 21.6252 5.1005 21.7414C3.90879 22.2633 2.24101 21.8888 1.31541 20.2354C1.26383 20.1429 2.31303 19.7038 2.41923 19.6708C2.84953 19.5365 3.3076 19.4767 3.75742 19.5173C4.19749 19.557 4.63023 19.6946 4.99369 19.95C5.3065 20.1698 5.76884 20.5461 5.73588 20.9629ZM5.40446 16.081C5.23936 16.1238 5.05442 16.1292 4.88474 16.1234C3.58469 16.0813 2.2407 15.0245 2.11802 13.1333C3.97196 12.7378 5.35349 13.7452 5.74686 14.9848C5.90037 15.4679 5.97971 15.9321 5.40446 16.081ZM8.29691 26.7784C8.2548 27.046 7.95481 27.2929 7.75645 27.4488C6.73411 28.2533 5.02543 28.3097 3.71409 26.9413C4.20786 26.3072 4.89512 25.8204 5.69224 25.666C6.37888 25.5332 8.09031 25.7594 8.29203 26.6313C8.30363 26.6807 8.30454 26.7298 8.29691 26.7784ZM12.3927 31.8858C11.7109 32.9936 10.1267 33.6363 8.42387 32.8044C8.6973 31.9483 9.27744 31.2074 10.1014 30.8253C10.6617 30.5656 11.9245 30.2638 12.4668 30.7084C12.5981 30.8161 12.6603 30.9382 12.6774 31.0667C12.7131 31.3389 12.5447 31.6392 12.3927 31.8858Z" fill="white"/>
<path d="M25.8118 27.8514C26.0932 27.6473 26.2314 27.3073 26.1728 26.9643L25.2451 21.5563L29.1745 17.726C29.4236 17.4834 29.5114 17.1273 29.404 16.7964C29.2966 16.4656 29.0161 16.2288 28.6719 16.1791L23.2416 15.3899L20.8133 10.4695C20.6592 10.1577 20.3476 9.96387 19.9997 9.96387C19.6521 9.96387 19.3402 10.1577 19.1864 10.4695L18.1882 12.4919C18.0448 12.7825 18.1641 13.1343 18.4546 13.2778C18.7454 13.4212 19.097 13.3019 19.2404 13.0114L19.9997 11.4724L22.2513 16.0347C22.3835 16.3024 22.6389 16.4879 22.9343 16.5309L27.9691 17.2625L24.3256 20.8138C24.112 21.0222 24.0146 21.3222 24.065 21.6164L24.925 26.631L20.4218 24.2635C20.1575 24.1243 19.8419 24.1243 19.5777 24.2635L15.0745 26.631L15.9345 21.6167C15.9851 21.3225 15.8875 21.0222 15.6735 20.8138L12.0304 17.2625L17.0652 16.5309C17.3606 16.4879 17.616 16.3024 17.7481 16.0347L18.0326 15.4586C18.176 15.1677 18.0567 14.8162 17.7661 14.6727C17.4756 14.5293 17.1237 14.6486 16.9803 14.9391L16.7578 15.3899L11.3278 16.1788C10.9836 16.2288 10.7031 16.4653 10.5957 16.7961C10.488 17.127 10.5762 17.4831 10.8249 17.726L14.7544 21.556L13.8269 26.9643C13.768 27.307 13.9063 27.647 14.1876 27.8514C14.3466 27.9668 14.5325 28.0257 14.7199 28.0257C14.8642 28.0257 15.0089 27.9909 15.1428 27.9204L19.9997 25.367L24.8566 27.9204C25.1645 28.0825 25.5304 28.0559 25.8118 27.8514Z" fill="white"/>
<path d="M17.8181 8.00795C17.8608 8.2997 18.1116 8.50935 18.3976 8.50935C18.426 8.50935 18.4549 8.50722 18.4836 8.50294C18.8044 8.45595 19.0259 8.15779 18.9789 7.83736L18.7482 6.27089C18.7012 5.95015 18.4028 5.72859 18.0823 5.77589C17.7619 5.82289 17.5403 6.12105 17.5873 6.44148L17.8181 8.00795Z" fill="white"/>
<path d="M15.13 9.73065C15.2411 9.91009 15.4331 10.0087 15.6296 10.0087C15.7349 10.0087 15.8417 9.98028 15.9378 9.92077C16.2131 9.75018 16.2982 9.38855 16.128 9.11297L15.3354 7.83275C15.1648 7.55718 14.8032 7.47203 14.5276 7.64263C14.252 7.81322 14.1672 8.17455 14.3378 8.45013L15.13 9.73065Z" fill="white"/>
<path d="M21.6071 8.50294C21.6361 8.50722 21.6647 8.50935 21.6934 8.50935C21.9794 8.50935 22.2299 8.2997 22.273 8.00795L22.5034 6.44148C22.5507 6.12105 22.3291 5.82289 22.0084 5.77589C21.6886 5.72859 21.3898 5.95015 21.3425 6.27089L21.1121 7.83736C21.0648 8.15779 21.2863 8.45595 21.6071 8.50294Z" fill="white"/>
<path d="M24.1531 9.92078C24.2492 9.98029 24.3557 10.0087 24.4613 10.0087C24.6575 10.0087 24.8495 9.9101 24.9606 9.73066L25.7531 8.45014C25.9237 8.17456 25.8385 7.81323 25.5633 7.64264C25.288 7.47205 24.9261 7.55719 24.7555 7.83246L23.9629 9.11298C23.7923 9.38856 23.8775 9.75019 24.1531 9.92078Z" fill="white"/>
<path d="M39.8141 19.6577C38.9865 18.8835 37.9043 18.3991 36.8448 18.3286C35.8652 18.2633 34.9478 18.5462 34.2038 19.1303C34.2462 18.4852 34.2477 17.8391 34.2096 17.1964C34.4833 17.2633 34.7653 17.2984 35.0439 17.2984C35.0806 17.2984 35.1169 17.2978 35.1532 17.2965C36.3315 17.2581 37.3785 16.7176 38.1015 15.7743C38.7472 14.9314 39.0973 13.7986 39.0613 12.6658C39.0533 12.4171 38.8892 12.2004 38.6517 12.1253C37.5714 11.7832 36.3861 11.8125 35.3998 12.2056C34.635 12.5102 34.0143 13.0174 33.5861 13.6738C33.4442 13.1989 33.2791 12.7308 33.0917 12.2715C33.1143 12.2501 33.1286 12.2358 33.1433 12.219C33.4439 11.88 33.681 11.4774 33.8293 11.0551C34.22 9.94272 34.0948 8.77115 33.4772 7.75583C32.9251 6.84884 31.9952 6.11276 30.9265 5.73648C30.6918 5.65377 30.4303 5.72824 30.2743 5.92263C29.5645 6.80581 29.1632 7.92154 29.1726 8.98324C29.183 10.1716 29.6948 11.2333 30.6134 11.9721C30.9622 12.2529 31.376 12.4699 31.8097 12.5993C31.8472 12.6103 31.8783 12.6164 31.9726 12.6341C32.8699 14.7929 33.2248 17.1665 32.9962 19.5091C32.7756 21.7695 32.0358 23.9112 30.8349 25.7969C30.4974 26.3267 30.1074 26.8583 29.6939 27.3478C29.1809 27.9551 28.6181 28.5203 28.0124 29.0348C27.5345 29.441 27.0578 29.8295 26.5201 30.1499C25.989 30.4661 25.4467 30.7896 24.8886 31.0545C24.194 31.3844 23.4726 31.6581 22.734 31.8723C22.4228 31.9627 22.2436 32.288 22.3339 32.5993C22.4084 32.8559 22.6428 33.0226 22.897 33.0226C22.9513 33.0226 23.0063 33.0149 23.0609 32.9994C24.1745 32.6762 25.2395 32.2328 26.2408 31.6792C26.3284 31.9688 26.452 32.2474 26.6082 32.501C26.9662 33.083 27.4402 33.5392 28.0166 33.8566C28.3005 34.0129 28.6572 33.9097 28.8138 33.6259C28.97 33.3421 28.8666 32.9853 28.5827 32.8291C28.1863 32.6106 27.8579 32.2932 27.6074 31.8861C27.3227 31.4234 27.2305 30.9092 27.8146 30.68C29.45 30.0392 31.0824 31.2608 31.5753 32.8019C31.3165 32.9249 31.0464 33.0183 30.7681 33.0815C30.4522 33.1529 30.2542 33.4672 30.3256 33.7831C30.3876 34.0556 30.6293 34.2402 30.8972 34.2402C30.9402 34.2402 30.9839 34.2356 31.0275 34.2256C31.5698 34.1029 32.088 33.8911 32.5674 33.5966C32.7795 33.4663 32.8863 33.2163 32.8338 32.9731C32.5949 31.8653 31.9812 30.8506 31.1505 30.1893C30.617 29.7645 30.0122 29.495 29.3756 29.3885C29.8019 28.986 30.2078 28.5578 30.5902 28.1053C30.6939 27.9826 30.795 27.8581 30.8944 27.7326C31.0754 27.9719 31.2863 28.1886 31.5182 28.3714C32.2119 28.9173 33.0307 29.2002 33.8855 29.2002C34.172 29.2002 34.4629 29.1685 34.7543 29.1038C35.791 28.8746 36.788 28.2325 37.4896 27.3429C37.6437 27.1473 37.6575 26.8757 37.5244 26.6654C36.9174 25.7084 35.9915 24.9681 34.9835 24.6339C34.2712 24.3974 33.5422 24.3675 32.8503 24.5356C33.1723 23.8279 33.4402 23.0961 33.652 22.3448C33.8907 22.5352 34.1534 22.6957 34.4284 22.8163C34.9313 23.0366 35.455 23.1461 35.9784 23.1461C36.579 23.1461 37.1789 23.0015 37.7447 22.7131C38.6908 22.2309 39.4949 21.3593 39.9506 20.3217C40.0503 20.0941 39.9957 19.8277 39.8141 19.6577ZM32.8171 10.3202C32.7423 10.6925 32.6568 11.3194 32.1838 11.3902C31.8545 11.4396 31.5933 11.255 31.3486 11.0581C30.3354 10.2424 29.8965 8.59018 30.9356 7.0054C31.0223 6.87295 32.0776 7.81778 32.1695 7.92642C32.4566 8.26669 32.6697 8.66861 32.7804 9.10043C32.8824 9.49777 32.8976 9.91769 32.8171 10.3202ZM36.2857 26.9416C34.9747 28.31 33.266 28.2536 32.2436 27.4491C32.0157 27.2697 31.8173 27.0405 31.6687 26.7838C31.6611 26.7671 31.6501 26.742 31.6379 26.714C31.6879 26.6389 31.7373 26.5632 31.7862 26.4875C31.9397 26.3062 32.12 26.1476 32.3169 26.023C33.4161 25.3275 35.1218 25.4463 36.2857 26.9416ZM34.2529 14.9851C34.6466 13.7452 36.0278 12.7384 37.8818 13.1336C37.7594 15.0248 36.4151 16.0816 35.115 16.1237C34.8013 16.1344 34.2966 16.1378 34.1604 15.7911C34.0634 15.5439 34.1775 15.2235 34.2529 14.9851ZM34.8993 21.7417C34.6387 21.6273 34.3231 21.4897 34.1977 21.2153C33.9242 20.6181 34.8364 20.0822 35.2258 19.86C35.5432 19.6787 35.8966 19.5628 36.2585 19.5161C37.131 19.4035 37.9959 19.7062 38.6847 20.2357C37.7588 21.8894 36.0907 22.2636 34.8993 21.7417Z" fill="white"/>
</g>
<defs>
<clipPath id="clip0">
<rect width="40" height="40" fill="white"/>
</clipPath>
</defs>
</svg>
