<svg width="90" height="90" viewBox="0 0 90 90" fill="none" xmlns="http://www.w3.org/2000/svg">
<path d="M45 0C20.1855 0 0 20.1874 0 45C0 69.8126 20.1855 90 45 90C69.8145 90 90 69.8126 90 45C90 20.1874 69.8145 0 45 0ZM62.8894 46.5766L36.6395 63.4516C36.3319 63.6511 35.9766 63.7501 35.6251 63.7501C35.3174 63.7501 35.0061 63.6731 34.7279 63.5212C34.1235 63.1916 33.75 62.5616 33.75 61.875V28.125C33.75 27.4384 34.1235 26.8084 34.7279 26.4788C35.3211 26.1529 36.0645 26.173 36.6395 26.5484L62.8894 43.4234C63.4242 43.7676 63.7501 44.3628 63.7501 45C63.7501 45.6372 63.4242 46.2322 62.8894 46.5766Z" fill="url(#paint0_linear)"/>
<defs>
<linearGradient id="paint0_linear" x1="0" y1="0" x2="94.0178" y2="4.41361" gradientUnits="userSpaceOnUse">
<stop stop-color="#E74063"/>
<stop offset="1" stop-color="#755CDB"/>
</linearGradient>
</defs>
</svg>
